<svg width="88" height="88" viewBox="0 0 88 88" fill="none" xmlns="http://www.w3.org/2000/svg">

    <g  id="logotipe" transform="matrix(1 0 0 1 298.51414418027707 193.98736340464527)" style=""  ><path fill="#ca6ce6" opacity="0.85" d="M-136.98-3.71L-141.92-17.09C-142.12-17.56-142.35-17.79-142.84-17.79L-144.98-17.79C-145.48-17.79-145.72-17.56-145.90-17.09L-150.86-3.71C-150.97-3.44-150.97-3.08-150.48-3.08L-148.14-3.08C-147.64-3.08-147.47-3.22-147.29-3.75L-146.66-5.52L-141.18-5.52L-140.56-3.75C-140.38-3.22-140.20-3.08-139.71-3.08L-137.36-3.08C-136.87-3.08-136.87-3.44-136.98-3.71ZM-145.59-8.65L-143.91-13.59L-142.24-8.65Z"/><path fill="#ca6ce6" opacity="0.85" d="M-120.11-6.21L-126.55-6.21L-126.55-17.14C-126.55-17.65-126.79-17.79-127.19-17.79L-129.41-17.79C-129.81-17.79-130.05-17.65-130.05-17.14L-130.05-3.73C-130.05-3.33-129.92-3.08-129.41-3.08L-120.11-3.08C-119.59-3.08-119.46-3.33-119.46-3.73L-119.46-5.56C-119.46-5.96-119.59-6.21-120.11-6.21Z"/><path fill="#ca6ce6" opacity="0.85" d="M-101.45-6.21L-108.58-6.21L-108.58-9.16L-102.59-9.16C-102.07-9.16-101.94-9.41-101.94-9.81L-101.94-11.55C-101.94-11.95-102.07-12.20-102.59-12.20L-108.58-12.20L-108.58-14.64L-101.83-14.64C-101.31-14.64-101.18-14.88-101.18-15.28L-101.18-17.14C-101.18-17.54-101.31-17.79-101.83-17.79L-111.46-17.79C-111.97-17.79-112.11-17.54-112.11-17.14L-112.11-3.73C-112.11-3.33-111.97-3.08-111.46-3.08L-101.45-3.08C-100.93-3.08-100.80-3.33-100.80-3.73L-100.80-5.56C-100.80-5.96-100.93-6.21-101.45-6.21Z"/><path fill="#ca6ce6" opacity="0.85" d="M-86.18-10.61L-82.16-17.16C-82.00-17.41-82.11-17.79-82.49-17.79L-85.11-17.79C-85.56-17.79-85.71-17.61-86.03-17.14L-88.24-13.54L-90.47-17.14C-90.76-17.61-90.94-17.79-91.37-17.79L-94.00-17.79C-94.38-17.79-94.47-17.41-94.34-17.16L-90.29-10.61L-94.27-3.77C-94.45-3.51-94.34-3.08-94.00-3.08L-91.46-3.08C-90.96-3.08-90.76-3.13-90.47-3.71L-88.24-7.69L-86.03-3.71C-85.71-3.13-85.53-3.08-85.04-3.08L-82.49-3.08C-82.16-3.08-82.05-3.51-82.23-3.77Z"/><path fill="#ca6ce6" opacity="0.85" d="M-62.47-3.71L-67.41-17.09C-67.61-17.56-67.83-17.79-68.32-17.79L-70.47-17.79C-70.96-17.79-71.21-17.56-71.39-17.09L-76.35-3.71C-76.46-3.44-76.46-3.08-75.97-3.08L-73.62-3.08C-73.13-3.08-72.95-3.22-72.77-3.75L-72.15-5.52L-66.67-5.52L-66.04-3.75C-65.87-3.22-65.69-3.08-65.19-3.08L-62.85-3.08C-62.36-3.08-62.36-3.44-62.47-3.71ZM-71.07-8.65L-69.40-13.59L-67.72-8.65Z"/><path fill="#ca6ce6" opacity="0.85" d="M-44.25-17.79L-46.40-17.79C-46.80-17.79-47.05-17.65-47.05-17.14L-47.05-9.38L-51.78-17.03C-52.08-17.47-52.23-17.79-52.79-17.79L-54.89-17.79C-55.41-17.79-55.54-17.54-55.54-17.14L-55.54-3.73C-55.54-3.22-55.29-3.08-54.89-3.08L-52.68-3.08C-52.28-3.08-52.03-3.22-52.03-3.73L-52.03-11.51L-47.29-3.84C-47.00-3.39-46.85-3.08-46.29-3.08L-44.25-3.08C-43.74-3.08-43.60-3.33-43.60-3.73L-43.60-17.14C-43.60-17.65-43.85-17.79-44.25-17.79Z"/><path fill="#ca6ce6" opacity="0.85" d="M-29.70-17.79L-34.71-17.79C-35.22-17.79-35.36-17.54-35.36-17.14L-35.36-3.73C-35.36-3.33-35.22-3.08-34.71-3.08L-29.70-3.08C-27.04-3.08-23.69-4.60-23.69-8.11L-23.69-12.76C-23.69-16.25-27.04-17.79-29.70-17.79ZM-27.20-8.42C-27.20-6.99-28.23-6.19-29.70-6.19L-31.85-6.19L-31.85-14.68L-29.70-14.68C-28.23-14.68-27.20-13.85-27.20-12.45Z"/><path fill="#ca6ce6" opacity="0.85" d="M-3.84-3.80L-7.00-8.38C-5.61-8.85-3.89-10.48-3.89-12.83C-3.89-14.26-4.36-15.53-5.19-16.33C-6.12-17.27-7.20-17.77-9.63-17.77L-15.27-17.77C-15.78-17.77-15.89-17.52-15.89-17.12L-15.89-3.73C-15.89-3.22-15.67-3.08-15.27-3.08L-13.05-3.08C-12.65-3.08-12.40-3.22-12.40-3.73L-12.40-14.64L-9.43-14.64C-8.27-14.64-7.38-13.90-7.38-12.74C-7.38-11.69-8.40-10.93-9.50-10.93L-9.95-10.93C-10.46-10.93-10.59-10.68-10.59-10.28L-10.59-8.49C-10.59-7.86-10.55-7.62-10.35-7.35L-7.93-3.75C-7.62-3.28-7.35-3.08-6.82-3.08L-4.18-3.08C-3.75-3.08-3.64-3.48-3.84-3.80Z"/><path fill="#ca6ce6" opacity="0.85" d=""/><path fill="#ca6ce6" opacity="0.85" d=""/><path fill="#ca6ce6" opacity="0.85" d=""/><path fill="#ca6ce6" opacity="0.85" d=""/><path fill="#ca6ce6" opacity="0.85" d=""/><path fill="#ca6ce6" opacity="0.85" d=""/><path fill="#ca6ce6" opacity="0.85" d=""/><path fill="#ca6ce6" opacity="0.85" d=""/><path fill="#ca6ce6" opacity="0.85" d=""/><path fill="#ca6ce6" opacity="0.85" d=""/><path fill="#ca6ce6" opacity="0.85" d=""/><path fill="#ca6ce6" opacity="0.85" d=""/><path fill="#ca6ce6" opacity="0.85" d=""/><path fill="#ca6ce6" opacity="0.85" d=""/><path fill="#ca6ce6" opacity="0.85" d=""/><path fill="#ca6ce6" opacity="0.85" d="M-53.24 2.42L-56.25 2.42C-56.77 2.42-56.93 2.46-57.37 2.95L-62.00 8.05L-62.00 3.07C-62.00 2.55-62.24 2.42-62.62 2.42L-64.84 2.42C-65.26 2.42-65.49 2.55-65.49 3.07L-65.49 16.48C-65.49 16.99-65.26 17.12-64.84 17.12L-62.62 17.12C-62.24 17.12-62.00 16.99-62.00 16.48L-62.00 12.50L-60.61 11.04C-59.41 13.06-57.42 16.41-57.42 16.41C-57.13 16.88-56.84 17.12-56.30 17.12L-53.57 17.12C-53.15 17.12-53.06 16.70-53.24 16.41L-58.04 8.50L-53.01 3.04C-52.81 2.84-52.81 2.42-53.24 2.42Z"/><path fill="#ca6ce6" opacity="0.85" d="M-34.37 7.13C-34.37 3.60-37.73 2.08-40.39 2.08C-43.05 2.08-46.35 3.60-46.35 7.13L-46.35 12.41C-46.35 15.94-43.05 17.46-40.39 17.46C-37.73 17.46-34.37 15.94-34.37 12.41ZM-37.88 12.09C-37.88 13.52-38.91 14.35-40.39 14.35C-41.84 14.35-42.87 13.52-42.87 12.09L-42.87 7.45C-42.87 6.02-41.84 5.19-40.39 5.19C-38.91 5.19-37.88 6.02-37.88 7.45Z"/><path fill="#ca6ce6" opacity="0.85" d="M-14.84 2.42L-17.21 2.42C-17.81 2.42-17.97 2.60-18.15 3.13L-21.17 12.39L-24.21 3.13C-24.38 2.60-24.54 2.42-25.12 2.42L-27.60 2.42C-28.03 2.42-28.12 2.77-28.00 3.07L-23.20 16.45C-22.93 17.03-22.77 17.12-22.28 17.12L-20.14 17.12C-19.65 17.12-19.49 17.03-19.22 16.45L-14.44 3.07C-14.33 2.77-14.42 2.42-14.84 2.42Z"/><path fill="#ca6ce6" opacity="0.85" d="M4.29 16.50L-0.65 3.11C-0.85 2.64-1.07 2.42-1.56 2.42L-3.71 2.42C-4.20 2.42-4.45 2.64-4.63 3.11L-9.59 16.50C-9.70 16.77-9.70 17.12-9.21 17.12L-6.86 17.12C-6.37 17.12-6.19 16.99-6.01 16.45L-5.39 14.69L0.09 14.69L0.72 16.45C0.89 16.99 1.07 17.12 1.56 17.12L3.91 17.12C4.40 17.12 4.40 16.77 4.29 16.50ZM-4.31 11.56L-2.64 6.62L-0.96 11.56Z"/><path fill="#ca6ce6" opacity="0.85" d="M21.17 13.99L14.73 13.99L14.73 3.07C14.73 2.55 14.48 2.42 14.08 2.42L11.87 2.42C11.47 2.42 11.22 2.55 11.22 3.07L11.22 16.48C11.22 16.88 11.35 17.12 11.87 17.12L21.17 17.12C21.68 17.12 21.81 16.88 21.81 16.48L21.81 14.64C21.81 14.24 21.68 13.99 21.17 13.99Z"/><path fill="#ca6ce6" opacity="0.85" d="M38.98 2.42L36.56 2.42C36.05 2.42 35.83 2.48 35.54 3.09L33.01 7.89L30.40 3.09C30.08 2.48 29.86 2.42 29.35 2.42L26.78 2.42C26.35 2.42 26.31 2.80 26.42 3.04L31.20 11.60L31.20 16.48C31.20 16.99 31.42 17.12 31.85 17.12L34.08 17.12C34.49 17.12 34.73 16.99 34.73 16.48L34.73 11.60L39.34 3.04C39.45 2.80 39.40 2.42 38.98 2.42Z"/><path fill="#ca6ce6" opacity="0.85" d="M57.77 7.13C57.77 3.60 54.42 2.08 51.76 2.08C49.10 2.08 45.80 3.60 45.80 7.13L45.80 12.41C45.80 15.94 49.10 17.46 51.76 17.46C54.42 17.46 57.77 15.94 57.77 12.41ZM54.27 12.09C54.27 13.52 53.24 14.35 51.76 14.35C50.31 14.35 49.28 13.52 49.28 12.09L49.28 7.45C49.28 6.02 50.31 5.19 51.76 5.19C53.24 5.19 54.27 6.02 54.27 7.45Z"/><path fill="#ca6ce6" opacity="0.85" d="M77.31 2.42L74.94 2.42C74.34 2.42 74.18 2.60 74.00 3.13L70.98 12.39L67.94 3.13C67.77 2.60 67.61 2.42 67.03 2.42L64.55 2.42C64.12 2.42 64.03 2.77 64.14 3.07L68.95 16.45C69.22 17.03 69.37 17.12 69.87 17.12L72.01 17.12C72.50 17.12 72.66 17.03 72.93 16.45L77.71 3.07C77.82 2.77 77.73 2.42 77.31 2.42Z"/></g><g transform="matrix(0.15155572979645301 0 0 0.15155572979645301 94.50000000000003 196.00487463864394)"  >
    <g style=""   >
        <g transform="matrix(1 0 0 1 -123.16499999999999 -117.9)"  >
            <linearGradient id="SVGID_23027" gradientUnits="userSpaceOnUse" gradientTransform="matrix(1 0 0 1 108.4 113.66999999999999)"  x1="0" y1="0" x2="512" y2="512">
                <stop offset="0%" style="stop-color:rgb(0,221,255);stop-opacity: 1"/>
                <stop offset="100%" style="stop-color:rgb(255,0,212);stop-opacity: 1"/>
            </linearGradient>
            <path style="stroke: none; stroke-width: 1; stroke-dasharray: none; stroke-linecap: butt; stroke-dashoffset: 0; stroke-linejoin: miter; stroke-miterlimit: 4; fill: url(#SVGID_23027); fill-rule: nonzero; opacity: 1;"  transform=" translate(-132.335, -137.6)" d="M 156.27 137.6 c 0 4.47 -1.23 8.66 -3.37 12.24 c -4.17 7 -11.82 11.69 -20.57 11.69 c -12.34 0 -22.5 -9.35 -23.79 -21.35 c -0.09 -0.84 -0.14 -1.71 -0.14 -2.58 c 0 -4.83 1.43 -9.32 3.9 -13.08 c 4.27 -6.54 11.65 -10.85 20.03 -10.85 c 12 0 21.95 8.83 23.67 20.35 C 156.18 135.19 156.27 136.38 156.27 137.6 z" stroke-linecap="round" />
        </g>
        <g transform="matrix(1 0 0 1 45.13550000000001 163.34000000000006)"  >
            <linearGradient id="SVGID_23028" gradientUnits="userSpaceOnUse" gradientTransform="matrix(1 0 0 1 276.701 394.9100000000001)"  x1="0" y1="0" x2="512" y2="512">
                <stop offset="0%" style="stop-color:rgb(0,221,255);stop-opacity: 1"/>
                <stop offset="100%" style="stop-color:rgb(255,0,212);stop-opacity: 1"/>
            </linearGradient>
            <path style="stroke: none; stroke-width: 1; stroke-dasharray: none; stroke-linecap: butt; stroke-dashoffset: 0; stroke-linejoin: miter; stroke-miterlimit: 4; fill: url(#SVGID_23028); fill-rule: nonzero; opacity: 1;"  transform=" translate(-300.6355, -418.84000000000003)" d="M 324.57 418.84 c 0 13.21 -10.721 23.93 -23.94 23.93 c -0.399 0 -0.8 -0.01 -1.189 -0.029 c -5.671 -0.28 -10.82 -2.53 -14.78 -6.09 c -4.891 -4.37 -7.96 -10.74 -7.96 -17.811 c 0 -12.04 8.89 -22 20.46 -23.67 c 1.13 -0.17 2.29 -0.26 3.47 -0.26 c 4.47 0 8.64 1.22 12.22 3.359 C 319.87 402.43 324.57 410.09 324.57 418.84 z" stroke-linecap="round" />
        </g>
        <g transform="matrix(1 0 0 1 169.55 -52.709999999999994)"  >
            <linearGradient id="SVGID_23029" gradientUnits="userSpaceOnUse" gradientTransform="matrix(1 0 0 1 401.12 178.86)"  x1="0" y1="0" x2="512" y2="512">
                <stop offset="0%" style="stop-color:rgb(0,221,255);stop-opacity: 1"/>
                <stop offset="100%" style="stop-color:rgb(255,0,212);stop-opacity: 1"/>
            </linearGradient>
            <path style="stroke: none; stroke-width: 1; stroke-dasharray: none; stroke-linecap: butt; stroke-dashoffset: 0; stroke-linejoin: miter; stroke-miterlimit: 4; fill: url(#SVGID_23029); fill-rule: nonzero; opacity: 1;"  transform=" translate(-425.05, -202.79000000000002)" d="M 448.98 202.79 c 0 13.22 -10.711 23.93 -23.931 23.93 c -2.88 0 -5.63 -0.51 -8.189 -1.44 c -5.21 -1.9 -9.58 -5.56 -12.38 -10.26 c -2.131 -3.58 -3.36 -7.76 -3.36 -12.23 c 0 -13.22 10.72 -23.93 23.93 -23.93 c 3.15 0 6.16 0.61 8.91 1.72 c 5.16 2.06 9.43 5.87 12.07 10.7 C 447.91 194.7 448.98 198.62 448.98 202.79 z" stroke-linecap="round" />
        </g>
        <g transform="matrix(1 0 0 1 0.49999999999992895 0.5)"  >
            <linearGradient id="SVGID_23030" gradientUnits="userSpaceOnUse" gradientTransform="matrix(1 0 0 1 185.02999999999997 24)"  x1="0" y1="0" x2="512" y2="512">
                <stop offset="0%" style="stop-color:rgb(0,221,255);stop-opacity: 1"/>
                <stop offset="100%" style="stop-color:rgb(255,0,212);stop-opacity: 1"/>
            </linearGradient>
            <path style="stroke: none; stroke-width: 1; stroke-dasharray: none; stroke-linecap: butt; stroke-dashoffset: 0; stroke-linejoin: miter; stroke-miterlimit: 4; fill: url(#SVGID_23030); fill-rule: nonzero; opacity: 1;"  transform=" translate(-255.99999999999994, -256)" d="M 326.7 235.24 c -0.16 -6.6 -0.41 -13.15 -0.74 -19.62 c -0.91 -18.19 -2.45 -35.82 -4.57 -52.55 c -0.699 -5.56 -1.47 -11.01 -2.3 -16.36 c -2.88 -18.57 -6.52 -35.83 -10.859 -51.27 C 295.09 48.7 277.03 24 256 24 c -21.03 0 -39.09 24.7 -52.23 71.44 c -4.34 15.44 -7.98 32.7 -10.86 51.27 c -0.83 5.35 -1.6 10.8 -2.3 16.36 c -2.12 16.73 -3.66 34.36 -4.57 52.55 c -0.33 6.47 -0.58 13.01 -0.74 19.61 c -0.18 6.87 -0.27 13.79 -0.27 20.77 c 0 6.97 0.09 13.9 0.27 20.76 c 0.16 6.601 0.41 13.15 0.74 19.62 c 0.91 18.19 2.45 35.82 4.57 52.55 c 0.7 5.561 1.47 11.011 2.3 16.36 c 2.88 18.57 6.52 35.83 10.86 51.27 C 216.91 463.29 234.97 488 256 488 c 13.55 0 25.87 -10.26 36.44 -30.07 c -5.381 -1.13 -10.36 -3.34 -14.71 -6.399 C 269.72 466.14 261.91 472 256 472 c -9.68 0 -24.44 -15.7 -36.83 -59.77 c -4.46 -15.87 -8.16 -33.761 -11.02 -53.101 c -0.81 -5.39 -1.54 -10.899 -2.21 -16.51 c -1.37 -11.54 -2.47 -23.5 -3.27 -35.78 c -0.43 -6.399 -0.77 -12.89 -1.02 -19.46 c -0.41 -10.3 -0.62 -20.78 -0.62 -31.38 c 0 -10.6 0.21 -21.09 0.62 -31.39 c 0.25 -6.56 0.59 -13.05 1.02 -19.45 c 0.8 -12.28 1.9 -24.24 3.27 -35.78 c 0.67 -5.61 1.4 -11.12 2.21 -16.51 c 2.86 -19.34 6.56 -37.23 11.02 -53.1 C 231.56 55.7 246.32 40 256 40 c 9.68 0 24.44 15.7 36.83 59.77 c 4.46 15.87 8.16 33.76 11.02 53.1 c 0.811 5.39 1.54 10.9 2.21 16.51 c 1.37 11.54 2.471 23.5 3.27 35.78 c 0.43 6.4 0.77 12.89 1.02 19.46 c 0.41 10.3 0.62 20.78 0.62 31.38 c 0 10.6 -0.21 21.08 -0.62 31.38 c -0.25 6.57 -0.59 13.06 -1.02 19.46 c -0.8 12.28 -1.9 24.24 -3.27 35.78 c -0.67 5.61 -1.399 11.12 -2.21 16.51 c -1 6.78 -2.109 13.38 -3.31 19.78 h 0.09 c 5.53 0 10.8 1.13 15.59 3.16 c 1.03 -5.46 1.99 -11.061 2.87 -16.78 c 0.83 -5.35 1.601 -10.8 2.3 -16.36 c 2.12 -16.729 3.66 -34.359 4.57 -52.55 c 0.33 -6.47 0.58 -13.02 0.74 -19.62 c 0.18 -6.859 0.27 -13.79 0.27 -20.76 C 326.97 249.03 326.88 242.1 326.7 235.24 z" stroke-linecap="round" />
        </g>
        <g transform="matrix(1 0 0 1 0.49998077205680147 0.5)"  >
            <linearGradient id="SVGID_23031" gradientUnits="userSpaceOnUse" gradientTransform="matrix(1 0 0 1 51.44139038906957 123.39999999999998)"  x1="0" y1="0" x2="512" y2="512">
                <stop offset="0%" style="stop-color:rgb(0,221,255);stop-opacity: 1"/>
                <stop offset="100%" style="stop-color:rgb(255,0,212);stop-opacity: 1"/>
            </linearGradient>
            <path style="stroke: none; stroke-width: 1; stroke-dasharray: none; stroke-linecap: butt; stroke-dashoffset: 0; stroke-linejoin: miter; stroke-miterlimit: 4; fill: url(#SVGID_23031); fill-rule: nonzero; opacity: 1;"  transform=" translate(-255.9999807720568, -256)" d="M 456.92 140 c -6.36 -11.02 -19.88 -16.6 -40.17 -16.6 c -24.96 0 -59.17 8.37 -97.66 23.31 c -5.01 1.94 -10.09 4 -15.24 6.16 c -15.489 6.51 -31.54 14 -47.85 22.34 c -5.78 2.96 -11.58 6.03 -17.41 9.2 c -6.01 3.27 -12.04 6.65 -18.08 10.13 c -6.04 3.49 -11.99 7.02 -17.84 10.62 c -5.64 3.44 -11.19 6.93 -16.63 10.46 c -15.32 9.89 -29.83 20.04 -43.28 30.26 c -4.44 3.37 -8.76 6.74 -12.95 10.12 c -14.65 11.78 -27.76 23.56 -38.97 35.05 C 56.93 325.79 44.57 353.79 55.08 372 c 6.36 11.01 19.88 16.6 40.17 16.6 c 24.96 0 59.17 -8.369 97.66 -23.31 c 5.01 -1.94 10.09 -4 15.24 -6.16 c 15.49 -6.51 31.54 -14 47.85 -22.34 c 5.78 -2.96 11.58 -6.03 17.41 -9.2 c 6.01 -3.27 12.04 -6.649 18.08 -10.13 c 6.04 -3.49 11.99 -7.02 17.84 -10.62 c 5.64 -3.439 11.189 -6.93 16.63 -10.46 c 15.32 -9.89 29.83 -20.04 43.28 -30.26 c 4.439 -3.37 8.76 -6.74 12.95 -10.12 c 7.89 -6.35 15.34 -12.7 22.279 -19 c -4.63 -2.8 -8.66 -6.51 -11.81 -10.89 c -7.271 6.56 -15.101 13.16 -23.42 19.77 c -4.25 3.38 -8.641 6.75 -13.141 10.12 c -9.319 6.97 -19.149 13.92 -29.399 20.76 c -5.34 3.57 -10.79 7.12 -16.351 10.62 c -8.72 5.51 -17.689 10.93 -26.859 16.23 c -9.17 5.29 -18.351 10.34 -27.49 15.13 c -5.83 3.06 -11.64 6.01 -17.41 8.85 c -11.06 5.44 -21.98 10.46 -32.65 15.03 c -5.17 2.21 -10.29 4.32 -15.33 6.31 c -38.02 15.051 -71.8 23.67 -95.36 23.67 c -13.77 0 -23.11 -3.06 -26.31 -8.6 c -4.84 -8.38 1.38 -29.01 33.35 -61.78 c 11.52 -11.8 25.16 -23.95 40.47 -36.1 c 4.25 -3.38 8.64 -6.75 13.14 -10.12 c 9.32 -6.98 19.15 -13.92 29.4 -20.77 c 5.34 -3.57 10.79 -7.12 16.35 -10.62 c 8.72 -5.51 17.69 -10.92 26.86 -16.22 c 9.17 -5.29 18.35 -10.34 27.49 -15.13 c 5.83 -3.06 11.64 -6.01 17.41 -8.85 c 11.06 -5.44 21.979 -10.46 32.649 -15.03 c 5.171 -2.21 10.29 -4.32 15.33 -6.31 c 38.021 -15.05 71.801 -23.67 95.36 -23.67 c 13.77 0 23.11 3.05 26.31 8.6 c 2.16 3.73 2.12 9.89 -1.409 18.47 c 5.04 2.32 9.52 5.65 13.159 9.74 C 461.66 161.75 462.42 149.53 456.92 140 z" stroke-linecap="round" />
        </g>
        <g transform="matrix(1 0 0 1 0.49999999999994316 0.5)"  >
            <linearGradient id="SVGID_23032" gradientUnits="userSpaceOnUse" gradientTransform="matrix(1 0 0 1 51.44139038906954 123.4)"  x1="0" y1="0" x2="512" y2="512">
                <stop offset="0%" style="stop-color:rgb(0,221,255);stop-opacity: 1"/>
                <stop offset="100%" style="stop-color:rgb(255,0,212);stop-opacity: 1"/>
            </linearGradient>
            <path style="stroke: none; stroke-width: 1; stroke-dasharray: none; stroke-linecap: butt; stroke-dashoffset: 0; stroke-linejoin: miter; stroke-miterlimit: 4; fill: url(#SVGID_23032); fill-rule: nonzero; opacity: 1;"  transform=" translate(-255.99999999999994, -256)" d="M 421.16 291.05 c -11.21 -11.49 -24.32 -23.27 -38.97 -35.05 c -4.19 -3.38 -8.511 -6.75 -12.95 -10.12 c -13.45 -10.22 -27.96 -20.37 -43.28 -30.26 c -5.44 -3.53 -10.99 -7.02 -16.63 -10.46 c -5.85 -3.6 -11.8 -7.13 -17.84 -10.62 c -6.04 -3.48 -12.07 -6.86 -18.08 -10.13 c -5.83 -3.17 -11.63 -6.24 -17.41 -9.2 c -16.31 -8.34 -32.36 -15.83 -47.85 -22.34 c -5.15 -2.16 -10.23 -4.22 -15.24 -6.16 c -7.04 -2.74 -13.94 -5.25 -20.67 -7.53 c -0.22 5.58 -1.59 10.88 -3.88 15.65 c 7.22 2.47 14.65 5.22 22.25 8.24 c 5.04 1.99 10.16 4.1 15.33 6.31 c 10.67 4.57 21.59 9.59 32.65 15.03 c 5.77 2.84 11.58 5.79 17.41 8.85 c 9.14 4.79 18.32 9.84 27.49 15.13 c 9.17 5.3 18.14 10.72 26.859 16.23 c 5.561 3.5 11.011 7.05 16.351 10.62 c 10.25 6.84 20.08 13.79 29.399 20.76 c 4.5 3.37 8.891 6.74 13.141 10.12 c 15.31 12.149 28.95 24.3 40.47 36.1 c 31.97 32.771 38.19 53.4 33.35 61.78 c -3.199 5.54 -12.54 8.6 -26.31 8.6 c -23.56 0 -57.34 -8.619 -95.36 -23.67 c -5.04 -1.989 -10.159 -4.1 -15.33 -6.31 c -10.67 -4.57 -21.59 -9.59 -32.649 -15.03 c -5.771 -2.84 -11.58 -5.79 -17.41 -8.85 c -9.14 -4.79 -18.32 -9.84 -27.49 -15.13 c -9.17 -5.301 -18.14 -10.721 -26.86 -16.23 c -5.56 -3.5 -11.01 -7.05 -16.35 -10.62 c -10.25 -6.84 -20.08 -13.79 -29.4 -20.76 c -4.5 -3.37 -8.89 -6.74 -13.14 -10.12 c -15.31 -12.15 -28.95 -24.3 -40.47 -36.1 C 70.32 177.01 64.1 156.38 68.94 148 c 2.98 -5.16 11.27 -8.16 23.5 -8.55 c -0.03 -0.61 -0.04 -1.23 -0.04 -1.85 c 0 -5 0.92 -9.78 2.61 -14.2 c -20.16 0.04 -33.6 5.63 -39.93 16.6 c -10.51 18.21 1.85 46.2 35.76 80.95 c 11.21 11.49 24.32 23.27 38.97 35.05 c 4.19 3.38 8.51 6.75 12.95 10.12 c 13.45 10.22 27.96 20.37 43.28 30.26 c 5.44 3.53 10.99 7.02 16.63 10.46 c 5.85 3.601 11.8 7.13 17.84 10.62 c 6.04 3.48 12.07 6.86 18.08 10.13 c 5.83 3.17 11.63 6.24 17.41 9.2 c 16.31 8.34 32.36 15.83 47.85 22.34 c 5.15 2.16 10.23 4.22 15.24 6.16 c 38.49 14.94 72.7 23.31 97.66 23.31 c 20.29 0 33.81 -5.59 40.17 -16.6 C 467.43 353.79 455.07 325.79 421.16 291.05 z" stroke-linecap="round" />
        </g>
        <g transform="matrix(1 0 0 1 1.065814e-14 1.065814e-14)"  >
            <linearGradient id="SVGID_23033" gradientUnits="userSpaceOnUse" gradientTransform="matrix(1 0 0 1 -27.432 -27.432)"  x1="0" y1="0" x2="512" y2="512">
                <stop offset="0%" style="stop-color:rgb(0,221,255);stop-opacity: 1"/>
                <stop offset="100%" style="stop-color:rgb(255,0,212);stop-opacity: 1"/>
            </linearGradient>
            <circle style="stroke: none; stroke-width: 1; stroke-dasharray: none; stroke-linecap: butt; stroke-dashoffset: 0; stroke-linejoin: miter; stroke-miterlimit: 4; fill: url(#SVGID_23033); fill-rule: nonzero; opacity: 1;"  cx="0" cy="0" r="27.432" />
        </g>
    </g>
</g>

    <g id='iconGithub'>
        <path fill-rule="evenodd" clip-rule="evenodd" d="M44 0C19.69 0 0 19.69 0 44C0 63.47 12.595 79.915 30.085 85.745C32.285 86.13 33.11 84.81 33.11 83.655C33.11 82.61 33.055 79.145 33.055 75.46C22 77.495 19.14 72.765 18.26 70.29C17.765 69.025 15.62 65.12 13.75 64.075C12.21 63.25 10.01 61.215 13.695 61.16C17.16 61.105 19.635 64.35 20.46 65.67C24.42 72.325 30.745 70.455 33.275 69.3C33.66 66.44 34.815 64.515 36.08 63.415C26.29 62.315 16.06 58.52 16.06 41.69C16.06 36.905 17.765 32.945 20.57 29.865C20.13 28.765 18.59 24.255 21.01 18.205C21.01 18.205 24.695 17.05 33.11 22.715C36.63 21.725 40.37 21.23 44.11 21.23C47.85 21.23 51.59 21.725 55.11 22.715C63.525 16.995 67.21 18.205 67.21 18.205C69.63 24.255 68.09 28.765 67.65 29.865C70.455 32.945 72.16 36.85 72.16 41.69C72.16 58.575 61.875 62.315 52.085 63.415C53.68 64.79 55.055 67.43 55.055 71.555C55.055 77.44 55 82.17 55 83.655C55 84.81 55.825 86.185 58.025 85.745C66.7597 82.796 74.3497 77.1822 79.7268 69.6937C85.1039 62.2052 87.9974 53.219 88 44C88 19.69 68.31 0 44 0Z" fill="#A7A7A7"/>
    </g>

    <g id="telegram">
        <path d="M16.5118 32.1064C25.618 32.1064 33 24.9383 33 16.0959C33 7.25353 25.618 0.0853729 16.5118 0.0853729C7.40568 0.0853729 0.0236816 7.25353 0.0236816 16.0959C0.0236816 24.9383 7.40568 32.1064 16.5118 32.1064Z M7.4873 15.9269C12.2939 13.8934 15.4991 12.5528 17.1028 11.9051C21.6818 10.0557 22.6332 9.73448 23.2534 9.72387C23.3898 9.72153 23.6947 9.75436 23.8923 9.91001C24.0591 10.0414 24.105 10.219 24.1269 10.3436C24.1489 10.4682 24.1763 10.7521 24.1545 10.9739C23.9064 13.5055 22.8327 19.6492 22.2865 22.4846C22.0554 23.6844 21.6003 24.0867 21.1597 24.1261C20.2022 24.2117 19.4751 23.5116 18.5477 22.9213C17.0965 21.9976 16.2767 21.4226 14.8681 20.5213C13.2402 19.4796 14.2955 18.907 15.2232 17.9714C15.466 17.7265 19.6848 14.0004 19.7664 13.6624C19.7767 13.6201 19.7861 13.4625 19.6897 13.3793C19.5933 13.2961 19.451 13.3245 19.3484 13.3472C19.2028 13.3792 16.8845 14.8671 12.3936 17.8109C11.7355 18.2496 11.1395 18.4634 10.6055 18.4522C10.0168 18.4399 8.88432 18.129 8.04246 17.8633C7.00989 17.5373 6.18922 17.365 6.26069 16.8115C6.29791 16.5232 6.70678 16.2283 7.4873 15.9269Z" fill="#A7A7A7"/>
    </g>

    <g id="instagram">
        <path fill-rule="evenodd" clip-rule="evenodd" d="M7.67021 15.7666C7.67021 11.295 11.295 7.67021 15.7666 7.67021C20.238 7.67021 23.8629 11.295 23.8629 15.7666C23.8629 20.238 20.238 23.8629 15.7666 23.8629C11.295 23.8629 7.67021 20.238 7.67021 15.7666ZM15.7666 21.022C12.864 21.022 10.511 18.6691 10.511 15.7666C10.511 12.864 12.864 10.511 15.7666 10.511C18.6691 10.511 21.022 12.864 21.022 15.7666C21.022 18.6691 18.6691 21.022 15.7666 21.022Z" fill="#A7A7A7"/>
        <path d="M24.1827 9.24229C25.2277 9.24229 26.0748 8.39526 26.0748 7.35034C26.0748 6.30541 25.2277 5.45832 24.1827 5.45832C23.1379 5.45832 22.2908 6.30541 22.2908 7.35034C22.2908 8.39526 23.1379 9.24229 24.1827 9.24229Z" fill="#A7A7A7"/>
        <path fill-rule="evenodd" clip-rule="evenodd" d="M15.7666 0C11.4846 0 10.9477 0.0181498 9.26601 0.0948794C7.58785 0.171421 6.44172 0.437972 5.43886 0.827754C4.40207 1.23062 3.52281 1.76973 2.64623 2.64623C1.76973 3.52281 1.23062 4.40207 0.827754 5.43886C0.437972 6.44172 0.171421 7.58785 0.0948794 9.26601C0.0181498 10.9477 0 11.4846 0 15.7666C0 20.0485 0.0181498 20.5854 0.0948794 22.2671C0.171421 23.9452 0.437972 25.0914 0.827754 26.0942C1.23062 27.131 1.76973 28.0103 2.64623 28.8868C3.52281 29.7633 4.40207 30.3025 5.43886 30.7054C6.44172 31.0951 7.58785 31.3617 9.26601 31.4382C10.9477 31.5149 11.4846 31.5331 15.7666 31.5331C20.0485 31.5331 20.5854 31.5149 22.2671 31.4382C23.9452 31.3617 25.0914 31.0951 26.0942 30.7054C27.131 30.3025 28.0103 29.7633 28.8868 28.8868C29.7633 28.0103 30.3025 27.131 30.7054 26.0942C31.0951 25.0914 31.3617 23.9452 31.4382 22.2671C31.5149 20.5854 31.5331 20.0485 31.5331 15.7666C31.5331 11.4846 31.5149 10.9477 31.4382 9.26601C31.3617 7.58785 31.0951 6.44172 30.7054 5.43886C30.3025 4.40207 29.7633 3.52281 28.8868 2.64623C28.0103 1.76973 27.131 1.23062 26.0942 0.827754C25.0914 0.437972 23.9452 0.171421 22.2671 0.0948794C20.5854 0.0181498 20.0485 0 15.7666 0ZM15.7666 2.84081C19.9764 2.84081 20.4751 2.8569 22.1376 2.93275C23.6748 3.00285 24.5096 3.2597 25.0652 3.47562C25.8011 3.76163 26.3264 4.10328 26.878 4.65504C27.4298 5.20673 27.7714 5.73194 28.0575 6.46789C28.2734 7.02346 28.5302 7.85828 28.6003 9.3955C28.6762 11.058 28.6923 11.5567 28.6923 15.7666C28.6923 19.9764 28.6762 20.4751 28.6003 22.1376C28.5302 23.6748 28.2734 24.5096 28.0575 25.0652C27.7714 25.8011 27.4298 26.3263 26.878 26.878C26.3264 27.4298 25.8011 27.7714 25.0652 28.0575C24.5096 28.2734 23.6748 28.5302 22.1376 28.6003C20.4753 28.6762 19.9767 28.6923 15.7666 28.6923C11.5564 28.6923 11.0578 28.6762 9.39551 28.6003C7.85828 28.5302 7.02346 28.2734 6.46789 28.0575C5.73195 27.7714 5.20673 27.4298 4.65504 26.878C4.10335 26.3263 3.76163 25.8011 3.47562 25.0652C3.2597 24.5096 3.00285 23.6748 2.93275 22.1376C2.8569 20.4751 2.84082 19.9764 2.84082 15.7666C2.84082 11.5567 2.8569 11.058 2.93275 9.3955C3.00285 7.85828 3.2597 7.02346 3.47562 6.46789C3.76163 5.73194 4.10329 5.20673 4.65504 4.65504C5.20673 4.10328 5.73195 3.76163 6.46789 3.47562C7.02346 3.2597 7.85828 3.00285 9.39551 2.93275C11.058 2.8569 11.5567 2.84081 15.7666 2.84081Z" fill="#A7A7A7"/>
    </g>

    <g id="whatsapp">
        <path d="M11.1896 8.569C11.4732 8.58058 11.787 8.59383 12.0851 9.25473C12.2888 9.70653 12.6316 10.5488 12.9048 11.2201C13.1061 11.7147 13.2696 12.1165 13.3118 12.2007C13.4113 12.3991 13.4776 12.6309 13.3449 12.8959C13.3251 12.9355 13.3067 12.9729 13.2892 13.0086C13.1895 13.2115 13.1162 13.3606 12.9474 13.5577C12.8812 13.6348 12.8128 13.7177 12.7444 13.8007C12.6071 13.9674 12.4697 14.134 12.3504 14.2527C12.1508 14.4506 11.9435 14.6656 12.1757 15.0625C12.4079 15.4598 13.2065 16.7589 14.3894 17.8108C15.6602 18.9409 16.7642 19.4189 17.3248 19.6616C17.4349 19.7093 17.524 19.7479 17.5894 19.7805C17.9874 19.979 18.2195 19.946 18.4516 19.6807C18.6838 19.4161 19.446 18.5223 19.7113 18.1254C19.9766 17.7281 20.2419 17.7943 20.6067 17.9266C20.9715 18.0589 22.9278 19.0191 23.3258 19.2176C23.4034 19.2563 23.4759 19.2912 23.5432 19.3236C23.8209 19.4573 24.0084 19.5475 24.0885 19.6807C24.188 19.8467 24.188 20.641 23.8564 21.5676C23.5248 22.4943 21.9001 23.3881 21.1705 23.4542C21.1003 23.4606 21.0305 23.4688 20.9587 23.4772C20.2844 23.5563 19.4334 23.6561 16.3954 22.4613C12.6573 20.991 10.1926 17.3475 9.68339 16.5948C9.64164 16.5331 9.61303 16.4908 9.59795 16.4707L9.59352 16.4648C9.37895 16.1788 7.97312 14.305 7.97312 12.3661C7.97312 10.5384 8.87389 9.5803 9.28834 9.13949C9.31666 9.10937 9.34271 9.08166 9.36605 9.05626C9.73058 8.6591 10.1618 8.55971 10.427 8.55971C10.4416 8.55971 10.4561 8.55971 10.4707 8.55971C10.7212 8.55968 10.9705 8.55965 11.1896 8.569Z" fill="#A7A7A7"/>
        <path fill-rule="evenodd" clip-rule="evenodd" d="M2.28113 23.8088C0.867471 21.4054 0.128514 18.6817 0.128514 15.8618C0.128514 7.11378 7.29317 0 16.0643 0C20.3374 0 24.3213 1.66629 27.3414 4.64639C30.3293 7.65853 32 11.632 32 15.8939C32 24.6419 24.8353 31.7557 16.0643 31.7557C13.3976 31.7557 10.7631 31.1148 8.4498 29.833L0 32.0441L2.28113 23.8088ZM4.8514 22.9115L5.17269 23.3922L3.82329 28.2629L8.83534 26.9491L9.31727 27.2375C11.3414 28.4551 13.6867 29.096 16.0643 29.096C23.3574 29.096 29.3012 23.1679 29.3012 15.8939C29.3012 12.369 27.9197 9.03643 25.4137 6.53699C22.9398 4.0696 19.5984 2.6917 16.0643 2.6917C8.77108 2.6917 2.82731 8.58781 2.82731 15.8939C2.82731 18.3613 3.53414 20.7966 4.8514 22.9115Z" fill="#A7A7A7"/>
    </g>
</svg>
