<svg width="88" height="88" viewBox="0 0 88 88" fill="none" xmlns="http://www.w3.org/2000/svg">
    <!--logo-->
    <g id="logo">
        <g>
            <path style="opacity:0.934" fill="#15cafb"
                  d="M 169.5,38.5 C 167.621,38.3932 167.288,38.8932 168.5,40C 167.884,42.1785 166.717,44.0118 165,45.5C 163.692,44.8487 162.859,45.5154 162.5,47.5C 159.97,44.3117 157.304,41.145 154.5,38C 149.38,35.4945 145.214,36.6611 142,41.5C 137.676,47.8177 134.176,54.4844 131.5,61.5C 129.259,62.2998 128.259,63.9664 128.5,66.5C 124.643,68.3411 121.309,71.0078 118.5,74.5C 117.817,74.1373 117.15,73.8039 116.5,73.5C 119.382,59.343 124.882,46.343 133,34.5C 146.785,21.6051 158.952,22.9384 169.5,38.5 Z"/>
        </g>
        <g>
            <path style="opacity:0.892" fill="#27baf8"
                  d="M 169.5,38.5 C 174.831,46.4661 178.831,55.1328 181.5,64.5C 179.916,65.3818 178.249,66.2152 176.5,67C 176.833,67.3333 177.167,67.6667 177.5,68C 175.604,69.7412 173.604,71.2412 171.5,72.5C 169.094,63.9491 166.094,55.6158 162.5,47.5C 162.859,45.5154 163.692,44.8487 165,45.5C 166.717,44.0118 167.884,42.1785 168.5,40C 167.288,38.8932 167.621,38.3932 169.5,38.5 Z"/>
        </g>
        <g>
            <path style="opacity:0.944" fill="#1dc3fa"
                  d="M 131.5,61.5 C 127.217,75.2975 123.884,89.2975 121.5,103.5C 117.507,102.923 113.84,101.59 110.5,99.5C 112.117,90.7488 114.117,82.0821 116.5,73.5C 117.15,73.8039 117.817,74.1373 118.5,74.5C 121.309,71.0078 124.643,68.3411 128.5,66.5C 128.259,63.9664 129.259,62.2998 131.5,61.5 Z"/>
        </g>
        <g>
            <path style="opacity:0.928" fill="#38acf5"
                  d="M 181.5,64.5 C 184.639,76.0545 187.305,87.7212 189.5,99.5C 186.12,101.74 182.454,103.407 178.5,104.5C 176.674,93.7013 174.341,83.0346 171.5,72.5C 173.604,71.2412 175.604,69.7412 177.5,68C 177.167,67.6667 176.833,67.3333 176.5,67C 178.249,66.2152 179.916,65.3818 181.5,64.5 Z"/>
        </g>
        <g>
            <path style="opacity:0.948" fill="#0ad4fd"
                  d="M 39.5,116.5 C 37.7467,119.424 35.4134,121.924 32.5,124C 33.3366,125.011 33.67,126.178 33.5,127.5C 25.297,118.027 23.1304,107.36 27,95.5C 33.909,88.359 42.409,85.0257 52.5,85.5C 51.8857,89.1352 51.5524,92.8019 51.5,96.5C 36.2925,96.3815 32.2925,103.048 39.5,116.5 Z"/>
        </g>
        <g>
            <path style="opacity:0.962" fill="#0dd2fc"
                  d="M 73.5,79.5 C 83.228,79.8946 88.8947,84.8946 90.5,94.5C 86.3809,109.49 77.3809,113.323 63.5,106C 57.4552,97.1136 58.4552,89.1136 66.5,82C 68.9269,81.0977 71.2603,80.2644 73.5,79.5 Z"/>
        </g>
        <g>
            <path style="opacity:0.979" fill="#5e8aee"
                  d="M 265.5,89.5 C 264.262,89.81 264.262,90.31 265.5,91C 263.641,91.6839 261.974,92.6839 260.5,94C 260.833,94.3333 261.167,94.6667 261.5,95C 260.5,95.3333 259.5,95.6667 258.5,96C 259.252,96.6708 259.586,97.5041 259.5,98.5C 255.669,97.0795 251.669,96.4129 247.5,96.5C 241.14,96.9803 234.806,97.647 228.5,98.5C 228.062,98.5654 227.728,98.3988 227.5,98C 229.167,97 230.833,96 232.5,95C 232.167,94.6667 231.833,94.3333 231.5,94C 234.371,91.5343 237.371,89.0343 240.5,86.5C 246.847,85.2495 253.18,85.4161 259.5,87C 261.852,87.2401 263.852,88.0735 265.5,89.5 Z"/>
        </g>
        <g>
            <path style="opacity:0.958" fill="#5097f1"
                  d="M 240.5,86.5 C 237.371,89.0343 234.371,91.5343 231.5,94C 231.833,94.3333 232.167,94.6667 232.5,95C 230.833,96 229.167,97 227.5,98C 227.728,98.3988 228.062,98.5654 228.5,98.5C 215.739,101.863 203.072,105.863 190.5,110.5C 188.09,111.063 185.757,111.563 183.5,112C 188.703,106.965 193.703,101.798 198.5,96.5C 212.031,91.2842 226.031,87.9509 240.5,86.5 Z"/>
        </g>
        <g>
            <path style="opacity:0.794" fill="#ca6ce5"
                  d="M 491.5,94.5 C 505.504,94.3334 519.504,94.5001 533.5,95C 535.399,99.1778 536.065,103.678 535.5,108.5C 525.5,108.5 515.5,108.5 505.5,108.5C 505.5,111.5 505.5,114.5 505.5,117.5C 514.173,117.334 522.84,117.5 531.5,118C 532.464,122.066 532.797,126.233 532.5,130.5C 523.5,130.5 514.5,130.5 505.5,130.5C 505.5,134.167 505.5,137.833 505.5,141.5C 516.082,141.18 526.582,141.513 537,142.5C 537.667,146.167 537.667,149.833 537,153.5C 536.25,154.126 535.416,154.626 534.5,155C 519.788,155.816 505.122,155.65 490.5,154.5C 490.167,144.667 489.833,134.833 489.5,125C 489.524,114.606 490.191,104.439 491.5,94.5 Z"/>
        </g>
        <g>
            <path style="opacity:0.812" fill="#c96be6"
                  d="M 878.5,94.5 C 890.203,94.2321 901.869,94.7321 913.5,96C 924.111,100.72 928.278,108.887 926,120.5C 924.29,126.432 920.79,130.932 915.5,134C 918.594,139.43 922.094,144.596 926,149.5C 927.009,151.025 927.509,152.692 927.5,154.5C 921.491,154.666 915.491,154.499 909.5,154C 905.543,148.587 901.71,143.087 898,137.5C 897.501,132.511 897.334,127.511 897.5,122.5C 907.61,123.254 910.943,119.087 907.5,110C 902.599,108.675 897.599,108.175 892.5,108.5C 892.5,123.833 892.5,139.167 892.5,154.5C 886.907,154.807 881.407,154.473 876,153.5C 875.333,134.5 875.333,115.5 876,96.5C 876.995,95.9341 877.828,95.2674 878.5,94.5 Z"/>
        </g>
        <g>
            <path style="opacity:0.813" fill="#ca6ce6"
                  d="M 354.5,95.5 C 360.093,95.1934 365.593,95.5268 371,96.5C 378.743,115.565 385.576,134.899 391.5,154.5C 386.125,154.828 380.792,154.495 375.5,153.5C 373.895,150.686 372.895,147.686 372.5,144.5C 365.833,144.5 359.167,144.5 352.5,144.5C 352.105,147.686 351.105,150.686 349.5,153.5C 346.833,153.833 344.167,154.167 341.5,154.5C 338.309,154.622 335.309,154.122 332.5,153C 339.739,133.782 347.072,114.616 354.5,95.5 Z M 362.5,117.5 C 364.335,121.656 366.001,125.989 367.5,130.5C 364.167,131.833 360.833,131.833 357.5,130.5C 358.979,126.06 360.645,121.726 362.5,117.5 Z"/>
        </g>
        <g>
            <path style="opacity:0.791" fill="#c86be7"
                  d="M 417.5,95.5 C 422.833,95.5 428.167,95.5 433.5,95.5C 433.5,110.833 433.5,126.167 433.5,141.5C 443.083,141.182 452.583,141.515 462,142.5C 462.667,146.167 462.667,149.833 462,153.5C 461.25,154.126 460.416,154.626 459.5,155C 446.167,155.667 432.833,155.667 419.5,155C 418.584,154.626 417.75,154.126 417,153.5C 416.18,134.093 416.347,114.76 417.5,95.5 Z"/>
        </g>
        <g>
            <path style="opacity:0.808" fill="#ca6ce6"
                  d="M 560.5,95.5 C 566.176,95.3339 571.843,95.5006 577.5,96C 580.624,100.414 583.624,104.914 586.5,109.5C 589.376,104.914 592.376,100.414 595.5,96C 601.157,95.5006 606.824,95.3339 612.5,95.5C 612.245,98.0163 611.411,100.35 610,102.5C 605.249,109.666 600.749,117 596.5,124.5C 601,132.167 605.5,139.833 610,147.5C 611.411,149.65 612.245,151.984 612.5,154.5C 606.824,154.666 601.157,154.499 595.5,154C 592.625,149.083 589.625,144.249 586.5,139.5C 583.375,144.249 580.375,149.083 577.5,154C 571.843,154.499 566.176,154.666 560.5,154.5C 561.092,151.309 562.259,148.309 564,145.5C 568.167,138.5 572.333,131.5 576.5,124.5C 571.834,115.831 566.668,107.498 561,99.5C 560.51,98.2068 560.343,96.8734 560.5,95.5 Z"/>
        </g>
        <g>
            <path style="opacity:0.814" fill="#ca6ce6"
                  d="M 654.5,95.5 C 660.093,95.1934 665.593,95.5268 671,96.5C 678.343,115.697 685.176,135.03 691.5,154.5C 686.156,154.666 680.823,154.499 675.5,154C 673.972,151.083 672.639,148.083 671.5,145C 665.141,144.169 658.807,144.336 652.5,145.5C 651.5,148.167 650.5,150.833 649.5,153.5C 643.872,154.495 638.206,154.829 632.5,154.5C 639.055,134.497 646.388,114.831 654.5,95.5 Z M 661.5,117.5 C 663.958,121.673 665.958,126.173 667.5,131C 664.183,131.498 660.85,131.665 657.5,131.5C 658.635,126.764 659.968,122.097 661.5,117.5 Z"/>
        </g>
        <g>
            <path style="opacity:0.81" fill="#ca6be6"
                  d="M 717.5,95.5 C 722.511,95.3341 727.511,95.5007 732.5,96C 738.708,104.913 744.541,114.079 750,123.5C 750.333,114.5 750.667,105.5 751,96.5C 756.333,95.1667 761.667,95.1667 767,96.5C 767.667,115.5 767.667,134.5 767,153.5C 761.918,154.637 756.751,154.804 751.5,154C 745.667,144.833 739.833,135.667 734,126.5C 733.5,135.827 733.334,145.161 733.5,154.5C 727.907,154.807 722.407,154.473 717,153.5C 716.18,134.093 716.347,114.76 717.5,95.5 Z"/>
        </g>
        <g>
            <path style="opacity:0.81" fill="#ca6be5"
                  d="M 798.5,95.5 C 809.172,95.3335 819.839,95.5002 830.5,96C 838.901,98.0677 844.401,103.234 847,111.5C 847.667,120.5 847.667,129.5 847,138.5C 844.401,146.766 838.901,151.932 830.5,154C 819.59,154.82 808.757,154.653 798,153.5C 797.18,134.093 797.347,114.76 798.5,95.5 Z M 814.5,108.5 C 827.469,106.636 832.803,112.136 830.5,125C 833.132,138.189 827.799,143.689 814.5,141.5C 814.5,130.5 814.5,119.5 814.5,108.5 Z"/>
        </g>
        <g>
            <path style="opacity:0.965" fill="#499df2"
                  d="M 198.5,96.5 C 193.703,101.798 188.703,106.965 183.5,112C 185.757,111.563 188.09,111.063 190.5,110.5C 191.995,120.765 192.995,131.099 193.5,141.5C 189.164,139.668 185.164,137.335 181.5,134.5C 181.115,128.097 180.282,121.764 179,115.5C 173.575,118.129 168.075,120.629 162.5,123C 167.564,126.191 172.564,129.358 177.5,132.5C 176.381,134.787 174.715,136.621 172.5,138C 173.684,139.145 173.684,140.312 172.5,141.5C 164.839,138.005 157.505,134.005 150.5,129.5C 152.235,128.981 153.902,127.814 155.5,126C 154.346,125.086 154.513,124.253 156,123.5C 156.333,123.833 156.667,124.167 157,124.5C 157.5,123.333 158.333,122.5 159.5,122C 158.346,121.086 158.513,120.253 160,119.5C 160.333,119.833 160.667,120.167 161,120.5C 161.5,119.333 162.333,118.5 163.5,118C 162.346,117.086 162.513,116.253 164,115.5C 164.333,115.833 164.667,116.167 165,116.5C 165.5,115.333 166.333,114.5 167.5,114C 166.346,113.086 166.513,112.253 168,111.5C 168.333,111.833 168.667,112.167 169,112.5C 169.5,111.333 170.333,110.5 171.5,110C 170.748,109.329 170.414,108.496 170.5,107.5C 172.954,105.94 175.62,104.94 178.5,104.5C 182.454,103.407 186.12,101.74 189.5,99.5C 192.421,98.304 195.421,97.304 198.5,96.5 Z M 181.5,134.5 C 180.167,133.833 178.833,133.167 177.5,132.5C 172.564,129.358 167.564,126.191 162.5,123C 168.075,120.629 173.575,118.129 179,115.5C 180.282,121.764 181.115,128.097 181.5,134.5 Z"/>
        </g>
        <g>
            <path style="opacity:0.936" fill="#6b7fec"
                  d="M 265.5,89.5 C 273.389,93.2766 276.556,99.6099 275,108.5C 274.442,111.934 273.609,115.267 272.5,118.5C 271.448,118.649 270.448,118.483 269.5,118C 267.924,115.923 265.924,114.423 263.5,113.5C 263.308,109.589 263.141,105.589 263,101.5C 261.961,100.29 260.794,99.2899 259.5,98.5C 259.586,97.5041 259.252,96.6708 258.5,96C 259.5,95.6667 260.5,95.3333 261.5,95C 261.167,94.6667 260.833,94.3333 260.5,94C 261.974,92.6839 263.641,91.6839 265.5,91C 264.262,90.31 264.262,89.81 265.5,89.5 Z"/>
        </g>
        <g>
            <path style="opacity:0.919" fill="#2ab8f8"
                  d="M 110.5,99.5 C 113.84,101.59 117.507,102.923 121.5,103.5C 121.5,103.833 121.5,104.167 121.5,104.5C 120.127,104.343 118.793,104.51 117.5,105C 117.833,105.333 118.167,105.667 118.5,106C 114.398,107.104 113.064,109.104 114.5,112C 116.727,112.941 118.727,114.108 120.5,115.5C 119.714,121.814 119.047,128.147 118.5,134.5C 114.852,137.66 110.852,140.327 106.5,142.5C 106.895,132.09 107.895,121.757 109.5,111.5C 104.791,109.43 100.124,107.263 95.5,105C 96.5272,101.595 97.8605,98.4285 99.5,95.5C 103.195,96.842 106.862,98.1753 110.5,99.5 Z"/>
        </g>
        <g>
            <path style="opacity:0.923" fill="#1dc5fa"
                  d="M 39.5,116.5 C 45.7113,125.721 52.7113,134.388 60.5,142.5C 59.2823,143.731 57.949,144.898 56.5,146C 56.8333,146.333 57.1667,146.667 57.5,147C 56.376,147.249 55.376,147.749 54.5,148.5C 55.6527,149.687 55.6527,150.687 54.5,151.5C 46.0956,144.664 39.0956,136.664 33.5,127.5C 33.67,126.178 33.3366,125.011 32.5,124C 35.4134,121.924 37.7467,119.424 39.5,116.5 Z"/>
        </g>
        <g>
            <path style="opacity:0.964" fill="#0dd2fc"
                  d="M 248.5,119.5 C 262.491,118.326 268.991,124.659 268,138.5C 262.148,149.671 253.648,152.171 242.5,146C 236.452,139.298 235.952,132.131 241,124.5C 243.426,122.548 245.926,120.881 248.5,119.5 Z"/>
        </g>
        <g>
            <path style="opacity:0.951" fill="#3ca8f5"
                  d="M 121.5,104.5 C 131.4,107.865 140.9,112.198 150,117.5C 156.66,113.753 163.494,110.42 170.5,107.5C 170.414,108.496 170.748,109.329 171.5,110C 170.333,110.5 169.5,111.333 169,112.5C 168.667,112.167 168.333,111.833 168,111.5C 166.513,112.253 166.346,113.086 167.5,114C 166.333,114.5 165.5,115.333 165,116.5C 164.667,116.167 164.333,115.833 164,115.5C 162.513,116.253 162.346,117.086 163.5,118C 162.333,118.5 161.5,119.333 161,120.5C 160.667,120.167 160.333,119.833 160,119.5C 158.513,120.253 158.346,121.086 159.5,122C 158.333,122.5 157.5,123.333 157,124.5C 156.667,124.167 156.333,123.833 156,123.5C 154.513,124.253 154.346,125.086 155.5,126C 153.902,127.814 152.235,128.981 150.5,129.5C 139.564,134.969 128.897,140.969 118.5,147.5C 117.501,159.148 117.168,170.814 117.5,182.5C 116.778,182.082 116.278,181.416 116,180.5C 115.612,181.428 114.945,182.095 114,182.5C 111.773,181.637 109.607,180.637 107.5,179.5C 106.864,171.104 106.197,163.438 105.5,156.5C 100.208,159.488 95.2084,162.988 90.5,167C 94.1955,169.51 97.8621,172.01 101.5,174.5C 100.667,176.829 99.0004,178.329 96.5,179C 95.2148,180.312 95.2148,182.145 96.5,184.5C 90.9233,181.457 85.7567,177.79 81,173.5C 75.6274,178.377 70.1274,183.044 64.5,187.5C 64.0825,186.778 63.4158,186.278 62.5,186C 65.025,183.082 68.3583,180.748 72.5,179C 71.8333,178.667 71.1667,178.333 70.5,178C 72.5,177 74.5,176 76.5,175C 75.8333,174.667 75.1667,174.333 74.5,174C 76.5,173 78.5,172 80.5,171C 79.8333,170.667 79.1667,170.333 78.5,170C 80.5,169 82.5,168 84.5,167C 83.8333,166.667 83.1667,166.333 82.5,166C 84.5,165 86.5,164 88.5,163C 87.8333,162.667 87.1667,162.333 86.5,162C 88.5,161 90.5,160 92.5,159C 91.8333,158.667 91.1667,158.333 90.5,158C 92.5,157 94.5,156 96.5,155C 95.8333,154.667 95.1667,154.333 94.5,154C 98.6417,152.252 101.975,149.918 104.5,147C 103.207,146.51 101.873,146.343 100.5,146.5C 102.147,144.674 104.147,143.34 106.5,142.5C 110.852,140.327 114.852,137.66 118.5,134.5C 124.508,130.83 130.508,127.163 136.5,123.5C 131.419,120.293 126.086,117.626 120.5,115.5C 118.727,114.108 116.727,112.941 114.5,112C 113.064,109.104 114.398,107.104 118.5,106C 118.167,105.667 117.833,105.333 117.5,105C 118.793,104.51 120.127,104.343 121.5,104.5 Z M 105.5,156.5 C 105.666,163.508 105.5,170.508 105,177.5C 103.961,176.29 102.794,175.29 101.5,174.5C 97.8621,172.01 94.1955,169.51 90.5,167C 95.2084,162.988 100.208,159.488 105.5,156.5 Z"/>
        </g>
        <g>
            <path style="opacity:0.989" fill="#5a8fef"
                  d="M 177.5,132.5 C 178.833,133.167 180.167,133.833 181.5,134.5C 185.164,137.335 189.164,139.668 193.5,141.5C 194.694,142.272 195.694,143.272 196.5,144.5C 194.372,146.465 192.372,148.632 190.5,151C 191.991,152.991 193.658,154.825 195.5,156.5C 194.509,163.313 194.175,170.313 194.5,177.5C 191.197,181.156 187.197,183.822 182.5,185.5C 182.667,173.162 182.5,160.829 182,148.5C 178.855,146.024 175.688,143.69 172.5,141.5C 173.684,140.312 173.684,139.145 172.5,138C 174.715,136.621 176.381,134.787 177.5,132.5 Z"/>
        </g>
        <g>
            <path style="opacity:0.971" fill="#36adf6"
                  d="M 60.5,142.5 C 67.149,148.309 73.9823,153.976 81,159.5C 87.3995,154.919 93.8995,150.586 100.5,146.5C 101.873,146.343 103.207,146.51 104.5,147C 101.975,149.918 98.6417,152.252 94.5,154C 95.1667,154.333 95.8333,154.667 96.5,155C 94.5,156 92.5,157 90.5,158C 91.1667,158.333 91.8333,158.667 92.5,159C 90.5,160 88.5,161 86.5,162C 87.1667,162.333 87.8333,162.667 88.5,163C 86.5,164 84.5,165 82.5,166C 83.1667,166.333 83.8333,166.667 84.5,167C 82.5,168 80.5,169 78.5,170C 79.1667,170.333 79.8333,170.667 80.5,171C 78.5,172 76.5,173 74.5,174C 75.1667,174.333 75.8333,174.667 76.5,175C 74.5,176 72.5,177 70.5,178C 71.1667,178.333 71.8333,178.667 72.5,179C 68.3583,180.748 65.025,183.082 62.5,186C 63.4158,186.278 64.0825,186.778 64.5,187.5C 55.7565,195.741 47.9232,204.741 41,214.5C 37.7679,219.361 36.2679,224.694 36.5,230.5C 34.1458,231.565 31.8125,232.732 29.5,234C 29.8333,234.333 30.1667,234.667 30.5,235C 29.5,235.333 28.5,235.667 27.5,236C 28.7736,236.977 28.7736,237.811 27.5,238.5C 24.8142,233.844 23.9809,228.844 25,223.5C 28.2639,212.971 33.5972,203.638 41,195.5C 50.564,185.266 60.7307,175.766 71.5,167C 65.6377,161.967 59.971,156.801 54.5,151.5C 55.6527,150.687 55.6527,149.687 54.5,148.5C 55.376,147.749 56.376,147.249 57.5,147C 57.1667,146.667 56.8333,146.333 56.5,146C 57.949,144.898 59.2823,143.731 60.5,142.5 Z"/>
        </g>
        <g>
            <path style="opacity:0.981" fill="#0ed1fc"
                  d="M 145.5,149.5 C 162.748,149.339 169.581,157.672 166,174.5C 160.955,182.409 153.788,185.242 144.5,183C 134.672,179.144 130.839,171.977 133,161.5C 135.208,155.337 139.375,151.337 145.5,149.5 Z"/>
        </g>
        <g>
            <path style="opacity:0.935" fill="#717aeb"
                  d="M 230.5,169.5 C 228.167,172.167 225.833,174.833 223.5,177.5C 222.373,176.878 221.373,176.045 220.5,175C 219.5,174.333 218.5,174.333 217.5,175C 210.15,180.672 202.483,185.839 194.5,190.5C 194.062,190.565 193.728,190.399 193.5,190C 194.328,189.085 195.328,188.419 196.5,188C 196.167,187.667 195.833,187.333 195.5,187C 196.938,186.781 198.271,186.281 199.5,185.5C 200.641,184.575 200.641,183.741 199.5,183C 200.833,182.667 202.167,182.333 203.5,182C 203.5,181 203.5,180 203.5,179C 204.938,178.781 206.271,178.281 207.5,177.5C 208.641,176.575 208.641,175.741 207.5,175C 208.938,174.781 210.271,174.281 211.5,173.5C 212.641,172.575 212.641,171.741 211.5,171C 213.774,170.53 215.774,169.53 217.5,168C 216.833,167.667 216.167,167.333 215.5,167C 216.938,166.781 218.271,166.281 219.5,165.5C 220.641,164.575 220.641,163.741 219.5,163C 221.774,162.53 223.774,161.53 225.5,160C 224.833,159.667 224.167,159.333 223.5,159C 224.938,158.781 226.271,158.281 227.5,157.5C 228.641,156.575 228.641,155.741 227.5,155C 229.774,154.53 231.774,153.53 233.5,152C 232.244,151.583 231.577,150.75 231.5,149.5C 232.251,148.427 233.251,148.26 234.5,149C 236.647,151.237 238.98,153.237 241.5,155C 237.333,158.5 233.167,162 229,165.5C 228.7,167.066 229.2,168.399 230.5,169.5 Z"/>
        </g>
        <g>
            <path style="opacity:0.818" fill="#ca6ce6"
                  d="M 770.5,175.5 C 783.017,172.952 793.517,176.285 802,185.5C 802.667,187.5 803.333,189.5 804,191.5C 804.667,201.167 804.667,210.833 804,220.5C 801.427,228.739 795.927,233.905 787.5,236C 778.832,237.336 770.498,236.336 762.5,233C 759.628,230.463 757.128,227.63 755,224.5C 753.4,213.239 753.067,201.906 754,190.5C 757.182,182.813 762.682,177.813 770.5,175.5 Z M 776.5,188.5 C 781.023,188.18 784.523,189.846 787,193.5C 787.667,201.833 787.667,210.167 787,218.5C 783.56,223.458 779.06,224.625 773.5,222C 772.299,221.097 771.465,219.931 771,218.5C 770.333,210.167 770.333,201.833 771,193.5C 772.107,190.887 773.94,189.22 776.5,188.5 Z"/>
        </g>
        <g>
            <path style="opacity:0.801" fill="#ca6ce6"
                  d="M 1140.5,175.5 C 1147.59,175.116 1154.59,175.616 1161.5,177C 1167.69,179.193 1171.86,183.359 1174,189.5C 1174.67,200.5 1174.67,211.5 1174,222.5C 1171.23,229.651 1166.06,234.151 1158.5,236C 1148.99,237.644 1139.99,236.311 1131.5,232C 1128.46,229.407 1126.29,226.24 1125,222.5C 1124.33,211.5 1124.33,200.5 1125,189.5C 1127.82,182.178 1132.99,177.512 1140.5,175.5 Z M 1146.5,188.5 C 1152.91,187.613 1156.75,190.28 1158,196.5C 1158.86,204.232 1158.52,211.898 1157,219.5C 1150.86,225.255 1145.53,224.588 1141,217.5C 1140.33,209.833 1140.33,202.167 1141,194.5C 1142.36,191.977 1144.19,189.977 1146.5,188.5 Z"/>
        </g>
        <g>
            <path style="opacity:0.805" fill="#ca6be5"
                  d="M 677.5,176.5 C 682.762,176.195 687.928,176.529 693,177.5C 693.333,183.5 693.667,189.5 694,195.5C 699.5,189.333 705,183.167 710.5,177C 716.825,176.5 723.158,176.334 729.5,176.5C 729.657,177.873 729.49,179.207 729,180.5C 722.135,187.031 715.635,193.864 709.5,201C 715,209.833 720.5,218.667 726,227.5C 727.707,229.909 728.54,232.575 728.5,235.5C 722.491,235.666 716.491,235.499 710.5,235C 706.125,227.749 701.625,220.582 697,213.5C 696,214.5 695,215.5 694,216.5C 693.667,222.5 693.333,228.5 693,234.5C 687.667,235.833 682.333,235.833 677,234.5C 676.18,215.093 676.347,195.76 677.5,176.5 Z"/>
        </g>
        <g>
            <path style="opacity:0.807" fill="#ca6ce6"
                  d="M 827.5,176.5 C 833.206,176.171 838.872,176.505 844.5,177.5C 848.033,188.934 851.867,200.267 856,211.5C 859.735,200.13 863.568,188.796 867.5,177.5C 873.128,176.505 878.794,176.171 884.5,176.5C 878.511,195.634 872.011,214.634 865,233.5C 862.276,234.776 859.276,235.442 856,235.5C 853.167,235.333 850.333,235.167 847.5,235C 840.21,216.299 833.21,197.466 826.5,178.5C 826.863,177.817 827.196,177.15 827.5,176.5 Z"/>
        </g>
        <g>
            <path style="opacity:0.813" fill="#ca6ce6"
                  d="M 922.5,176.5 C 928.093,176.193 933.593,176.527 939,177.5C 946.743,196.565 953.576,215.899 959.5,235.5C 954.125,235.828 948.792,235.495 943.5,234.5C 941.895,231.686 940.895,228.686 940.5,225.5C 933.833,225.5 927.167,225.5 920.5,225.5C 920.105,228.686 919.105,231.686 917.5,234.5C 914.833,234.833 912.167,235.167 909.5,235.5C 906.309,235.622 903.309,235.122 900.5,234C 907.739,214.782 915.072,195.616 922.5,176.5 Z M 930.5,198.5 C 932.335,202.656 934.001,206.989 935.5,211.5C 932.167,212.833 928.833,212.833 925.5,211.5C 926.979,207.06 928.645,202.726 930.5,198.5 Z"/>
        </g>
        <g>
            <path style="opacity:0.791" fill="#c86be7"
                  d="M 985.5,176.5 C 990.833,176.5 996.167,176.5 1001.5,176.5C 1001.5,191.833 1001.5,207.167 1001.5,222.5C 1011.08,222.182 1020.58,222.515 1030,223.5C 1030.67,227.167 1030.67,230.833 1030,234.5C 1029.25,235.126 1028.42,235.626 1027.5,236C 1014.17,236.667 1000.83,236.667 987.5,236C 986.584,235.626 985.75,235.126 985,234.5C 984.18,215.093 984.347,195.76 985.5,176.5 Z"/>
        </g>
        <g>
            <path style="opacity:0.81" fill="#ca6ce6"
                  d="M 1046.5,176.5 C 1052.18,176.334 1057.84,176.501 1063.5,177C 1067.13,183.085 1070.63,189.252 1074,195.5C 1077.37,189.252 1080.87,183.085 1084.5,177C 1090.34,176.053 1096.01,176.386 1101.5,178C 1095.37,189.48 1089.2,200.98 1083,212.5C 1082.67,219.833 1082.33,227.167 1082,234.5C 1076.59,235.473 1071.09,235.807 1065.5,235.5C 1065.67,227.826 1065.5,220.159 1065,212.5C 1059.67,203.167 1054.33,193.833 1049,184.5C 1047.29,182.091 1046.46,179.425 1046.5,176.5 Z"/>
        </g>
        <g>
            <path style="opacity:0.809" fill="#ca6ce6"
                  d="M 1197.5,176.5 C 1203.43,176.192 1209.26,176.525 1215,177.5C 1218.54,188.622 1222.37,199.622 1226.5,210.5C 1230.23,199.483 1234.06,188.483 1238,177.5C 1243.41,176.527 1248.91,176.193 1254.5,176.5C 1248.84,196.32 1242.18,215.82 1234.5,235C 1229.17,235.667 1223.83,235.667 1218.5,235C 1210.42,215.916 1203.42,196.416 1197.5,176.5 Z"/>
        </g>
        <g>
            <path style="opacity:0.925" fill="#7e70ea"
                  d="M 230.5,169.5 C 237.753,174.083 244.086,179.75 249.5,186.5C 246.147,188.177 242.813,189.843 239.5,191.5C 234.126,186.823 228.793,182.157 223.5,177.5C 225.833,174.833 228.167,172.167 230.5,169.5 Z"/>
        </g>
        <g>
            <path style="opacity:0.989" fill="#6981ed"
                  d="M 196.5,144.5 C 204.372,148.86 211.872,153.86 219,159.5C 223.041,155.953 227.208,152.62 231.5,149.5C 231.577,150.75 232.244,151.583 233.5,152C 231.774,153.53 229.774,154.53 227.5,155C 228.641,155.741 228.641,156.575 227.5,157.5C 226.271,158.281 224.938,158.781 223.5,159C 224.167,159.333 224.833,159.667 225.5,160C 223.774,161.53 221.774,162.53 219.5,163C 220.641,163.741 220.641,164.575 219.5,165.5C 218.271,166.281 216.938,166.781 215.5,167C 216.167,167.333 216.833,167.667 217.5,168C 215.774,169.53 213.774,170.53 211.5,171C 212.641,171.741 212.641,172.575 211.5,173.5C 210.271,174.281 208.938,174.781 207.5,175C 208.641,175.741 208.641,176.575 207.5,177.5C 206.271,178.281 204.938,178.781 203.5,179C 203.5,180 203.5,181 203.5,182C 202.167,182.333 200.833,182.667 199.5,183C 200.641,183.741 200.641,184.575 199.5,185.5C 198.271,186.281 196.938,186.781 195.5,187C 195.833,187.333 196.167,187.667 196.5,188C 195.328,188.419 194.328,189.085 193.5,190C 193.728,190.399 194.062,190.565 194.5,190.5C 193.015,201.119 191.682,211.786 190.5,222.5C 186.163,222.128 182.496,220.462 179.5,217.5C 180.106,212.168 180.773,206.835 181.5,201.5C 181.167,200.833 180.833,200.167 180.5,199.5C 174.63,203.2 168.63,206.7 162.5,210C 166.056,211.608 169.389,213.441 172.5,215.5C 169.488,217.848 166.488,220.182 163.5,222.5C 158.855,220.512 154.188,218.512 149.5,216.5C 143.261,219.787 136.928,222.787 130.5,225.5C 137.167,218.167 143.833,210.833 150.5,203.5C 161.49,198.007 172.157,192.007 182.5,185.5C 187.197,183.822 191.197,181.156 194.5,177.5C 199.471,174.01 204.471,170.51 209.5,167C 204.65,163.637 199.983,160.137 195.5,156.5C 193.658,154.825 191.991,152.991 190.5,151C 192.372,148.632 194.372,146.465 196.5,144.5 Z M 179.5,217.5 C 177.167,216.833 174.833,216.167 172.5,215.5C 169.389,213.441 166.056,211.608 162.5,210C 168.63,206.7 174.63,203.2 180.5,199.5C 180.833,200.167 181.167,200.833 181.5,201.5C 180.773,206.835 180.106,212.168 179.5,217.5 Z"/>
        </g>
        <g>
            <path style="opacity:0.902" fill="#4e99f1"
                  d="M 117.5,182.5 C 117.33,183.822 117.663,184.989 118.5,186C 123.24,188.36 127.574,191.193 131.5,194.5C 127.928,196.503 125.262,198.837 123.5,201.5C 121.956,201.297 120.622,200.63 119.5,199.5C 119.167,200.167 118.833,200.833 118.5,201.5C 118.904,207.09 119.904,212.424 121.5,217.5C 117.584,220.29 113.251,222.29 108.5,223.5C 108.233,212.952 107.4,202.285 106,191.5C 102.855,189.024 99.688,186.69 96.5,184.5C 95.2148,182.145 95.2148,180.312 96.5,179C 99.0004,178.329 100.667,176.829 101.5,174.5C 102.794,175.29 103.961,176.29 105,177.5C 105.5,170.508 105.666,163.508 105.5,156.5C 106.197,163.438 106.864,171.104 107.5,179.5C 109.607,180.637 111.773,181.637 114,182.5C 114.945,182.095 115.612,181.428 116,180.5C 116.278,181.416 116.778,182.082 117.5,182.5 Z"/>
        </g>
        <g>
            <path style="opacity:0.908" fill="#8d61e7"
                  d="M 249.5,186.5 C 256.769,193.046 263.102,200.38 268.5,208.5C 266.215,210.785 263.881,213.119 261.5,215.5C 260.583,214.873 259.583,214.539 258.5,214.5C 252.883,206.281 246.549,198.614 239.5,191.5C 242.813,189.843 246.147,188.177 249.5,186.5 Z"/>
        </g>
        <g>
            <path style="opacity:0.978" fill="#5e8aef"
                  d="M 131.5,194.5 C 137.681,197.757 144.015,200.757 150.5,203.5C 143.833,210.833 137.167,218.167 130.5,225.5C 127.495,227.002 124.495,228.502 121.5,230C 123.111,237.492 124.778,244.992 126.5,252.5C 125.735,252.077 124.902,251.743 124,251.5C 122.455,254.249 119.955,256.582 116.5,258.5C 113.831,250.825 112.164,242.825 111.5,234.5C 104.235,236.699 96.9014,238.699 89.5,240.5C 90.2297,238.955 91.563,238.122 93.5,238C 91.1224,237.026 91.4557,236.359 94.5,236C 94.1667,235.667 93.8333,235.333 93.5,235C 96.2801,234.63 98.2801,233.63 99.5,232C 98.8333,231.667 98.1667,231.333 97.5,231C 98.8333,230.667 100.167,230.333 101.5,230C 101.5,229 101.5,228 101.5,227C 102.833,226.667 104.167,226.333 105.5,226C 104.906,225.536 104.239,225.369 103.5,225.5C 104.93,224.463 106.597,223.796 108.5,223.5C 113.251,222.29 117.584,220.29 121.5,217.5C 126.958,215.271 132.292,212.771 137.5,210C 132.603,207.392 127.937,204.559 123.5,201.5C 125.262,198.837 127.928,196.503 131.5,194.5 Z"/>
        </g>
        <g>
            <path style="opacity:0.971" fill="#7775eb"
                  d="M 172.5,215.5 C 174.833,216.167 177.167,216.833 179.5,217.5C 182.496,220.462 186.163,222.128 190.5,222.5C 191.391,223.11 192.391,223.443 193.5,223.5C 190.662,225.395 188.329,227.895 186.5,231C 188.093,231.949 189.426,233.115 190.5,234.5C 188.557,236.971 187.557,239.971 187.5,243.5C 183.864,242.674 180.197,242.008 176.5,241.5C 176.686,237.552 177.352,233.719 178.5,230C 173.265,227.768 168.265,225.268 163.5,222.5C 166.488,220.182 169.488,217.848 172.5,215.5 Z"/>
        </g>
        <g>
            <path style="opacity:0.918" fill="#9b56e5"
                  d="M 268.5,208.5 C 282.204,233.096 275.037,246.096 247,247.5C 235.409,247.153 224.242,245.153 213.5,241.5C 213.918,240.778 214.584,240.278 215.5,240C 215.167,239.667 214.833,239.333 214.5,239C 215.5,238.667 216.5,238.333 217.5,238C 217.167,237.667 216.833,237.333 216.5,237C 218.033,235.86 219.7,234.693 221.5,233.5C 232.689,236.133 244.022,236.966 255.5,236C 263.083,235.034 265.583,230.867 263,223.5C 261.967,220.216 260.467,217.216 258.5,214.5C 259.583,214.539 260.583,214.873 261.5,215.5C 263.881,213.119 266.215,210.785 268.5,208.5 Z"/>
        </g>
        <g>
            <path style="opacity:0.961" fill="#8569e8"
                  d="M 193.5,223.5 C 202.838,227.055 212.172,230.389 221.5,233.5C 219.7,234.693 218.033,235.86 216.5,237C 216.833,237.333 217.167,237.667 217.5,238C 216.5,238.333 215.5,238.667 214.5,239C 214.833,239.333 215.167,239.667 215.5,240C 214.584,240.278 213.918,240.778 213.5,241.5C 205.644,239.77 197.977,237.437 190.5,234.5C 189.426,233.115 188.093,231.949 186.5,231C 188.329,227.895 190.662,225.395 193.5,223.5 Z"/>
        </g>
        <g>
            <path style="opacity:0.941" fill="#5196f1"
                  d="M 103.5,225.5 C 104.239,225.369 104.906,225.536 105.5,226C 104.167,226.333 102.833,226.667 101.5,227C 101.5,228 101.5,229 101.5,230C 100.167,230.333 98.8333,230.667 97.5,231C 98.1667,231.333 98.8333,231.667 99.5,232C 98.2801,233.63 96.2801,234.63 93.5,235C 93.8333,235.333 94.1667,235.667 94.5,236C 91.4557,236.359 91.1224,237.026 93.5,238C 91.563,238.122 90.2297,238.955 89.5,240.5C 74.9131,246.061 59.9131,248.061 44.5,246.5C 45.9217,246.291 47.255,245.791 48.5,245C 51.4189,241.573 54.7523,238.74 58.5,236.5C 73.9389,234.557 88.9389,230.89 103.5,225.5 Z"/>
        </g>
        <g>
            <path style="opacity:0.924" fill="#45a0f3"
                  d="M 36.5,230.5 C 38.263,233.556 40.9297,235.389 44.5,236C 49.1548,236.499 53.8215,236.666 58.5,236.5C 54.7523,238.74 51.4189,241.573 48.5,245C 47.255,245.791 45.9217,246.291 44.5,246.5C 37.6275,246.229 31.9608,243.562 27.5,238.5C 28.7736,237.811 28.7736,236.977 27.5,236C 28.5,235.667 29.5,235.333 30.5,235C 30.1667,234.667 29.8333,234.333 29.5,234C 31.8125,232.732 34.1458,231.565 36.5,230.5 Z"/>
        </g>
        <g>
            <path style="opacity:0.972" fill="#0dd2fc"
                  d="M 172.5,250.5 C 188.339,249.883 194.505,257.216 191,272.5C 182.371,282.771 173.371,283.104 164,273.5C 159.623,263.129 162.456,255.462 172.5,250.5 Z"/>
        </g>
        <g>
            <path style="opacity:0.898" fill="#6b80ec"
                  d="M 126.5,252.5 C 128.297,259.891 130.297,267.225 132.5,274.5C 130.548,276.452 128.548,278.452 126.5,280.5C 125.691,282.071 125.357,283.738 125.5,285.5C 121.128,277.051 118.128,268.051 116.5,258.5C 119.955,256.582 122.455,254.249 124,251.5C 124.902,251.743 125.735,252.077 126.5,252.5 Z"/>
        </g>
        <g>
            <path style="opacity:0.946" fill="#7775ea"
                  d="M 132.5,274.5 C 135.579,282.252 139.912,289.252 145.5,295.5C 142.969,297.431 139.636,299.098 135.5,300.5C 130.929,296.369 127.596,291.369 125.5,285.5C 125.357,283.738 125.691,282.071 126.5,280.5C 128.548,278.452 130.548,276.452 132.5,274.5 Z"/>
        </g>
        <g>
            <path style="opacity:0.953" fill="#826be8"
                  d="M 135.5,300.5 C 139.636,299.098 142.969,297.431 145.5,295.5C 147.17,295.751 148.67,296.418 150,297.5C 154.949,295.052 158.782,291.386 161.5,286.5C 162.333,286.167 163.167,285.833 164,285.5C 166.54,286.185 169.04,287.019 171.5,288C 172.517,289.049 172.684,290.216 172,291.5C 168.114,298.386 162.614,303.553 155.5,307C 147.343,309.073 140.676,306.907 135.5,300.5 Z"/>
        </g>

    </g>
    <!--contacts-->
    <g id='iconGithub'>
        <path fill-rule="evenodd" clip-rule="evenodd"
              d="M44 0C19.69 0 0 19.69 0 44C0 63.47 12.595 79.915 30.085 85.745C32.285 86.13 33.11 84.81 33.11 83.655C33.11 82.61 33.055 79.145 33.055 75.46C22 77.495 19.14 72.765 18.26 70.29C17.765 69.025 15.62 65.12 13.75 64.075C12.21 63.25 10.01 61.215 13.695 61.16C17.16 61.105 19.635 64.35 20.46 65.67C24.42 72.325 30.745 70.455 33.275 69.3C33.66 66.44 34.815 64.515 36.08 63.415C26.29 62.315 16.06 58.52 16.06 41.69C16.06 36.905 17.765 32.945 20.57 29.865C20.13 28.765 18.59 24.255 21.01 18.205C21.01 18.205 24.695 17.05 33.11 22.715C36.63 21.725 40.37 21.23 44.11 21.23C47.85 21.23 51.59 21.725 55.11 22.715C63.525 16.995 67.21 18.205 67.21 18.205C69.63 24.255 68.09 28.765 67.65 29.865C70.455 32.945 72.16 36.85 72.16 41.69C72.16 58.575 61.875 62.315 52.085 63.415C53.68 64.79 55.055 67.43 55.055 71.555C55.055 77.44 55 82.17 55 83.655C55 84.81 55.825 86.185 58.025 85.745C66.7597 82.796 74.3497 77.1822 79.7268 69.6937C85.1039 62.2052 87.9974 53.219 88 44C88 19.69 68.31 0 44 0Z"
              fill="#666666"/>
    </g>

    <g id="telegram">
        <path d="M16.5118 32.1064C25.618 32.1064 33 24.9383 33 16.0959C33 7.25353 25.618 0.0853729 16.5118 0.0853729C7.40568 0.0853729 0.0236816 7.25353 0.0236816 16.0959C0.0236816 24.9383 7.40568 32.1064 16.5118 32.1064Z M7.4873 15.9269C12.2939 13.8934 15.4991 12.5528 17.1028 11.9051C21.6818 10.0557 22.6332 9.73448 23.2534 9.72387C23.3898 9.72153 23.6947 9.75436 23.8923 9.91001C24.0591 10.0414 24.105 10.219 24.1269 10.3436C24.1489 10.4682 24.1763 10.7521 24.1545 10.9739C23.9064 13.5055 22.8327 19.6492 22.2865 22.4846C22.0554 23.6844 21.6003 24.0867 21.1597 24.1261C20.2022 24.2117 19.4751 23.5116 18.5477 22.9213C17.0965 21.9976 16.2767 21.4226 14.8681 20.5213C13.2402 19.4796 14.2955 18.907 15.2232 17.9714C15.466 17.7265 19.6848 14.0004 19.7664 13.6624C19.7767 13.6201 19.7861 13.4625 19.6897 13.3793C19.5933 13.2961 19.451 13.3245 19.3484 13.3472C19.2028 13.3792 16.8845 14.8671 12.3936 17.8109C11.7355 18.2496 11.1395 18.4634 10.6055 18.4522C10.0168 18.4399 8.88432 18.129 8.04246 17.8633C7.00989 17.5373 6.18922 17.365 6.26069 16.8115C6.29791 16.5232 6.70678 16.2283 7.4873 15.9269Z"
              fill="#666666"/>
    </g>

    <g id="instagram">
        <path fill-rule="evenodd" clip-rule="evenodd"
              d="M7.67021 15.7666C7.67021 11.295 11.295 7.67021 15.7666 7.67021C20.238 7.67021 23.8629 11.295 23.8629 15.7666C23.8629 20.238 20.238 23.8629 15.7666 23.8629C11.295 23.8629 7.67021 20.238 7.67021 15.7666ZM15.7666 21.022C12.864 21.022 10.511 18.6691 10.511 15.7666C10.511 12.864 12.864 10.511 15.7666 10.511C18.6691 10.511 21.022 12.864 21.022 15.7666C21.022 18.6691 18.6691 21.022 15.7666 21.022Z"
              fill="#666666"/>
        <path d="M24.1827 9.24229C25.2277 9.24229 26.0748 8.39526 26.0748 7.35034C26.0748 6.30541 25.2277 5.45832 24.1827 5.45832C23.1379 5.45832 22.2908 6.30541 22.2908 7.35034C22.2908 8.39526 23.1379 9.24229 24.1827 9.24229Z"
              fill="#666666"/>
        <path fill-rule="evenodd" clip-rule="evenodd"
              d="M15.7666 0C11.4846 0 10.9477 0.0181498 9.26601 0.0948794C7.58785 0.171421 6.44172 0.437972 5.43886 0.827754C4.40207 1.23062 3.52281 1.76973 2.64623 2.64623C1.76973 3.52281 1.23062 4.40207 0.827754 5.43886C0.437972 6.44172 0.171421 7.58785 0.0948794 9.26601C0.0181498 10.9477 0 11.4846 0 15.7666C0 20.0485 0.0181498 20.5854 0.0948794 22.2671C0.171421 23.9452 0.437972 25.0914 0.827754 26.0942C1.23062 27.131 1.76973 28.0103 2.64623 28.8868C3.52281 29.7633 4.40207 30.3025 5.43886 30.7054C6.44172 31.0951 7.58785 31.3617 9.26601 31.4382C10.9477 31.5149 11.4846 31.5331 15.7666 31.5331C20.0485 31.5331 20.5854 31.5149 22.2671 31.4382C23.9452 31.3617 25.0914 31.0951 26.0942 30.7054C27.131 30.3025 28.0103 29.7633 28.8868 28.8868C29.7633 28.0103 30.3025 27.131 30.7054 26.0942C31.0951 25.0914 31.3617 23.9452 31.4382 22.2671C31.5149 20.5854 31.5331 20.0485 31.5331 15.7666C31.5331 11.4846 31.5149 10.9477 31.4382 9.26601C31.3617 7.58785 31.0951 6.44172 30.7054 5.43886C30.3025 4.40207 29.7633 3.52281 28.8868 2.64623C28.0103 1.76973 27.131 1.23062 26.0942 0.827754C25.0914 0.437972 23.9452 0.171421 22.2671 0.0948794C20.5854 0.0181498 20.0485 0 15.7666 0ZM15.7666 2.84081C19.9764 2.84081 20.4751 2.8569 22.1376 2.93275C23.6748 3.00285 24.5096 3.2597 25.0652 3.47562C25.8011 3.76163 26.3264 4.10328 26.878 4.65504C27.4298 5.20673 27.7714 5.73194 28.0575 6.46789C28.2734 7.02346 28.5302 7.85828 28.6003 9.3955C28.6762 11.058 28.6923 11.5567 28.6923 15.7666C28.6923 19.9764 28.6762 20.4751 28.6003 22.1376C28.5302 23.6748 28.2734 24.5096 28.0575 25.0652C27.7714 25.8011 27.4298 26.3263 26.878 26.878C26.3264 27.4298 25.8011 27.7714 25.0652 28.0575C24.5096 28.2734 23.6748 28.5302 22.1376 28.6003C20.4753 28.6762 19.9767 28.6923 15.7666 28.6923C11.5564 28.6923 11.0578 28.6762 9.39551 28.6003C7.85828 28.5302 7.02346 28.2734 6.46789 28.0575C5.73195 27.7714 5.20673 27.4298 4.65504 26.878C4.10335 26.3263 3.76163 25.8011 3.47562 25.0652C3.2597 24.5096 3.00285 23.6748 2.93275 22.1376C2.8569 20.4751 2.84082 19.9764 2.84082 15.7666C2.84082 11.5567 2.8569 11.058 2.93275 9.3955C3.00285 7.85828 3.2597 7.02346 3.47562 6.46789C3.76163 5.73194 4.10329 5.20673 4.65504 4.65504C5.20673 4.10328 5.73195 3.76163 6.46789 3.47562C7.02346 3.2597 7.85828 3.00285 9.39551 2.93275C11.058 2.8569 11.5567 2.84081 15.7666 2.84081Z"
              fill="#666666"/>
    </g>

    <g id="whatsapp">
        <path d="M11.1896 8.569C11.4732 8.58058 11.787 8.59383 12.0851 9.25473C12.2888 9.70653 12.6316 10.5488 12.9048 11.2201C13.1061 11.7147 13.2696 12.1165 13.3118 12.2007C13.4113 12.3991 13.4776 12.6309 13.3449 12.8959C13.3251 12.9355 13.3067 12.9729 13.2892 13.0086C13.1895 13.2115 13.1162 13.3606 12.9474 13.5577C12.8812 13.6348 12.8128 13.7177 12.7444 13.8007C12.6071 13.9674 12.4697 14.134 12.3504 14.2527C12.1508 14.4506 11.9435 14.6656 12.1757 15.0625C12.4079 15.4598 13.2065 16.7589 14.3894 17.8108C15.6602 18.9409 16.7642 19.4189 17.3248 19.6616C17.4349 19.7093 17.524 19.7479 17.5894 19.7805C17.9874 19.979 18.2195 19.946 18.4516 19.6807C18.6838 19.4161 19.446 18.5223 19.7113 18.1254C19.9766 17.7281 20.2419 17.7943 20.6067 17.9266C20.9715 18.0589 22.9278 19.0191 23.3258 19.2176C23.4034 19.2563 23.4759 19.2912 23.5432 19.3236C23.8209 19.4573 24.0084 19.5475 24.0885 19.6807C24.188 19.8467 24.188 20.641 23.8564 21.5676C23.5248 22.4943 21.9001 23.3881 21.1705 23.4542C21.1003 23.4606 21.0305 23.4688 20.9587 23.4772C20.2844 23.5563 19.4334 23.6561 16.3954 22.4613C12.6573 20.991 10.1926 17.3475 9.68339 16.5948C9.64164 16.5331 9.61303 16.4908 9.59795 16.4707L9.59352 16.4648C9.37895 16.1788 7.97312 14.305 7.97312 12.3661C7.97312 10.5384 8.87389 9.5803 9.28834 9.13949C9.31666 9.10937 9.34271 9.08166 9.36605 9.05626C9.73058 8.6591 10.1618 8.55971 10.427 8.55971C10.4416 8.55971 10.4561 8.55971 10.4707 8.55971C10.7212 8.55968 10.9705 8.55965 11.1896 8.569Z"
              fill="#666666"/>
        <path fill-rule="evenodd" clip-rule="evenodd"
              d="M2.28113 23.8088C0.867471 21.4054 0.128514 18.6817 0.128514 15.8618C0.128514 7.11378 7.29317 0 16.0643 0C20.3374 0 24.3213 1.66629 27.3414 4.64639C30.3293 7.65853 32 11.632 32 15.8939C32 24.6419 24.8353 31.7557 16.0643 31.7557C13.3976 31.7557 10.7631 31.1148 8.4498 29.833L0 32.0441L2.28113 23.8088ZM4.8514 22.9115L5.17269 23.3922L3.82329 28.2629L8.83534 26.9491L9.31727 27.2375C11.3414 28.4551 13.6867 29.096 16.0643 29.096C23.3574 29.096 29.3012 23.1679 29.3012 15.8939C29.3012 12.369 27.9197 9.03643 25.4137 6.53699C22.9398 4.0696 19.5984 2.6917 16.0643 2.6917C8.77108 2.6917 2.82731 8.58781 2.82731 15.8939C2.82731 18.3613 3.53414 20.7966 4.8514 22.9115Z"
              fill="#666666"/>
    </g>

    <!--skills-->

    <g id="html">
        <path d="M22.1323 102.004L13.7061 7.5H106.294L97.856 101.989L59.9436 112.5L22.1323 102.004Z" fill="#E44F26"/>
        <path d="M60 104.468L90.6375 95.9738L97.845 15.2288H60V104.468Z" fill="#F1662A"/>
        <path d="M60 50.2762H44.6625L43.605 38.4075H60V26.8162H30.9375L31.215 29.9287L34.0613 61.8675H60V50.2762ZM60 80.3775L59.9475 80.3925L47.04 76.9087L46.215 67.665H34.5787L36.2025 85.86L59.9475 92.4525L60 92.4375V80.3775Z"
              fill="#EBEBEB"/>
        <path d="M59.959 50.2762V61.8675H74.2315L72.889 76.9012L59.959 80.3887V92.4487L83.7227 85.86L83.8952 83.9025L86.6177 53.3887L86.9027 50.2762H59.959ZM59.959 26.8162V38.4075H87.9565L88.189 35.805L88.7177 29.9287L88.9952 26.8162H59.959Z"
              fill="white"/>
    </g>

    <g id="css">
    <path d="M22.1325 101.154L13.71 7.4375H106.29L97.8562 101.139L59.9437 111.562L22.1325 101.154Z" fill="#1572B6"/>
    <path d="M60 103.597L90.6375 95.174L97.845 15.1019H60V103.597Z" fill="#33A9DC"/>
    <path d="M60 49.054H75.3375L76.395 37.2842H60V25.7896H89.0625L88.785 28.8724L85.9387 60.5487H60V49.054Z" fill="white"/>
    <path d="M60.0711 78.9045L60.0186 78.9193L47.1112 75.4609L46.2862 66.2942H34.6499L36.2737 84.3413L60.0149 90.8788L60.0711 90.864V78.9045Z" fill="#EBEBEB"/>
    <path d="M74.3513 60.0615L72.9563 75.4534L60.03 78.9119V90.8714L83.79 84.3412L83.9663 82.4001L85.98 60.0615H74.3513Z" fill="white"/>
    <path d="M60.0411 25.7896V37.2842H32.0436L31.8111 34.6997L31.2824 28.8724L31.0049 25.7896H60.0411ZM59.9999 49.054V60.5487H47.2536L47.0211 57.9642L46.4961 52.1369L46.2186 49.054H59.9999Z" fill="#EBEBEB"/>
    </g>

    <g id="js">
    <path d="M7.5 7.5H112.5V112.5H7.5V7.5Z" fill="#F5DE19"/>
    <path d="M78.0338 89.5312C78.9284 91.3485 80.3183 92.8759 82.0434 93.9375C83.7684 94.9991 85.7584 95.5515 87.7838 95.5313C91.8713 95.5313 94.485 93.4875 94.485 90.6562C94.485 87.2812 91.8 86.0738 87.3 84.105L84.8325 83.0475C77.7075 80.0138 72.9825 76.215 72.9825 68.1825C72.9825 60.7838 78.6075 55.1475 87.4313 55.1475C90.2877 54.9412 93.1416 55.5805 95.637 56.9856C98.1324 58.3907 100.159 60.4994 101.464 63.0488L93.75 67.98C93.2476 66.716 92.3728 65.6345 91.2416 64.879C90.1105 64.1236 88.7764 63.7298 87.4163 63.75C86.8229 63.6906 86.2236 63.7555 85.6567 63.9404C85.0897 64.1254 84.5675 64.4265 84.1234 64.8244C83.6792 65.2224 83.3228 65.7085 83.0769 66.2518C82.831 66.7951 82.7009 67.3837 82.695 67.98C82.695 70.9388 84.5288 72.1388 88.7625 73.98L91.23 75.0375C99.615 78.6338 104.355 82.2975 104.355 90.5363C104.355 99.42 97.3763 104.287 88.005 104.287C84.3537 104.52 80.713 103.691 77.5223 101.901C74.3317 100.11 71.7274 97.4342 70.0238 94.1963L78.0338 89.5312ZM43.1775 90.3863C44.7263 93.135 46.1363 95.46 49.5263 95.46C52.7663 95.46 54.8138 94.1925 54.8138 89.2612V55.71H64.68V89.3925C64.68 99.6075 58.68 104.257 49.9463 104.257C46.8591 104.426 43.7931 103.657 41.1513 102.051C38.5096 100.444 36.4157 98.0761 35.145 95.2575L43.1775 90.3863Z" fill="black"/>
    </g>

    <g id="vsCode">
    <path d="M101.535 17.605L81.3541 7.88899C80.2144 7.33948 78.932 7.15814 77.6847 7.37011C76.4373 7.58208 75.2868 8.17686 74.3926 9.07199L8.3301 69.3C7.52857 70.0273 7.04878 71.0432 6.99627 72.1243C6.94376 73.2053 7.32283 74.2629 8.0501 75.0645C8.1376 75.159 8.2251 75.25 8.3196 75.334L13.7131 80.234C14.4179 80.8754 15.325 81.2497 16.2771 81.2919C17.2291 81.3341 18.1658 81.0416 18.9246 80.465L98.4971 20.125C99.0981 19.6689 99.8145 19.3897 100.566 19.3186C101.317 19.2476 102.073 19.3877 102.749 19.7231C103.425 20.0585 103.993 20.5758 104.391 21.217C104.789 21.8581 105 22.5975 105 23.352V23.1175C105 21.9656 104.675 20.8372 104.062 19.862C103.449 18.8868 102.573 18.1045 101.535 17.605Z" fill="#0065A9"/>
    <path d="M101.535 94.395L81.3541 104.115C80.2141 104.662 78.9321 104.843 77.6851 104.631C76.4381 104.419 75.2876 103.825 74.3926 102.932L8.3301 42.7C7.52857 41.9727 7.04878 40.9568 6.99627 39.8758C6.94376 38.7947 7.32283 37.7371 8.0501 36.9355C8.1376 36.841 8.2251 36.75 8.3196 36.666L13.7131 31.766C14.4186 31.1219 15.3278 30.7459 16.2822 30.7037C17.2366 30.6615 18.1755 30.9557 18.9351 31.535L98.4971 91.875C99.0981 92.3311 99.8145 92.6104 100.566 92.6814C101.317 92.7524 102.073 92.6123 102.749 92.2769C103.425 91.9415 103.993 91.4242 104.391 90.783C104.789 90.1419 105 89.4025 105 88.648V88.9C104.996 90.0488 104.669 91.1733 104.057 92.1451C103.444 93.1168 102.57 93.8965 101.535 94.395Z" fill="#007ACC"/>
    <path d="M81.3539 104.114C80.2139 104.662 78.9319 104.843 77.6849 104.631C76.4379 104.419 75.2874 103.825 74.3924 102.931C74.895 103.428 75.5329 103.764 76.226 103.899C76.9192 104.034 77.6368 103.962 78.2889 103.691C78.941 103.42 79.4987 102.963 79.892 102.376C80.2853 101.79 80.4968 101.1 80.4999 100.394V11.606C80.5005 10.8965 80.2905 10.2028 79.8965 9.61274C79.5025 9.02271 78.9423 8.56288 78.2867 8.29152C77.6312 8.02016 76.9098 7.94946 76.2141 8.0884C75.5183 8.22734 74.8795 8.56965 74.3784 9.07197C75.2728 8.17717 76.423 7.58235 77.6702 7.3698C78.9173 7.15724 80.1997 7.33744 81.3399 7.88547L101.517 17.5875C102.559 18.0845 103.438 18.8657 104.054 19.8411C104.67 20.8165 104.998 21.9463 105 23.1V88.9C105 90.0528 104.675 91.1822 104.061 92.1581C103.447 93.134 102.571 93.9167 101.531 94.416L81.3539 104.114Z" fill="#1F9CF0"/>
    </g>

    <g id="react">
        <g clip-path="url(#clip0_2_5687)">
            <path d="M92.9055 32.7027C91.703 32.2887 90.4903 31.9051 89.2686 31.5523C89.4738 30.7106 89.6627 29.8792 89.8304 29.0623C92.5837 15.6483 90.7838 4.84178 84.6359 1.28375C78.7415 -2.12722 69.1015 1.42949 59.3658 9.93342C58.4063 10.773 57.4681 11.6368 56.552 12.524C55.9388 11.934 55.3148 11.3556 54.6802 10.7888C44.4766 1.69616 34.2492 -2.13608 28.108 1.43215C22.2188 4.85374 20.4749 15.0127 22.9537 27.7254C23.2003 28.9844 23.4787 30.237 23.7887 31.4819C22.341 31.8947 20.9441 32.3342 19.6072 32.8019C7.64431 36.9881 0.00463867 43.5483 0.00463867 50.3529C0.00463867 57.3808 8.20617 64.43 20.666 68.7043C21.6762 69.0495 22.6947 69.3692 23.7208 69.6634C23.3875 71.0042 23.0917 72.354 22.8336 73.7114C20.4705 86.2035 22.3159 96.1223 28.1892 99.5222C34.2554 103.033 44.4369 99.4247 54.3505 90.7268C55.1544 90.0196 55.9406 89.2925 56.7083 88.546C57.7003 89.5066 58.7188 90.4393 59.7626 91.343C69.3659 99.6365 78.85 102.985 84.7176 99.5762C90.7781 96.055 92.7479 85.3995 90.1906 72.4356C89.9891 71.42 89.7632 70.4094 89.5131 69.4047C90.2281 69.1921 90.9299 68.9732 91.614 68.7455C104.567 64.4384 112.995 57.4747 112.995 50.3529C112.995 43.5234 105.109 36.919 92.9055 32.7027ZM90.0961 64.1474C89.4782 64.3525 88.8444 64.5505 88.1982 64.7432C86.7682 60.1995 84.8385 55.3684 82.4768 50.3764C84.7304 45.5036 86.5859 40.734 87.9758 36.22C89.1317 36.5558 90.2533 36.9097 91.3346 37.2832C101.791 40.8961 108.168 46.2372 108.168 50.3529C108.168 54.7367 101.28 60.4277 90.0961 64.1474ZM85.4556 73.3765C86.5864 79.1087 86.7475 84.2916 85.9985 88.3435C85.3258 91.9844 83.9726 94.4115 82.2989 95.3839C78.7384 97.4526 71.1234 94.7637 62.9109 87.6706C61.94 86.8305 60.9926 85.9634 60.0698 85.0703C63.2538 81.5756 66.4356 77.5131 69.5411 73.0008C75.0035 72.5144 80.164 71.7188 84.8438 70.6331C85.0693 71.5426 85.2732 72.4573 85.4556 73.3765ZM38.5256 95.0264C35.0467 96.2592 32.2758 96.2946 30.6008 95.3254C27.0368 93.2624 25.5551 85.298 27.5761 74.6151C27.8164 73.3527 28.0914 72.0972 28.401 70.8502C33.0292 71.8779 38.1522 72.6168 43.6274 73.0624C46.7541 77.4776 50.0277 81.5358 53.327 85.0894C52.6258 85.7703 51.9081 86.4338 51.1744 87.0793C46.7903 90.9252 42.3973 93.654 38.5256 95.0264ZM22.2276 64.1204C16.718 62.2302 12.1679 59.7738 9.04919 57.0933C6.24649 54.6848 4.8319 52.2932 4.8319 50.3529C4.8319 46.2234 10.9656 40.9564 21.1961 37.3766C22.4377 36.9425 23.7371 36.5327 25.0855 36.1482C26.4996 40.7641 28.3543 45.5904 30.5924 50.4707C28.3251 55.4233 26.444 60.3267 25.0162 64.997C24.0796 64.7278 23.1498 64.4355 22.2276 64.1204ZM27.6909 26.7947C25.5674 15.9031 26.9776 7.68706 30.5267 5.62497C34.3066 3.42867 42.6652 6.56011 51.4754 14.4115C52.0499 14.9247 52.6151 15.4482 53.1707 15.9819C49.8878 19.52 46.6442 23.548 43.5453 27.9371C38.2312 28.4315 33.1444 29.2253 28.4677 30.2889C28.1795 29.131 27.9205 27.9661 27.6909 26.7951V26.7947ZM76.43 38.8739C75.3254 36.9589 74.1797 35.0679 72.9939 33.2024C76.599 33.66 80.0532 34.2673 83.2968 35.0098C82.3232 38.1425 81.1094 41.4175 79.6807 44.7753C78.6364 42.7867 77.5526 40.8191 76.43 38.8739ZM56.5542 19.4443C58.7805 21.8652 61.0103 24.5678 63.2035 27.5003C58.7545 27.2894 54.298 27.2886 49.849 27.4977C52.0443 24.5922 54.2931 21.8931 56.5542 19.4443ZM36.5509 38.9071C35.4424 40.8367 34.3788 42.792 33.3612 44.7713C31.9558 41.4255 30.7531 38.1355 29.7711 34.9584C32.9948 34.2346 36.4326 33.6427 40.0148 33.1935C38.8158 35.0704 37.6608 36.9754 36.5509 38.9067V38.9071ZM40.1176 67.8569C36.4168 67.4423 32.9273 66.881 29.7044 66.1767C30.7019 62.9429 31.9311 59.5829 33.3669 56.1653C34.3886 58.1461 35.4566 60.1026 36.5699 62.033C37.7148 64.0176 38.9003 65.9614 40.1176 67.8569ZM56.6875 81.6027C54.3995 79.1255 52.1176 76.3848 49.8891 73.4372C52.0527 73.5222 54.2582 73.5656 56.5 73.5656C58.803 73.5656 61.0796 73.5138 63.3204 73.4137C61.1202 76.4145 58.8988 79.1592 56.6875 81.6027ZM79.7262 55.9907C81.2365 59.446 82.5094 62.7883 83.5202 65.9667C80.2443 66.7171 76.7072 67.3214 72.9803 67.7701C74.1745 65.8699 75.331 63.9461 76.449 61.9998C77.5857 60.0214 78.6783 58.0179 79.7262 55.9907ZM72.2679 59.5794C70.5563 62.5634 68.7486 65.4909 66.8474 68.357C63.4037 68.6018 59.9523 68.7234 56.5 68.7216C52.9836 68.7216 49.5634 68.6118 46.2699 68.3974C44.3191 65.5378 42.4769 62.6053 40.747 59.6059H40.7475C39.0258 56.6225 37.4176 53.5745 35.9264 50.4685C37.4138 47.3618 39.0171 44.3124 40.7329 41.3267L40.7325 41.3271C42.4476 38.3407 44.2752 35.4206 46.2112 32.5734C49.5713 32.3182 53.0171 32.1853 56.4995 32.1853H56.5C59.9983 32.1853 63.4484 32.3195 66.8077 32.5765C68.7242 35.4195 70.5401 38.3295 72.252 41.301C73.9735 44.2801 75.598 47.3147 77.123 50.3999C75.6137 53.5166 73.9943 56.5783 72.2679 59.5794ZM82.2252 5.48056C86.0086 7.67067 87.4801 16.5024 85.1029 28.0842C84.9511 28.8231 84.7807 29.5757 84.5953 30.339C79.9071 29.2528 74.8168 28.4452 69.4873 27.9433C66.3827 23.506 63.1655 19.4717 59.936 15.9792C60.7824 15.1604 61.6489 14.3628 62.5348 13.5871C70.8767 6.30141 78.673 3.42468 82.2252 5.48056ZM56.5 40.2263C62.0723 40.2263 66.5897 44.7603 66.5897 50.3529C66.5897 55.9456 62.0723 60.4795 56.5 60.4795C50.9277 60.4795 46.4102 55.9456 46.4102 50.3529C46.4102 44.7603 50.9277 40.2263 56.5 40.2263Z" fill="#00D8FF"/>
        </g>
        <defs>
            <clipPath id="clip0_2_5687">
                <rect width="113" height="101" fill="white"/>
            </clipPath>
        </defs>
    </g>

    <g id="redux">
    <path d="M72.6971 69.5627C76.5688 69.1619 79.5061 65.8242 79.3725 61.8184C79.2393 57.8131 75.9012 54.6086 71.8959 54.6086H71.6291C67.4897 54.7422 64.2856 58.2135 64.4193 62.3525C64.5529 64.3553 65.3537 66.091 66.5553 67.2926C62.016 76.2385 55.0734 82.7807 44.6594 88.2549C37.5832 91.9934 30.2402 93.3287 22.8971 92.3943C16.8889 91.593 12.216 88.923 9.27827 84.5164C5.00614 77.9742 4.60573 70.8975 8.21065 63.8213C10.7475 58.7475 14.7525 55.009 17.2893 53.1398C16.7553 51.4041 15.9541 48.4668 15.5537 46.3307C-3.80574 60.35 -1.80287 79.3094 4.07172 88.2549C8.47745 94.9311 17.4229 99.0701 27.3029 99.0701C29.9729 99.0701 32.643 98.8029 35.3135 98.1357C52.4033 94.7975 65.3541 84.65 72.6971 69.5627ZM96.1955 53.0066C86.0483 41.1234 71.0951 34.5811 54.0053 34.5811H51.8693C50.6676 32.1779 48.1307 30.5754 45.327 30.5754H45.0598C40.9213 30.709 37.7172 34.1803 37.8504 38.3197C37.984 42.325 41.3217 45.5295 45.327 45.5295H45.5938C48.5311 45.3959 51.068 43.5266 52.1361 40.9898H54.5393C64.6865 40.9898 74.2992 43.927 82.9779 49.6684C89.6533 54.0746 94.4598 59.816 97.1299 66.7586C99.3996 72.3664 99.266 77.8406 96.8627 82.5139C93.1246 89.5902 86.8496 93.4623 78.5717 93.4623C73.2311 93.4623 68.1578 91.8598 65.4873 90.6582C64.0188 91.9934 61.3484 94.1295 59.4791 95.4652C65.2205 98.1352 71.0951 99.6041 76.7025 99.6041C89.5197 99.6041 98.9992 92.5275 102.604 85.4512C106.476 77.707 106.209 64.3553 96.1955 53.0066ZM28.3709 71.832C28.5045 75.8377 31.8422 79.0418 35.8475 79.0418H36.1147C40.2537 78.9086 43.4578 75.4369 43.3242 71.2979C43.191 67.2922 39.8529 64.0881 35.8475 64.0881H35.5807C35.3135 64.0881 34.9127 64.0881 34.6463 64.2213C29.1721 55.1422 26.9025 45.2623 27.7037 34.5807C28.2373 26.5697 30.9078 19.6266 35.5807 13.8852C39.4525 8.94508 46.9291 6.5418 52.0029 6.40861C66.1549 6.14139 72.1627 23.7656 72.5635 30.8422C74.2992 31.2426 77.2365 32.1775 79.2393 32.8451C77.6369 11.2156 64.2856 0 51.4688 0C39.4524 0 28.3709 8.67869 23.9647 21.4963C17.8234 38.5865 21.8287 55.009 29.3053 67.9602C28.6381 68.8947 28.2373 70.3635 28.3709 71.8324V71.832Z" fill="#764ABC"/>
    </g>

    <g id="git">
        <g clip-path="url(#clip0_2_5685)">
            <path d="M103.02 47.8219L57.1758 1.98038C54.5372 -0.6598 50.2552 -0.6598 47.6134 1.98038L38.0937 11.5001L50.1699 23.5763C52.9762 22.6281 56.1943 23.2642 58.4313 25.5012C60.6789 27.7525 61.3106 30.9981 60.3393 33.8134L71.9775 45.452C74.7932 44.482 78.0421 45.1095 80.291 47.3621C83.434 50.5039 83.434 55.596 80.291 58.7399C77.1471 61.8841 72.055 61.8841 68.9095 58.7399C66.5454 56.3733 65.9613 52.9013 67.1582 49.9888L56.3046 39.1352L56.3034 67.6973C57.0902 68.0863 57.8088 68.6002 58.4313 69.2189C61.5743 72.3607 61.5743 77.4532 58.4313 80.5995C55.2874 83.7422 50.1929 83.7422 47.0535 80.5995C43.9105 77.4532 43.9105 72.3611 47.0535 69.2193C47.8067 68.4658 48.7019 67.869 49.6871 67.4635V38.6352C48.7004 38.2324 47.8048 37.6353 47.0535 36.8793C44.6722 34.5013 44.0996 31.0071 45.3198 28.0831L33.4154 16.1775L1.98105 47.6099C-0.660352 50.2525 -0.660352 54.5349 1.98105 57.1755L47.8259 103.018C50.4652 105.658 54.7464 105.658 57.3891 103.018L103.019 57.3884C105.66 54.747 105.66 50.4621 103.019 47.8219" fill="#DE4C36"/>
        </g>
        <defs>
            <clipPath id="clip0_2_5685">
                <rect width="105" height="105" fill="white"/>
            </clipPath>
        </defs>
    </g>
</svg>
