<svg width="88" height="88" viewBox="0 0 88 88" fill="none" stroke="#2D2D2D" xmlns="http://www.w3.org/2000/svg">
    <!--logo-->

    <g id="logo">
        <g transform="matrix(1.0051573067280581 0 0 1 235.73030380187794 42.04826682789198)" style="">
            <path fill="#2D2D2D" opacity="0.85"
                  d="M-136.98-3.71L-141.92-17.09C-142.12-17.56-142.35-17.79-142.84-17.79L-144.98-17.79C-145.48-17.79-145.72-17.56-145.90-17.09L-150.86-3.71C-150.97-3.44-150.97-3.08-150.48-3.08L-148.14-3.08C-147.64-3.08-147.47-3.22-147.29-3.75L-146.66-5.52L-141.18-5.52L-140.56-3.75C-140.38-3.22-140.20-3.08-139.71-3.08L-137.36-3.08C-136.87-3.08-136.87-3.44-136.98-3.71ZM-145.59-8.65L-143.91-13.59L-142.24-8.65Z"/>
            <path fill="#2D2D2D" opacity="0.85"
                  d="M-120.11-6.21L-126.55-6.21L-126.55-17.14C-126.55-17.65-126.79-17.79-127.19-17.79L-129.41-17.79C-129.81-17.79-130.05-17.65-130.05-17.14L-130.05-3.73C-130.05-3.33-129.92-3.08-129.41-3.08L-120.11-3.08C-119.59-3.08-119.46-3.33-119.46-3.73L-119.46-5.56C-119.46-5.96-119.59-6.21-120.11-6.21Z"/>
            <path fill="#2D2D2D" opacity="0.85"
                  d="M-101.45-6.21L-108.58-6.21L-108.58-9.16L-102.59-9.16C-102.07-9.16-101.94-9.41-101.94-9.81L-101.94-11.55C-101.94-11.95-102.07-12.20-102.59-12.20L-108.58-12.20L-108.58-14.64L-101.83-14.64C-101.31-14.64-101.18-14.88-101.18-15.28L-101.18-17.14C-101.18-17.54-101.31-17.79-101.83-17.79L-111.46-17.79C-111.97-17.79-112.11-17.54-112.11-17.14L-112.11-3.73C-112.11-3.33-111.97-3.08-111.46-3.08L-101.45-3.08C-100.93-3.08-100.80-3.33-100.80-3.73L-100.80-5.56C-100.80-5.96-100.93-6.21-101.45-6.21Z"/>
            <path fill="#2D2D2D" opacity="0.85"
                  d="M-86.18-10.61L-82.16-17.16C-82.00-17.41-82.11-17.79-82.49-17.79L-85.11-17.79C-85.56-17.79-85.71-17.61-86.03-17.14L-88.24-13.54L-90.47-17.14C-90.76-17.61-90.94-17.79-91.37-17.79L-94.00-17.79C-94.38-17.79-94.47-17.41-94.34-17.16L-90.29-10.61L-94.27-3.77C-94.45-3.51-94.34-3.08-94.00-3.08L-91.46-3.08C-90.96-3.08-90.76-3.13-90.47-3.71L-88.24-7.69L-86.03-3.71C-85.71-3.13-85.53-3.08-85.04-3.08L-82.49-3.08C-82.16-3.08-82.05-3.51-82.23-3.77Z"/>
            <path fill="#2D2D2D" opacity="0.85"
                  d="M-62.47-3.71L-67.41-17.09C-67.61-17.56-67.83-17.79-68.32-17.79L-70.47-17.79C-70.96-17.79-71.21-17.56-71.39-17.09L-76.35-3.71C-76.46-3.44-76.46-3.08-75.97-3.08L-73.62-3.08C-73.13-3.08-72.95-3.22-72.77-3.75L-72.15-5.52L-66.67-5.52L-66.04-3.75C-65.87-3.22-65.69-3.08-65.19-3.08L-62.85-3.08C-62.36-3.08-62.36-3.44-62.47-3.71ZM-71.07-8.65L-69.40-13.59L-67.72-8.65Z"/>
            <path fill="#2D2D2D" opacity="0.85"
                  d="M-44.25-17.79L-46.40-17.79C-46.80-17.79-47.05-17.65-47.05-17.14L-47.05-9.38L-51.78-17.03C-52.08-17.47-52.23-17.79-52.79-17.79L-54.89-17.79C-55.41-17.79-55.54-17.54-55.54-17.14L-55.54-3.73C-55.54-3.22-55.29-3.08-54.89-3.08L-52.68-3.08C-52.28-3.08-52.03-3.22-52.03-3.73L-52.03-11.51L-47.29-3.84C-47.00-3.39-46.85-3.08-46.29-3.08L-44.25-3.08C-43.74-3.08-43.60-3.33-43.60-3.73L-43.60-17.14C-43.60-17.65-43.85-17.79-44.25-17.79Z"/>
            <path fill="#2D2D2D" opacity="0.85"
                  d="M-29.70-17.79L-34.71-17.79C-35.22-17.79-35.36-17.54-35.36-17.14L-35.36-3.73C-35.36-3.33-35.22-3.08-34.71-3.08L-29.70-3.08C-27.04-3.08-23.69-4.60-23.69-8.11L-23.69-12.76C-23.69-16.25-27.04-17.79-29.70-17.79ZM-27.20-8.42C-27.20-6.99-28.23-6.19-29.70-6.19L-31.85-6.19L-31.85-14.68L-29.70-14.68C-28.23-14.68-27.20-13.85-27.20-12.45Z"/>
            <path fill="#2D2D2D" opacity="0.85"
                  d="M-3.84-3.80L-7.00-8.38C-5.61-8.85-3.89-10.48-3.89-12.83C-3.89-14.26-4.36-15.53-5.19-16.33C-6.12-17.27-7.20-17.77-9.63-17.77L-15.27-17.77C-15.78-17.77-15.89-17.52-15.89-17.12L-15.89-3.73C-15.89-3.22-15.67-3.08-15.27-3.08L-13.05-3.08C-12.65-3.08-12.40-3.22-12.40-3.73L-12.40-14.64L-9.43-14.64C-8.27-14.64-7.38-13.90-7.38-12.74C-7.38-11.69-8.40-10.93-9.50-10.93L-9.95-10.93C-10.46-10.93-10.59-10.68-10.59-10.28L-10.59-8.49C-10.59-7.86-10.55-7.62-10.35-7.35L-7.93-3.75C-7.62-3.28-7.35-3.08-6.82-3.08L-4.18-3.08C-3.75-3.08-3.64-3.48-3.84-3.80Z"/>
            <path fill="#2D2D2D" opacity="0.85" d=""/>
            <path fill="#2D2D2D" opacity="0.85" d=""/>
            <path fill="#2D2D2D" opacity="0.85" d=""/>
            <path fill="#2D2D2D" opacity="0.85" d=""/>
            <path fill="#2D2D2D" opacity="0.85" d=""/>
            <path fill="#2D2D2D" opacity="0.85" d=""/>
            <path fill="#2D2D2D" opacity="0.85" d=""/>
            <path fill="#2D2D2D" opacity="0.85" d=""/>
            <path fill="#2D2D2D" opacity="0.85" d=""/>
            <path fill="#2D2D2D" opacity="0.85" d=""/>
            <path fill="#2D2D2D" opacity="0.85" d=""/>
            <path fill="#2D2D2D" opacity="0.85" d=""/>
            <path fill="#2D2D2D" opacity="0.85" d=""/>
            <path fill="#2D2D2D" opacity="0.85" d=""/>
            <path fill="#2D2D2D" opacity="0.85" d=""/>
            <path fill="#2D2D2D" opacity="0.85"
                  d="M-53.24 2.42L-56.25 2.42C-56.77 2.42-56.93 2.46-57.37 2.95L-62.00 8.05L-62.00 3.07C-62.00 2.55-62.24 2.42-62.62 2.42L-64.84 2.42C-65.26 2.42-65.49 2.55-65.49 3.07L-65.49 16.48C-65.49 16.99-65.26 17.12-64.84 17.12L-62.62 17.12C-62.24 17.12-62.00 16.99-62.00 16.48L-62.00 12.50L-60.61 11.04C-59.41 13.06-57.42 16.41-57.42 16.41C-57.13 16.88-56.84 17.12-56.30 17.12L-53.57 17.12C-53.15 17.12-53.06 16.70-53.24 16.41L-58.04 8.50L-53.01 3.04C-52.81 2.84-52.81 2.42-53.24 2.42Z"/>
            <path fill="#2D2D2D" opacity="0.85"
                  d="M-34.37 7.13C-34.37 3.60-37.73 2.08-40.39 2.08C-43.05 2.08-46.35 3.60-46.35 7.13L-46.35 12.41C-46.35 15.94-43.05 17.46-40.39 17.46C-37.73 17.46-34.37 15.94-34.37 12.41ZM-37.88 12.09C-37.88 13.52-38.91 14.35-40.39 14.35C-41.84 14.35-42.87 13.52-42.87 12.09L-42.87 7.45C-42.87 6.02-41.84 5.19-40.39 5.19C-38.91 5.19-37.88 6.02-37.88 7.45Z"/>
            <path fill="#2D2D2D" opacity="0.85"
                  d="M-14.84 2.42L-17.21 2.42C-17.81 2.42-17.97 2.60-18.15 3.13L-21.17 12.39L-24.21 3.13C-24.38 2.60-24.54 2.42-25.12 2.42L-27.60 2.42C-28.03 2.42-28.12 2.77-28.00 3.07L-23.20 16.45C-22.93 17.03-22.77 17.12-22.28 17.12L-20.14 17.12C-19.65 17.12-19.49 17.03-19.22 16.45L-14.44 3.07C-14.33 2.77-14.42 2.42-14.84 2.42Z"/>
            <path fill="#2D2D2D" opacity="0.85"
                  d="M4.29 16.50L-0.65 3.11C-0.85 2.64-1.07 2.42-1.56 2.42L-3.71 2.42C-4.20 2.42-4.45 2.64-4.63 3.11L-9.59 16.50C-9.70 16.77-9.70 17.12-9.21 17.12L-6.86 17.12C-6.37 17.12-6.19 16.99-6.01 16.45L-5.39 14.69L0.09 14.69L0.72 16.45C0.89 16.99 1.07 17.12 1.56 17.12L3.91 17.12C4.40 17.12 4.40 16.77 4.29 16.50ZM-4.31 11.56L-2.64 6.62L-0.96 11.56Z"/>
            <path fill="#2D2D2D" opacity="0.85"
                  d="M21.17 13.99L14.73 13.99L14.73 3.07C14.73 2.55 14.48 2.42 14.08 2.42L11.87 2.42C11.47 2.42 11.22 2.55 11.22 3.07L11.22 16.48C11.22 16.88 11.35 17.12 11.87 17.12L21.17 17.12C21.68 17.12 21.81 16.88 21.81 16.48L21.81 14.64C21.81 14.24 21.68 13.99 21.17 13.99Z"/>
            <path fill="#2D2D2D" opacity="0.85"
                  d="M38.98 2.42L36.56 2.42C36.05 2.42 35.83 2.48 35.54 3.09L33.01 7.89L30.40 3.09C30.08 2.48 29.86 2.42 29.35 2.42L26.78 2.42C26.35 2.42 26.31 2.80 26.42 3.04L31.20 11.60L31.20 16.48C31.20 16.99 31.42 17.12 31.85 17.12L34.08 17.12C34.49 17.12 34.73 16.99 34.73 16.48L34.73 11.60L39.34 3.04C39.45 2.80 39.40 2.42 38.98 2.42Z"/>
            <path fill="#2D2D2D" opacity="0.85"
                  d="M57.77 7.13C57.77 3.60 54.42 2.08 51.76 2.08C49.10 2.08 45.80 3.60 45.80 7.13L45.80 12.41C45.80 15.94 49.10 17.46 51.76 17.46C54.42 17.46 57.77 15.94 57.77 12.41ZM54.27 12.09C54.27 13.52 53.24 14.35 51.76 14.35C50.31 14.35 49.28 13.52 49.28 12.09L49.28 7.45C49.28 6.02 50.31 5.19 51.76 5.19C53.24 5.19 54.27 6.02 54.27 7.45Z"/>
            <path fill="#2D2D2D" opacity="0.85"
                  d="M77.31 2.42L74.94 2.42C74.34 2.42 74.18 2.60 74.00 3.13L70.98 12.39L67.94 3.13C67.77 2.60 67.61 2.42 67.03 2.42L64.55 2.42C64.12 2.42 64.03 2.77 64.14 3.07L68.95 16.45C69.22 17.03 69.37 17.12 69.87 17.12L72.01 17.12C72.50 17.12 72.66 17.03 72.93 16.45L77.71 3.07C77.82 2.77 77.73 2.42 77.31 2.42Z"/>
        </g>
        <g transform="matrix(0.152337349181408 0 0 0.15155572979645301 37.70009725029736 41.79826682789197)">
            <g style="">
                <g transform="matrix(1 0 0 1 -123.16499999999999 -117.9)">
                    <path style="stroke: none; stroke-width: 1; stroke-dasharray: none; stroke-linecap: butt; stroke-dashoffset: 0; stroke-linejoin: miter; stroke-miterlimit: 4; fill: rgb(230,57,70); fill-rule: nonzero; opacity: 1;"
                          transform=" translate(-132.335, -137.6)"
                          d="M 156.27 137.6 c 0 4.47 -1.23 8.66 -3.37 12.24 c -4.17 7 -11.82 11.69 -20.57 11.69 c -12.34 0 -22.5 -9.35 -23.79 -21.35 c -0.09 -0.84 -0.14 -1.71 -0.14 -2.58 c 0 -4.83 1.43 -9.32 3.9 -13.08 c 4.27 -6.54 11.65 -10.85 20.03 -10.85 c 12 0 21.95 8.83 23.67 20.35 C 156.18 135.19 156.27 136.38 156.27 137.6 z"
                          stroke-linecap="round"/>
                </g>
                <g transform="matrix(1 0 0 1 45.13550000000001 163.34000000000006)">
                    <path style="stroke: none; stroke-width: 1; stroke-dasharray: none; stroke-linecap: butt; stroke-dashoffset: 0; stroke-linejoin: miter; stroke-miterlimit: 4; fill: rgb(230,57,70); fill-rule: nonzero; opacity: 1;"
                          transform=" translate(-300.6355, -418.84000000000003)"
                          d="M 324.57 418.84 c 0 13.21 -10.721 23.93 -23.94 23.93 c -0.399 0 -0.8 -0.01 -1.189 -0.029 c -5.671 -0.28 -10.82 -2.53 -14.78 -6.09 c -4.891 -4.37 -7.96 -10.74 -7.96 -17.811 c 0 -12.04 8.89 -22 20.46 -23.67 c 1.13 -0.17 2.29 -0.26 3.47 -0.26 c 4.47 0 8.64 1.22 12.22 3.359 C 319.87 402.43 324.57 410.09 324.57 418.84 z"
                          stroke-linecap="round"/>
                </g>
                <g transform="matrix(1 0 0 1 169.55 -52.709999999999994)">
                    <path style="stroke: none; stroke-width: 1; stroke-dasharray: none; stroke-linecap: butt; stroke-dashoffset: 0; stroke-linejoin: miter; stroke-miterlimit: 4; fill: rgb(230,57,70); fill-rule: nonzero; opacity: 1;"
                          transform=" translate(-425.05, -202.79000000000002)"
                          d="M 448.98 202.79 c 0 13.22 -10.711 23.93 -23.931 23.93 c -2.88 0 -5.63 -0.51 -8.189 -1.44 c -5.21 -1.9 -9.58 -5.56 -12.38 -10.26 c -2.131 -3.58 -3.36 -7.76 -3.36 -12.23 c 0 -13.22 10.72 -23.93 23.93 -23.93 c 3.15 0 6.16 0.61 8.91 1.72 c 5.16 2.06 9.43 5.87 12.07 10.7 C 447.91 194.7 448.98 198.62 448.98 202.79 z"
                          stroke-linecap="round"/>
                </g>
                <g transform="matrix(1 0 0 1 0.49999999999992895 0.5)">
                    <path style="stroke: none; stroke-width: 1; stroke-dasharray: none; stroke-linecap: butt; stroke-dashoffset: 0; stroke-linejoin: miter; stroke-miterlimit: 4; fill: rgb(230,57,70); fill-rule: nonzero; opacity: 1;"
                          transform=" translate(-255.99999999999994, -256)"
                          d="M 326.7 235.24 c -0.16 -6.6 -0.41 -13.15 -0.74 -19.62 c -0.91 -18.19 -2.45 -35.82 -4.57 -52.55 c -0.699 -5.56 -1.47 -11.01 -2.3 -16.36 c -2.88 -18.57 -6.52 -35.83 -10.859 -51.27 C 295.09 48.7 277.03 24 256 24 c -21.03 0 -39.09 24.7 -52.23 71.44 c -4.34 15.44 -7.98 32.7 -10.86 51.27 c -0.83 5.35 -1.6 10.8 -2.3 16.36 c -2.12 16.73 -3.66 34.36 -4.57 52.55 c -0.33 6.47 -0.58 13.01 -0.74 19.61 c -0.18 6.87 -0.27 13.79 -0.27 20.77 c 0 6.97 0.09 13.9 0.27 20.76 c 0.16 6.601 0.41 13.15 0.74 19.62 c 0.91 18.19 2.45 35.82 4.57 52.55 c 0.7 5.561 1.47 11.011 2.3 16.36 c 2.88 18.57 6.52 35.83 10.86 51.27 C 216.91 463.29 234.97 488 256 488 c 13.55 0 25.87 -10.26 36.44 -30.07 c -5.381 -1.13 -10.36 -3.34 -14.71 -6.399 C 269.72 466.14 261.91 472 256 472 c -9.68 0 -24.44 -15.7 -36.83 -59.77 c -4.46 -15.87 -8.16 -33.761 -11.02 -53.101 c -0.81 -5.39 -1.54 -10.899 -2.21 -16.51 c -1.37 -11.54 -2.47 -23.5 -3.27 -35.78 c -0.43 -6.399 -0.77 -12.89 -1.02 -19.46 c -0.41 -10.3 -0.62 -20.78 -0.62 -31.38 c 0 -10.6 0.21 -21.09 0.62 -31.39 c 0.25 -6.56 0.59 -13.05 1.02 -19.45 c 0.8 -12.28 1.9 -24.24 3.27 -35.78 c 0.67 -5.61 1.4 -11.12 2.21 -16.51 c 2.86 -19.34 6.56 -37.23 11.02 -53.1 C 231.56 55.7 246.32 40 256 40 c 9.68 0 24.44 15.7 36.83 59.77 c 4.46 15.87 8.16 33.76 11.02 53.1 c 0.811 5.39 1.54 10.9 2.21 16.51 c 1.37 11.54 2.471 23.5 3.27 35.78 c 0.43 6.4 0.77 12.89 1.02 19.46 c 0.41 10.3 0.62 20.78 0.62 31.38 c 0 10.6 -0.21 21.08 -0.62 31.38 c -0.25 6.57 -0.59 13.06 -1.02 19.46 c -0.8 12.28 -1.9 24.24 -3.27 35.78 c -0.67 5.61 -1.399 11.12 -2.21 16.51 c -1 6.78 -2.109 13.38 -3.31 19.78 h 0.09 c 5.53 0 10.8 1.13 15.59 3.16 c 1.03 -5.46 1.99 -11.061 2.87 -16.78 c 0.83 -5.35 1.601 -10.8 2.3 -16.36 c 2.12 -16.729 3.66 -34.359 4.57 -52.55 c 0.33 -6.47 0.58 -13.02 0.74 -19.62 c 0.18 -6.859 0.27 -13.79 0.27 -20.76 C 326.97 249.03 326.88 242.1 326.7 235.24 z"
                          stroke-linecap="round"/>
                </g>
                <g transform="matrix(1 0 0 1 0.49998077205680147 0.5)">
                    <path style="stroke: none; stroke-width: 1; stroke-dasharray: none; stroke-linecap: butt; stroke-dashoffset: 0; stroke-linejoin: miter; stroke-miterlimit: 4; fill: rgb(230,57,70); fill-rule: nonzero; opacity: 1;"
                          transform=" translate(-255.9999807720568, -256)"
                          d="M 456.92 140 c -6.36 -11.02 -19.88 -16.6 -40.17 -16.6 c -24.96 0 -59.17 8.37 -97.66 23.31 c -5.01 1.94 -10.09 4 -15.24 6.16 c -15.489 6.51 -31.54 14 -47.85 22.34 c -5.78 2.96 -11.58 6.03 -17.41 9.2 c -6.01 3.27 -12.04 6.65 -18.08 10.13 c -6.04 3.49 -11.99 7.02 -17.84 10.62 c -5.64 3.44 -11.19 6.93 -16.63 10.46 c -15.32 9.89 -29.83 20.04 -43.28 30.26 c -4.44 3.37 -8.76 6.74 -12.95 10.12 c -14.65 11.78 -27.76 23.56 -38.97 35.05 C 56.93 325.79 44.57 353.79 55.08 372 c 6.36 11.01 19.88 16.6 40.17 16.6 c 24.96 0 59.17 -8.369 97.66 -23.31 c 5.01 -1.94 10.09 -4 15.24 -6.16 c 15.49 -6.51 31.54 -14 47.85 -22.34 c 5.78 -2.96 11.58 -6.03 17.41 -9.2 c 6.01 -3.27 12.04 -6.649 18.08 -10.13 c 6.04 -3.49 11.99 -7.02 17.84 -10.62 c 5.64 -3.439 11.189 -6.93 16.63 -10.46 c 15.32 -9.89 29.83 -20.04 43.28 -30.26 c 4.439 -3.37 8.76 -6.74 12.95 -10.12 c 7.89 -6.35 15.34 -12.7 22.279 -19 c -4.63 -2.8 -8.66 -6.51 -11.81 -10.89 c -7.271 6.56 -15.101 13.16 -23.42 19.77 c -4.25 3.38 -8.641 6.75 -13.141 10.12 c -9.319 6.97 -19.149 13.92 -29.399 20.76 c -5.34 3.57 -10.79 7.12 -16.351 10.62 c -8.72 5.51 -17.689 10.93 -26.859 16.23 c -9.17 5.29 -18.351 10.34 -27.49 15.13 c -5.83 3.06 -11.64 6.01 -17.41 8.85 c -11.06 5.44 -21.98 10.46 -32.65 15.03 c -5.17 2.21 -10.29 4.32 -15.33 6.31 c -38.02 15.051 -71.8 23.67 -95.36 23.67 c -13.77 0 -23.11 -3.06 -26.31 -8.6 c -4.84 -8.38 1.38 -29.01 33.35 -61.78 c 11.52 -11.8 25.16 -23.95 40.47 -36.1 c 4.25 -3.38 8.64 -6.75 13.14 -10.12 c 9.32 -6.98 19.15 -13.92 29.4 -20.77 c 5.34 -3.57 10.79 -7.12 16.35 -10.62 c 8.72 -5.51 17.69 -10.92 26.86 -16.22 c 9.17 -5.29 18.35 -10.34 27.49 -15.13 c 5.83 -3.06 11.64 -6.01 17.41 -8.85 c 11.06 -5.44 21.979 -10.46 32.649 -15.03 c 5.171 -2.21 10.29 -4.32 15.33 -6.31 c 38.021 -15.05 71.801 -23.67 95.36 -23.67 c 13.77 0 23.11 3.05 26.31 8.6 c 2.16 3.73 2.12 9.89 -1.409 18.47 c 5.04 2.32 9.52 5.65 13.159 9.74 C 461.66 161.75 462.42 149.53 456.92 140 z"
                          stroke-linecap="round"/>
                </g>
                <g transform="matrix(1 0 0 1 0.49999999999994316 0.5)">
                    <path style="stroke: none; stroke-width: 1; stroke-dasharray: none; stroke-linecap: butt; stroke-dashoffset: 0; stroke-linejoin: miter; stroke-miterlimit: 4; fill: rgb(230,57,70); fill-rule: nonzero; opacity: 1;"
                          transform=" translate(-255.99999999999994, -256)"
                          d="M 421.16 291.05 c -11.21 -11.49 -24.32 -23.27 -38.97 -35.05 c -4.19 -3.38 -8.511 -6.75 -12.95 -10.12 c -13.45 -10.22 -27.96 -20.37 -43.28 -30.26 c -5.44 -3.53 -10.99 -7.02 -16.63 -10.46 c -5.85 -3.6 -11.8 -7.13 -17.84 -10.62 c -6.04 -3.48 -12.07 -6.86 -18.08 -10.13 c -5.83 -3.17 -11.63 -6.24 -17.41 -9.2 c -16.31 -8.34 -32.36 -15.83 -47.85 -22.34 c -5.15 -2.16 -10.23 -4.22 -15.24 -6.16 c -7.04 -2.74 -13.94 -5.25 -20.67 -7.53 c -0.22 5.58 -1.59 10.88 -3.88 15.65 c 7.22 2.47 14.65 5.22 22.25 8.24 c 5.04 1.99 10.16 4.1 15.33 6.31 c 10.67 4.57 21.59 9.59 32.65 15.03 c 5.77 2.84 11.58 5.79 17.41 8.85 c 9.14 4.79 18.32 9.84 27.49 15.13 c 9.17 5.3 18.14 10.72 26.859 16.23 c 5.561 3.5 11.011 7.05 16.351 10.62 c 10.25 6.84 20.08 13.79 29.399 20.76 c 4.5 3.37 8.891 6.74 13.141 10.12 c 15.31 12.149 28.95 24.3 40.47 36.1 c 31.97 32.771 38.19 53.4 33.35 61.78 c -3.199 5.54 -12.54 8.6 -26.31 8.6 c -23.56 0 -57.34 -8.619 -95.36 -23.67 c -5.04 -1.989 -10.159 -4.1 -15.33 -6.31 c -10.67 -4.57 -21.59 -9.59 -32.649 -15.03 c -5.771 -2.84 -11.58 -5.79 -17.41 -8.85 c -9.14 -4.79 -18.32 -9.84 -27.49 -15.13 c -9.17 -5.301 -18.14 -10.721 -26.86 -16.23 c -5.56 -3.5 -11.01 -7.05 -16.35 -10.62 c -10.25 -6.84 -20.08 -13.79 -29.4 -20.76 c -4.5 -3.37 -8.89 -6.74 -13.14 -10.12 c -15.31 -12.15 -28.95 -24.3 -40.47 -36.1 C 70.32 177.01 64.1 156.38 68.94 148 c 2.98 -5.16 11.27 -8.16 23.5 -8.55 c -0.03 -0.61 -0.04 -1.23 -0.04 -1.85 c 0 -5 0.92 -9.78 2.61 -14.2 c -20.16 0.04 -33.6 5.63 -39.93 16.6 c -10.51 18.21 1.85 46.2 35.76 80.95 c 11.21 11.49 24.32 23.27 38.97 35.05 c 4.19 3.38 8.51 6.75 12.95 10.12 c 13.45 10.22 27.96 20.37 43.28 30.26 c 5.44 3.53 10.99 7.02 16.63 10.46 c 5.85 3.601 11.8 7.13 17.84 10.62 c 6.04 3.48 12.07 6.86 18.08 10.13 c 5.83 3.17 11.63 6.24 17.41 9.2 c 16.31 8.34 32.36 15.83 47.85 22.34 c 5.15 2.16 10.23 4.22 15.24 6.16 c 38.49 14.94 72.7 23.31 97.66 23.31 c 20.29 0 33.81 -5.59 40.17 -16.6 C 467.43 353.79 455.07 325.79 421.16 291.05 z"
                          stroke-linecap="round"/>
                </g>
                <g transform="matrix(1 0 0 1 1.065814e-14 1.065814e-14)">
                    <circle style="stroke: none; stroke-width: 1; stroke-dasharray: none; stroke-linecap: butt; stroke-dashoffset: 0; stroke-linejoin: miter; stroke-miterlimit: 4; fill: rgb(230,57,70); fill-rule: nonzero; opacity: 1;"
                            cx="0" cy="0" r="27.432"/>
                </g>
            </g>
        </g>
    </g>

    <!--icons-->
    <g id='github'>
        <path fill-rule="evenodd" clip-rule="evenodd"
              d="M44 0C19.69 0 0 19.69 0 44C0 63.47 12.595 79.915 30.085 85.745C32.285 86.13 33.11 84.81 33.11 83.655C33.11 82.61 33.055 79.145 33.055 75.46C22 77.495 19.14 72.765 18.26 70.29C17.765 69.025 15.62 65.12 13.75 64.075C12.21 63.25 10.01 61.215 13.695 61.16C17.16 61.105 19.635 64.35 20.46 65.67C24.42 72.325 30.745 70.455 33.275 69.3C33.66 66.44 34.815 64.515 36.08 63.415C26.29 62.315 16.06 58.52 16.06 41.69C16.06 36.905 17.765 32.945 20.57 29.865C20.13 28.765 18.59 24.255 21.01 18.205C21.01 18.205 24.695 17.05 33.11 22.715C36.63 21.725 40.37 21.23 44.11 21.23C47.85 21.23 51.59 21.725 55.11 22.715C63.525 16.995 67.21 18.205 67.21 18.205C69.63 24.255 68.09 28.765 67.65 29.865C70.455 32.945 72.16 36.85 72.16 41.69C72.16 58.575 61.875 62.315 52.085 63.415C53.68 64.79 55.055 67.43 55.055 71.555C55.055 77.44 55 82.17 55 83.655C55 84.81 55.825 86.185 58.025 85.745C66.7597 82.796 74.3497 77.1822 79.7268 69.6937C85.1039 62.2052 87.9974 53.219 88 44C88 19.69 68.31 0 44 0Z"
              fill="inherit"/>
    </g>

    <g id="telegram">
        <path d="M16.5118 32.1064C25.618 32.1064 33 24.9383 33 16.0959C33 7.25353 25.618 0.0853729 16.5118 0.0853729C7.40568 0.0853729 0.0236816 7.25353 0.0236816 16.0959C0.0236816 24.9383 7.40568 32.1064 16.5118 32.1064Z M7.4873 15.9269C12.2939 13.8934 15.4991 12.5528 17.1028 11.9051C21.6818 10.0557 22.6332 9.73448 23.2534 9.72387C23.3898 9.72153 23.6947 9.75436 23.8923 9.91001C24.0591 10.0414 24.105 10.219 24.1269 10.3436C24.1489 10.4682 24.1763 10.7521 24.1545 10.9739C23.9064 13.5055 22.8327 19.6492 22.2865 22.4846C22.0554 23.6844 21.6003 24.0867 21.1597 24.1261C20.2022 24.2117 19.4751 23.5116 18.5477 22.9213C17.0965 21.9976 16.2767 21.4226 14.8681 20.5213C13.2402 19.4796 14.2955 18.907 15.2232 17.9714C15.466 17.7265 19.6848 14.0004 19.7664 13.6624C19.7767 13.6201 19.7861 13.4625 19.6897 13.3793C19.5933 13.2961 19.451 13.3245 19.3484 13.3472C19.2028 13.3792 16.8845 14.8671 12.3936 17.8109C11.7355 18.2496 11.1395 18.4634 10.6055 18.4522C10.0168 18.4399 8.88432 18.129 8.04246 17.8633C7.00989 17.5373 6.18922 17.365 6.26069 16.8115C6.29791 16.5232 6.70678 16.2283 7.4873 15.9269Z"
              fill="inherit"/>
    </g>

    <g id="instagram">
        <path fill-rule="evenodd" clip-rule="evenodd"
              d="M7.67021 15.7666C7.67021 11.295 11.295 7.67021 15.7666 7.67021C20.238 7.67021 23.8629 11.295 23.8629 15.7666C23.8629 20.238 20.238 23.8629 15.7666 23.8629C11.295 23.8629 7.67021 20.238 7.67021 15.7666ZM15.7666 21.022C12.864 21.022 10.511 18.6691 10.511 15.7666C10.511 12.864 12.864 10.511 15.7666 10.511C18.6691 10.511 21.022 12.864 21.022 15.7666C21.022 18.6691 18.6691 21.022 15.7666 21.022Z"
              fill="inherit"/>
        <path d="M24.1827 9.24229C25.2277 9.24229 26.0748 8.39526 26.0748 7.35034C26.0748 6.30541 25.2277 5.45832 24.1827 5.45832C23.1379 5.45832 22.2908 6.30541 22.2908 7.35034C22.2908 8.39526 23.1379 9.24229 24.1827 9.24229Z"
              fill="inherit"/>
        <path fill-rule="evenodd" clip-rule="evenodd"
              d="M15.7666 0C11.4846 0 10.9477 0.0181498 9.26601 0.0948794C7.58785 0.171421 6.44172 0.437972 5.43886 0.827754C4.40207 1.23062 3.52281 1.76973 2.64623 2.64623C1.76973 3.52281 1.23062 4.40207 0.827754 5.43886C0.437972 6.44172 0.171421 7.58785 0.0948794 9.26601C0.0181498 10.9477 0 11.4846 0 15.7666C0 20.0485 0.0181498 20.5854 0.0948794 22.2671C0.171421 23.9452 0.437972 25.0914 0.827754 26.0942C1.23062 27.131 1.76973 28.0103 2.64623 28.8868C3.52281 29.7633 4.40207 30.3025 5.43886 30.7054C6.44172 31.0951 7.58785 31.3617 9.26601 31.4382C10.9477 31.5149 11.4846 31.5331 15.7666 31.5331C20.0485 31.5331 20.5854 31.5149 22.2671 31.4382C23.9452 31.3617 25.0914 31.0951 26.0942 30.7054C27.131 30.3025 28.0103 29.7633 28.8868 28.8868C29.7633 28.0103 30.3025 27.131 30.7054 26.0942C31.0951 25.0914 31.3617 23.9452 31.4382 22.2671C31.5149 20.5854 31.5331 20.0485 31.5331 15.7666C31.5331 11.4846 31.5149 10.9477 31.4382 9.26601C31.3617 7.58785 31.0951 6.44172 30.7054 5.43886C30.3025 4.40207 29.7633 3.52281 28.8868 2.64623C28.0103 1.76973 27.131 1.23062 26.0942 0.827754C25.0914 0.437972 23.9452 0.171421 22.2671 0.0948794C20.5854 0.0181498 20.0485 0 15.7666 0ZM15.7666 2.84081C19.9764 2.84081 20.4751 2.8569 22.1376 2.93275C23.6748 3.00285 24.5096 3.2597 25.0652 3.47562C25.8011 3.76163 26.3264 4.10328 26.878 4.65504C27.4298 5.20673 27.7714 5.73194 28.0575 6.46789C28.2734 7.02346 28.5302 7.85828 28.6003 9.3955C28.6762 11.058 28.6923 11.5567 28.6923 15.7666C28.6923 19.9764 28.6762 20.4751 28.6003 22.1376C28.5302 23.6748 28.2734 24.5096 28.0575 25.0652C27.7714 25.8011 27.4298 26.3263 26.878 26.878C26.3264 27.4298 25.8011 27.7714 25.0652 28.0575C24.5096 28.2734 23.6748 28.5302 22.1376 28.6003C20.4753 28.6762 19.9767 28.6923 15.7666 28.6923C11.5564 28.6923 11.0578 28.6762 9.39551 28.6003C7.85828 28.5302 7.02346 28.2734 6.46789 28.0575C5.73195 27.7714 5.20673 27.4298 4.65504 26.878C4.10335 26.3263 3.76163 25.8011 3.47562 25.0652C3.2597 24.5096 3.00285 23.6748 2.93275 22.1376C2.8569 20.4751 2.84082 19.9764 2.84082 15.7666C2.84082 11.5567 2.8569 11.058 2.93275 9.3955C3.00285 7.85828 3.2597 7.02346 3.47562 6.46789C3.76163 5.73194 4.10329 5.20673 4.65504 4.65504C5.20673 4.10328 5.73195 3.76163 6.46789 3.47562C7.02346 3.2597 7.85828 3.00285 9.39551 2.93275C11.058 2.8569 11.5567 2.84081 15.7666 2.84081Z"
              fill="inherit"/>
    </g>

    <g id="whatsapp">
        <path d="M11.1896 8.569C11.4732 8.58058 11.787 8.59383 12.0851 9.25473C12.2888 9.70653 12.6316 10.5488 12.9048 11.2201C13.1061 11.7147 13.2696 12.1165 13.3118 12.2007C13.4113 12.3991 13.4776 12.6309 13.3449 12.8959C13.3251 12.9355 13.3067 12.9729 13.2892 13.0086C13.1895 13.2115 13.1162 13.3606 12.9474 13.5577C12.8812 13.6348 12.8128 13.7177 12.7444 13.8007C12.6071 13.9674 12.4697 14.134 12.3504 14.2527C12.1508 14.4506 11.9435 14.6656 12.1757 15.0625C12.4079 15.4598 13.2065 16.7589 14.3894 17.8108C15.6602 18.9409 16.7642 19.4189 17.3248 19.6616C17.4349 19.7093 17.524 19.7479 17.5894 19.7805C17.9874 19.979 18.2195 19.946 18.4516 19.6807C18.6838 19.4161 19.446 18.5223 19.7113 18.1254C19.9766 17.7281 20.2419 17.7943 20.6067 17.9266C20.9715 18.0589 22.9278 19.0191 23.3258 19.2176C23.4034 19.2563 23.4759 19.2912 23.5432 19.3236C23.8209 19.4573 24.0084 19.5475 24.0885 19.6807C24.188 19.8467 24.188 20.641 23.8564 21.5676C23.5248 22.4943 21.9001 23.3881 21.1705 23.4542C21.1003 23.4606 21.0305 23.4688 20.9587 23.4772C20.2844 23.5563 19.4334 23.6561 16.3954 22.4613C12.6573 20.991 10.1926 17.3475 9.68339 16.5948C9.64164 16.5331 9.61303 16.4908 9.59795 16.4707L9.59352 16.4648C9.37895 16.1788 7.97312 14.305 7.97312 12.3661C7.97312 10.5384 8.87389 9.5803 9.28834 9.13949C9.31666 9.10937 9.34271 9.08166 9.36605 9.05626C9.73058 8.6591 10.1618 8.55971 10.427 8.55971C10.4416 8.55971 10.4561 8.55971 10.4707 8.55971C10.7212 8.55968 10.9705 8.55965 11.1896 8.569Z"
              fill="inherit"/>
        <path fill-rule="evenodd" clip-rule="evenodd"
              d="M2.28113 23.8088C0.867471 21.4054 0.128514 18.6817 0.128514 15.8618C0.128514 7.11378 7.29317 0 16.0643 0C20.3374 0 24.3213 1.66629 27.3414 4.64639C30.3293 7.65853 32 11.632 32 15.8939C32 24.6419 24.8353 31.7557 16.0643 31.7557C13.3976 31.7557 10.7631 31.1148 8.4498 29.833L0 32.0441L2.28113 23.8088ZM4.8514 22.9115L5.17269 23.3922L3.82329 28.2629L8.83534 26.9491L9.31727 27.2375C11.3414 28.4551 13.6867 29.096 16.0643 29.096C23.3574 29.096 29.3012 23.1679 29.3012 15.8939C29.3012 12.369 27.9197 9.03643 25.4137 6.53699C22.9398 4.0696 19.5984 2.6917 16.0643 2.6917C8.77108 2.6917 2.82731 8.58781 2.82731 15.8939C2.82731 18.3613 3.53414 20.7966 4.8514 22.9115Z"
              fill="inherit"/>
    </g>

    <g id="iconPreview" fill="none">
        <path d="M11.2867 8.71333C10.6041 8.03103 9.67846 7.64774 8.71334 7.64774C7.74821 7.64774 6.82259 8.03103 6.14 8.71333L3.56584 11.2867C2.88324 11.9693 2.49976 12.8951 2.49976 13.8604C2.49976 14.8258 2.88324 15.7516 3.56584 16.4342C4.24844 17.1168 5.17424 17.5002 6.13959 17.5002C7.10493 17.5002 8.03074 17.1168 8.71334 16.4342L10 15.1475"
              stroke="#2D2D2D" stroke-width="1.66667" stroke-linecap="round" stroke-linejoin="round"/>
        <path d="M8.71338 11.2867C9.39597 11.969 10.3216 12.3523 11.2867 12.3523C12.2518 12.3523 13.1775 11.969 13.86 11.2867L16.4342 8.71334C17.1168 8.03074 17.5003 7.10493 17.5003 6.13959C17.5003 5.17424 17.1168 4.24844 16.4342 3.56584C15.7516 2.88324 14.8258 2.49976 13.8605 2.49976C12.8951 2.49976 11.9693 2.88324 11.2867 3.56584L10 4.8525"
              stroke="#2D2D2D" stroke-width="1.66667" stroke-linecap="round" stroke-linejoin="round"/>
    </g>

    <!--skills-->

    <g id="html">
        <path d="M22.1323 102.004L13.7061 7.5H106.294L97.856 101.989L59.9436 112.5L22.1323 102.004Z" fill="#E44F26"/>
        <path d="M60 104.468L90.6375 95.9738L97.845 15.2288H60V104.468Z" fill="#F1662A"/>
        <path d="M60 50.2762H44.6625L43.605 38.4075H60V26.8162H30.9375L31.215 29.9287L34.0613 61.8675H60V50.2762ZM60 80.3775L59.9475 80.3925L47.04 76.9087L46.215 67.665H34.5787L36.2025 85.86L59.9475 92.4525L60 92.4375V80.3775Z"
              fill="#EBEBEB"/>
        <path d="M59.959 50.2762V61.8675H74.2315L72.889 76.9012L59.959 80.3887V92.4487L83.7227 85.86L83.8952 83.9025L86.6177 53.3887L86.9027 50.2762H59.959ZM59.959 26.8162V38.4075H87.9565L88.189 35.805L88.7177 29.9287L88.9952 26.8162H59.959Z"
              fill="white"/>
    </g>

    <g id="css">
        <path d="M22.1325 101.154L13.71 7.4375H106.29L97.8562 101.139L59.9437 111.562L22.1325 101.154Z" fill="#1572B6"/>
        <path d="M60 103.597L90.6375 95.174L97.845 15.1019H60V103.597Z" fill="#33A9DC"/>
        <path d="M60 49.054H75.3375L76.395 37.2842H60V25.7896H89.0625L88.785 28.8724L85.9387 60.5487H60V49.054Z"
              fill="white"/>
        <path d="M60.0711 78.9045L60.0186 78.9193L47.1112 75.4609L46.2862 66.2942H34.6499L36.2737 84.3413L60.0149 90.8788L60.0711 90.864V78.9045Z"
              fill="#EBEBEB"/>
        <path d="M74.3513 60.0615L72.9563 75.4534L60.03 78.9119V90.8714L83.79 84.3412L83.9663 82.4001L85.98 60.0615H74.3513Z"
              fill="white"/>
        <path d="M60.0411 25.7896V37.2842H32.0436L31.8111 34.6997L31.2824 28.8724L31.0049 25.7896H60.0411ZM59.9999 49.054V60.5487H47.2536L47.0211 57.9642L46.4961 52.1369L46.2186 49.054H59.9999Z"
              fill="#EBEBEB"/>
    </g>

    <g id="js">
        <path d="M7.5 7.5H112.5V112.5H7.5V7.5Z" fill="#F5DE19"/>
        <path d="M78.0338 89.5312C78.9284 91.3485 80.3183 92.8759 82.0434 93.9375C83.7684 94.9991 85.7584 95.5515 87.7838 95.5313C91.8713 95.5313 94.485 93.4875 94.485 90.6562C94.485 87.2812 91.8 86.0738 87.3 84.105L84.8325 83.0475C77.7075 80.0138 72.9825 76.215 72.9825 68.1825C72.9825 60.7838 78.6075 55.1475 87.4313 55.1475C90.2877 54.9412 93.1416 55.5805 95.637 56.9856C98.1324 58.3907 100.159 60.4994 101.464 63.0488L93.75 67.98C93.2476 66.716 92.3728 65.6345 91.2416 64.879C90.1105 64.1236 88.7764 63.7298 87.4163 63.75C86.8229 63.6906 86.2236 63.7555 85.6567 63.9404C85.0897 64.1254 84.5675 64.4265 84.1234 64.8244C83.6792 65.2224 83.3228 65.7085 83.0769 66.2518C82.831 66.7951 82.7009 67.3837 82.695 67.98C82.695 70.9388 84.5288 72.1388 88.7625 73.98L91.23 75.0375C99.615 78.6338 104.355 82.2975 104.355 90.5363C104.355 99.42 97.3763 104.287 88.005 104.287C84.3537 104.52 80.713 103.691 77.5223 101.901C74.3317 100.11 71.7274 97.4342 70.0238 94.1963L78.0338 89.5312ZM43.1775 90.3863C44.7263 93.135 46.1363 95.46 49.5263 95.46C52.7663 95.46 54.8138 94.1925 54.8138 89.2612V55.71H64.68V89.3925C64.68 99.6075 58.68 104.257 49.9463 104.257C46.8591 104.426 43.7931 103.657 41.1513 102.051C38.5096 100.444 36.4157 98.0761 35.145 95.2575L43.1775 90.3863Z"
              fill="black"/>
    </g>

    <g id="vsCode">
        <path d="M101.535 17.605L81.3541 7.88899C80.2144 7.33948 78.932 7.15814 77.6847 7.37011C76.4373 7.58208 75.2868 8.17686 74.3926 9.07199L8.3301 69.3C7.52857 70.0273 7.04878 71.0432 6.99627 72.1243C6.94376 73.2053 7.32283 74.2629 8.0501 75.0645C8.1376 75.159 8.2251 75.25 8.3196 75.334L13.7131 80.234C14.4179 80.8754 15.325 81.2497 16.2771 81.2919C17.2291 81.3341 18.1658 81.0416 18.9246 80.465L98.4971 20.125C99.0981 19.6689 99.8145 19.3897 100.566 19.3186C101.317 19.2476 102.073 19.3877 102.749 19.7231C103.425 20.0585 103.993 20.5758 104.391 21.217C104.789 21.8581 105 22.5975 105 23.352V23.1175C105 21.9656 104.675 20.8372 104.062 19.862C103.449 18.8868 102.573 18.1045 101.535 17.605Z"
              fill="#0065A9"/>
        <path d="M101.535 94.395L81.3541 104.115C80.2141 104.662 78.9321 104.843 77.6851 104.631C76.4381 104.419 75.2876 103.825 74.3926 102.932L8.3301 42.7C7.52857 41.9727 7.04878 40.9568 6.99627 39.8758C6.94376 38.7947 7.32283 37.7371 8.0501 36.9355C8.1376 36.841 8.2251 36.75 8.3196 36.666L13.7131 31.766C14.4186 31.1219 15.3278 30.7459 16.2822 30.7037C17.2366 30.6615 18.1755 30.9557 18.9351 31.535L98.4971 91.875C99.0981 92.3311 99.8145 92.6104 100.566 92.6814C101.317 92.7524 102.073 92.6123 102.749 92.2769C103.425 91.9415 103.993 91.4242 104.391 90.783C104.789 90.1419 105 89.4025 105 88.648V88.9C104.996 90.0488 104.669 91.1733 104.057 92.1451C103.444 93.1168 102.57 93.8965 101.535 94.395Z"
              fill="#007ACC"/>
        <path d="M81.3539 104.114C80.2139 104.662 78.9319 104.843 77.6849 104.631C76.4379 104.419 75.2874 103.825 74.3924 102.931C74.895 103.428 75.5329 103.764 76.226 103.899C76.9192 104.034 77.6368 103.962 78.2889 103.691C78.941 103.42 79.4987 102.963 79.892 102.376C80.2853 101.79 80.4968 101.1 80.4999 100.394V11.606C80.5005 10.8965 80.2905 10.2028 79.8965 9.61274C79.5025 9.02271 78.9423 8.56288 78.2867 8.29152C77.6312 8.02016 76.9098 7.94946 76.2141 8.0884C75.5183 8.22734 74.8795 8.56965 74.3784 9.07197C75.2728 8.17717 76.423 7.58235 77.6702 7.3698C78.9173 7.15724 80.1997 7.33744 81.3399 7.88547L101.517 17.5875C102.559 18.0845 103.438 18.8657 104.054 19.8411C104.67 20.8165 104.998 21.9463 105 23.1V88.9C105 90.0528 104.675 91.1822 104.061 92.1581C103.447 93.134 102.571 93.9167 101.531 94.416L81.3539 104.114Z"
              fill="#1F9CF0"/>
    </g>

    <g id="react">
        <g clip-path="url(#clip0_2_5687)">
            <path d="M92.9055 32.7027C91.703 32.2887 90.4903 31.9051 89.2686 31.5523C89.4738 30.7106 89.6627 29.8792 89.8304 29.0623C92.5837 15.6483 90.7838 4.84178 84.6359 1.28375C78.7415 -2.12722 69.1015 1.42949 59.3658 9.93342C58.4063 10.773 57.4681 11.6368 56.552 12.524C55.9388 11.934 55.3148 11.3556 54.6802 10.7888C44.4766 1.69616 34.2492 -2.13608 28.108 1.43215C22.2188 4.85374 20.4749 15.0127 22.9537 27.7254C23.2003 28.9844 23.4787 30.237 23.7887 31.4819C22.341 31.8947 20.9441 32.3342 19.6072 32.8019C7.64431 36.9881 0.00463867 43.5483 0.00463867 50.3529C0.00463867 57.3808 8.20617 64.43 20.666 68.7043C21.6762 69.0495 22.6947 69.3692 23.7208 69.6634C23.3875 71.0042 23.0917 72.354 22.8336 73.7114C20.4705 86.2035 22.3159 96.1223 28.1892 99.5222C34.2554 103.033 44.4369 99.4247 54.3505 90.7268C55.1544 90.0196 55.9406 89.2925 56.7083 88.546C57.7003 89.5066 58.7188 90.4393 59.7626 91.343C69.3659 99.6365 78.85 102.985 84.7176 99.5762C90.7781 96.055 92.7479 85.3995 90.1906 72.4356C89.9891 71.42 89.7632 70.4094 89.5131 69.4047C90.2281 69.1921 90.9299 68.9732 91.614 68.7455C104.567 64.4384 112.995 57.4747 112.995 50.3529C112.995 43.5234 105.109 36.919 92.9055 32.7027ZM90.0961 64.1474C89.4782 64.3525 88.8444 64.5505 88.1982 64.7432C86.7682 60.1995 84.8385 55.3684 82.4768 50.3764C84.7304 45.5036 86.5859 40.734 87.9758 36.22C89.1317 36.5558 90.2533 36.9097 91.3346 37.2832C101.791 40.8961 108.168 46.2372 108.168 50.3529C108.168 54.7367 101.28 60.4277 90.0961 64.1474ZM85.4556 73.3765C86.5864 79.1087 86.7475 84.2916 85.9985 88.3435C85.3258 91.9844 83.9726 94.4115 82.2989 95.3839C78.7384 97.4526 71.1234 94.7637 62.9109 87.6706C61.94 86.8305 60.9926 85.9634 60.0698 85.0703C63.2538 81.5756 66.4356 77.5131 69.5411 73.0008C75.0035 72.5144 80.164 71.7188 84.8438 70.6331C85.0693 71.5426 85.2732 72.4573 85.4556 73.3765ZM38.5256 95.0264C35.0467 96.2592 32.2758 96.2946 30.6008 95.3254C27.0368 93.2624 25.5551 85.298 27.5761 74.6151C27.8164 73.3527 28.0914 72.0972 28.401 70.8502C33.0292 71.8779 38.1522 72.6168 43.6274 73.0624C46.7541 77.4776 50.0277 81.5358 53.327 85.0894C52.6258 85.7703 51.9081 86.4338 51.1744 87.0793C46.7903 90.9252 42.3973 93.654 38.5256 95.0264ZM22.2276 64.1204C16.718 62.2302 12.1679 59.7738 9.04919 57.0933C6.24649 54.6848 4.8319 52.2932 4.8319 50.3529C4.8319 46.2234 10.9656 40.9564 21.1961 37.3766C22.4377 36.9425 23.7371 36.5327 25.0855 36.1482C26.4996 40.7641 28.3543 45.5904 30.5924 50.4707C28.3251 55.4233 26.444 60.3267 25.0162 64.997C24.0796 64.7278 23.1498 64.4355 22.2276 64.1204ZM27.6909 26.7947C25.5674 15.9031 26.9776 7.68706 30.5267 5.62497C34.3066 3.42867 42.6652 6.56011 51.4754 14.4115C52.0499 14.9247 52.6151 15.4482 53.1707 15.9819C49.8878 19.52 46.6442 23.548 43.5453 27.9371C38.2312 28.4315 33.1444 29.2253 28.4677 30.2889C28.1795 29.131 27.9205 27.9661 27.6909 26.7951V26.7947ZM76.43 38.8739C75.3254 36.9589 74.1797 35.0679 72.9939 33.2024C76.599 33.66 80.0532 34.2673 83.2968 35.0098C82.3232 38.1425 81.1094 41.4175 79.6807 44.7753C78.6364 42.7867 77.5526 40.8191 76.43 38.8739ZM56.5542 19.4443C58.7805 21.8652 61.0103 24.5678 63.2035 27.5003C58.7545 27.2894 54.298 27.2886 49.849 27.4977C52.0443 24.5922 54.2931 21.8931 56.5542 19.4443ZM36.5509 38.9071C35.4424 40.8367 34.3788 42.792 33.3612 44.7713C31.9558 41.4255 30.7531 38.1355 29.7711 34.9584C32.9948 34.2346 36.4326 33.6427 40.0148 33.1935C38.8158 35.0704 37.6608 36.9754 36.5509 38.9067V38.9071ZM40.1176 67.8569C36.4168 67.4423 32.9273 66.881 29.7044 66.1767C30.7019 62.9429 31.9311 59.5829 33.3669 56.1653C34.3886 58.1461 35.4566 60.1026 36.5699 62.033C37.7148 64.0176 38.9003 65.9614 40.1176 67.8569ZM56.6875 81.6027C54.3995 79.1255 52.1176 76.3848 49.8891 73.4372C52.0527 73.5222 54.2582 73.5656 56.5 73.5656C58.803 73.5656 61.0796 73.5138 63.3204 73.4137C61.1202 76.4145 58.8988 79.1592 56.6875 81.6027ZM79.7262 55.9907C81.2365 59.446 82.5094 62.7883 83.5202 65.9667C80.2443 66.7171 76.7072 67.3214 72.9803 67.7701C74.1745 65.8699 75.331 63.9461 76.449 61.9998C77.5857 60.0214 78.6783 58.0179 79.7262 55.9907ZM72.2679 59.5794C70.5563 62.5634 68.7486 65.4909 66.8474 68.357C63.4037 68.6018 59.9523 68.7234 56.5 68.7216C52.9836 68.7216 49.5634 68.6118 46.2699 68.3974C44.3191 65.5378 42.4769 62.6053 40.747 59.6059H40.7475C39.0258 56.6225 37.4176 53.5745 35.9264 50.4685C37.4138 47.3618 39.0171 44.3124 40.7329 41.3267L40.7325 41.3271C42.4476 38.3407 44.2752 35.4206 46.2112 32.5734C49.5713 32.3182 53.0171 32.1853 56.4995 32.1853H56.5C59.9983 32.1853 63.4484 32.3195 66.8077 32.5765C68.7242 35.4195 70.5401 38.3295 72.252 41.301C73.9735 44.2801 75.598 47.3147 77.123 50.3999C75.6137 53.5166 73.9943 56.5783 72.2679 59.5794ZM82.2252 5.48056C86.0086 7.67067 87.4801 16.5024 85.1029 28.0842C84.9511 28.8231 84.7807 29.5757 84.5953 30.339C79.9071 29.2528 74.8168 28.4452 69.4873 27.9433C66.3827 23.506 63.1655 19.4717 59.936 15.9792C60.7824 15.1604 61.6489 14.3628 62.5348 13.5871C70.8767 6.30141 78.673 3.42468 82.2252 5.48056ZM56.5 40.2263C62.0723 40.2263 66.5897 44.7603 66.5897 50.3529C66.5897 55.9456 62.0723 60.4795 56.5 60.4795C50.9277 60.4795 46.4102 55.9456 46.4102 50.3529C46.4102 44.7603 50.9277 40.2263 56.5 40.2263Z"
                  fill="#00D8FF"/>
        </g>
        <defs>
            <clipPath id="clip0_2_5687">
                <rect width="113" height="101" fill="white"/>
            </clipPath>
        </defs>
    </g>

    <g id="redux">
        <path d="M72.6971 69.5627C76.5688 69.1619 79.5061 65.8242 79.3725 61.8184C79.2393 57.8131 75.9012 54.6086 71.8959 54.6086H71.6291C67.4897 54.7422 64.2856 58.2135 64.4193 62.3525C64.5529 64.3553 65.3537 66.091 66.5553 67.2926C62.016 76.2385 55.0734 82.7807 44.6594 88.2549C37.5832 91.9934 30.2402 93.3287 22.8971 92.3943C16.8889 91.593 12.216 88.923 9.27827 84.5164C5.00614 77.9742 4.60573 70.8975 8.21065 63.8213C10.7475 58.7475 14.7525 55.009 17.2893 53.1398C16.7553 51.4041 15.9541 48.4668 15.5537 46.3307C-3.80574 60.35 -1.80287 79.3094 4.07172 88.2549C8.47745 94.9311 17.4229 99.0701 27.3029 99.0701C29.9729 99.0701 32.643 98.8029 35.3135 98.1357C52.4033 94.7975 65.3541 84.65 72.6971 69.5627ZM96.1955 53.0066C86.0483 41.1234 71.0951 34.5811 54.0053 34.5811H51.8693C50.6676 32.1779 48.1307 30.5754 45.327 30.5754H45.0598C40.9213 30.709 37.7172 34.1803 37.8504 38.3197C37.984 42.325 41.3217 45.5295 45.327 45.5295H45.5938C48.5311 45.3959 51.068 43.5266 52.1361 40.9898H54.5393C64.6865 40.9898 74.2992 43.927 82.9779 49.6684C89.6533 54.0746 94.4598 59.816 97.1299 66.7586C99.3996 72.3664 99.266 77.8406 96.8627 82.5139C93.1246 89.5902 86.8496 93.4623 78.5717 93.4623C73.2311 93.4623 68.1578 91.8598 65.4873 90.6582C64.0188 91.9934 61.3484 94.1295 59.4791 95.4652C65.2205 98.1352 71.0951 99.6041 76.7025 99.6041C89.5197 99.6041 98.9992 92.5275 102.604 85.4512C106.476 77.707 106.209 64.3553 96.1955 53.0066ZM28.3709 71.832C28.5045 75.8377 31.8422 79.0418 35.8475 79.0418H36.1147C40.2537 78.9086 43.4578 75.4369 43.3242 71.2979C43.191 67.2922 39.8529 64.0881 35.8475 64.0881H35.5807C35.3135 64.0881 34.9127 64.0881 34.6463 64.2213C29.1721 55.1422 26.9025 45.2623 27.7037 34.5807C28.2373 26.5697 30.9078 19.6266 35.5807 13.8852C39.4525 8.94508 46.9291 6.5418 52.0029 6.40861C66.1549 6.14139 72.1627 23.7656 72.5635 30.8422C74.2992 31.2426 77.2365 32.1775 79.2393 32.8451C77.6369 11.2156 64.2856 0 51.4688 0C39.4524 0 28.3709 8.67869 23.9647 21.4963C17.8234 38.5865 21.8287 55.009 29.3053 67.9602C28.6381 68.8947 28.2373 70.3635 28.3709 71.8324V71.832Z"
              fill="#764ABC"/>
    </g>

    <g id="git">
        <g clip-path="url(#clip0_2_5685)">
            <path d="M103.02 47.8219L57.1758 1.98038C54.5372 -0.6598 50.2552 -0.6598 47.6134 1.98038L38.0937 11.5001L50.1699 23.5763C52.9762 22.6281 56.1943 23.2642 58.4313 25.5012C60.6789 27.7525 61.3106 30.9981 60.3393 33.8134L71.9775 45.452C74.7932 44.482 78.0421 45.1095 80.291 47.3621C83.434 50.5039 83.434 55.596 80.291 58.7399C77.1471 61.8841 72.055 61.8841 68.9095 58.7399C66.5454 56.3733 65.9613 52.9013 67.1582 49.9888L56.3046 39.1352L56.3034 67.6973C57.0902 68.0863 57.8088 68.6002 58.4313 69.2189C61.5743 72.3607 61.5743 77.4532 58.4313 80.5995C55.2874 83.7422 50.1929 83.7422 47.0535 80.5995C43.9105 77.4532 43.9105 72.3611 47.0535 69.2193C47.8067 68.4658 48.7019 67.869 49.6871 67.4635V38.6352C48.7004 38.2324 47.8048 37.6353 47.0535 36.8793C44.6722 34.5013 44.0996 31.0071 45.3198 28.0831L33.4154 16.1775L1.98105 47.6099C-0.660352 50.2525 -0.660352 54.5349 1.98105 57.1755L47.8259 103.018C50.4652 105.658 54.7464 105.658 57.3891 103.018L103.019 57.3884C105.66 54.747 105.66 50.4621 103.019 47.8219"
                  fill="#DE4C36"/>
        </g>
        <defs>
            <clipPath id="clip0_2_5685">
                <rect width="105" height="105" fill="white"/>
            </clipPath>
        </defs>
    </g>

    <g id="burgerIcon">
        <path d="M13.32 20H36V17.7778H13.32V20ZM0 11.1111H36V8.88889H0V11.1111ZM0 2.22222H36V0H0V2.22222Z"
              fill="inherit"/>
    </g>

    <g id="styled">
        <path d="M68.7672 118.279C68.9472 117.872 69.4014 117.589 69.7314 117.246C74.7665 111.967 79.8444 106.735 84.811 101.391C86.3651 99.9558 87.5661 98.1804 88.3199 96.2036C89.0737 94.2269 89.36 92.1026 89.1562 89.9968C89.0003 89.0951 88.7957 88.2025 88.5434 87.3229C87.1893 88.6084 85.9294 89.7783 84.661 90.9567C82.6898 92.7908 80.7272 94.6334 78.7389 96.4461C77.5664 97.6415 76.0589 98.4531 74.4155 98.7737C72.772 99.0943 71.07 98.9087 69.5342 98.2416C67.9796 97.6705 66.6269 96.6553 65.6442 95.3221C64.6614 93.9889 64.0919 92.3965 64.0063 90.7425C63.9603 90.5297 63.8987 90.3206 63.8221 90.1168C62.3094 91.4024 60.861 92.5851 59.4254 93.8021L29.5875 119.085C29.3818 119.261 29.159 119.479 28.9662 119.65H68.7458L68.6858 119.612C68.4715 119.462 68.5829 118.673 68.7672 118.279Z" fill="#FFCEBF"/>
        <path d="M27.1436 118.279C27.4974 117.818 27.9245 117.418 28.4077 117.096L69.7 82.0642C72.5168 79.6731 75.3207 77.2691 78.1118 74.8522C78.4567 74.6118 78.727 74.2791 78.8918 73.8924C79.5594 70.9831 79.654 67.9717 79.1703 65.0263C78.7418 65.3262 78.5104 65.4548 78.3132 65.6648C74.9322 68.6901 71.5683 71.7412 68.1702 74.7494C67.0445 75.8824 65.5885 76.6292 64.0116 76.8825C62.4346 77.1359 60.818 76.8826 59.3941 76.1592C57.9414 75.4734 56.7256 74.3709 55.9014 72.992C55.0773 71.6131 54.682 70.0201 54.766 68.4159V67.0275C54.1447 67.4817 53.6905 67.7859 53.2662 68.1287C36.7396 81.3615 20.2159 94.5842 3.69496 107.797C2.94933 108.393 2.05801 109.721 1.08098 108.431C0.103957 107.141 1.59092 106.61 2.34083 106.01C19.953 91.8774 37.5738 77.7576 55.2031 63.6507C58.0742 61.3496 58.2628 60.3854 56.3944 56.7301L55.2803 57.7757C52.2249 60.6168 49.1353 63.4193 46.1271 66.3075C44.8931 67.4978 43.3476 68.3148 41.6691 68.6641C39.9906 69.0135 38.2476 68.8809 36.6412 68.2818C35.0348 67.6827 33.6306 66.6415 32.5908 65.2784C31.5509 63.9153 30.9178 62.2858 30.7646 60.5782C30.1947 61.0067 29.7019 61.3196 29.2348 61.6838L3.09503 81.9443C2.64419 82.3864 2.13005 82.7591 1.5695 83.0498C1.14643 83.1777 0.692134 83.155 0.283936 82.9856V119.671H27.0922C26.9925 119.451 26.9453 119.21 26.9542 118.969C26.9631 118.727 27.028 118.491 27.1436 118.279Z" fill="#FFCEBF"/>
        <path d="M99.5654 1.82096C98.8369 4.20782 98.1298 6.59897 97.4913 9.01154C96.9016 10.7164 96.9702 12.5802 97.6837 14.2371C98.3972 15.8941 99.7041 17.2246 101.348 17.9676C106.376 20.6107 112.043 21.798 117.709 21.3958V2.22806C117.646 1.80781 117.669 1.37914 117.777 0.968207C117.897 0.73576 118.049 0.520916 118.227 0.329712H99.5482C99.8353 0.663958 99.7368 1.25103 99.5654 1.82096Z" fill="#FF6196"/>
        <path d="M62.0511 42.9976C61.9623 45.137 61.2139 47.1966 59.9085 48.894C55.242 54.9179 49.8829 60.3719 43.9418 65.1435C42.9837 66.0304 41.7694 66.591 40.473 66.745C39.1766 66.8989 37.8647 66.6383 36.7255 66.0005C35.5917 65.5161 34.6357 64.6925 33.9889 63.6428C33.342 62.5932 33.0361 61.369 33.1131 60.1384C33.2503 58.627 33.8779 57.202 34.9 56.0803C41.5435 49.7455 48.7415 44.019 56.4075 38.9695C56.9096 38.5758 57.5227 38.3499 58.1602 38.3237C58.7977 38.2976 59.4273 38.4725 59.9599 38.8238C60.66 39.2585 61.2259 39.8786 61.5951 40.6153C61.9642 41.352 62.122 42.1766 62.0511 42.9976Z" fill="#FF87AF"/>
        <path d="M56.9127 68.97C56.8132 68.0228 56.9348 67.0654 57.2679 66.1731C57.6011 65.2809 58.1366 64.478 58.8325 63.8277C65.3374 57.8281 72.3164 52.3638 79.7014 47.4883C79.9243 47.3468 80.13 47.2054 80.3742 47.0597C81.0193 46.594 81.8009 46.356 82.596 46.3832C83.3912 46.4103 84.1547 46.7011 84.7665 47.2097C85.3585 47.7112 85.7774 48.3865 85.9635 49.1396C86.1497 49.8928 86.0937 50.6854 85.8036 51.4049C84.8693 54.5168 83.1449 57.3337 80.7984 59.5811C76.033 64.2758 71.1755 68.8762 66.2287 73.3795C65.4838 74.1456 64.5052 74.6422 63.447 74.7911C62.3889 74.9401 61.3112 74.7329 60.3837 74.2022C59.4091 73.6958 58.5792 72.9499 57.9721 72.0347C57.3649 71.1194 57.0004 70.0648 56.9127 68.97Z" fill="#FF87AF"/>
        <path d="M87.8344 71.8015C86.6346 73.0871 85.4004 74.3126 84.2477 75.6282C83.9011 76.1367 83.6136 76.683 83.3907 77.2566C84.0249 77.4451 84.7662 77.9422 85.2804 77.7665C87.8987 76.888 90.4527 75.8339 93.3281 74.724C92.7024 76.1638 92.231 77.4922 91.5668 78.7092C88.8305 83.3078 85.4038 87.4587 81.4066 91.0164C79.8868 92.4819 78.3084 93.8832 76.6715 95.2201C75.8046 95.9395 74.7622 96.4157 73.6509 96.6001C72.5396 96.7844 71.3992 96.6702 70.3465 96.2692C69.2938 95.8681 68.3665 95.1947 67.6595 94.3176C66.9525 93.4406 66.4912 92.3916 66.3227 91.2778C66.254 90.6585 66.3087 90.0317 66.4838 89.4337C66.6589 88.8357 66.9507 88.2784 67.3426 87.7939C73.174 81.4614 79.8384 75.9503 87.1531 71.4115C87.242 71.3771 87.3363 71.3582 87.4316 71.3558L87.8344 71.8015Z" fill="#FF87AF"/>
        <path d="M97.6724 54.7335L105.004 22.1659L110.147 23.37L107.494 31.4305C105.017 38.9296 102.51 46.4287 100.093 53.9364C99.6221 55.3248 99.0051 55.5819 97.6724 54.7335Z" fill="#FF6196"/>
        <path d="M89.3859 73.8885C90.1615 70.9274 90.9328 68.1892 91.5842 65.421C92.219 62.7364 93.4264 60.2207 95.1238 58.0461C96.1651 56.6791 97.3349 57.2234 98.5305 57.519C99.6361 57.789 99.9146 58.5989 99.9618 59.6616C100.136 62.6005 99.2411 65.5031 97.4421 67.8335C95.3003 70.4887 92.5318 72.5695 89.3859 73.8885Z" fill="#FF6196"/>
        <path d="M119.944 3.83936C120.008 2.88498 119.983 1.92674 119.871 0.976845C119.783 0.711516 119.607 0.483621 119.374 0.329779C119.184 0.175101 118.961 0.0652523 118.723 0.00838844C118.585 -0.0173228 118.393 0.124089 118.208 0.325493C118.03 0.516698 117.878 0.731542 117.758 0.96399C117.65 1.37492 117.627 1.80359 117.69 2.22384V21.3873C112.023 21.7895 106.357 20.6022 101.329 17.9591C99.685 17.2161 98.3781 15.8856 97.6646 14.2286C96.951 12.5717 96.8824 10.7079 97.4722 9.00304C98.1107 6.59046 98.8178 4.19932 99.5462 1.81246C99.7177 1.24253 99.8162 0.655454 99.5462 0.321208C99.3961 0.158494 99.1888 0.0602123 98.9677 0.0469556C98.6847 0.0500088 98.4105 0.146413 98.1878 0.321208C97.8674 0.512888 97.6121 0.796593 97.4551 1.1354C96.598 3.70652 95.8438 6.30336 95.1882 8.9259C94.9407 9.95936 94.874 11.0279 94.9911 12.0841C95.1569 13.9952 95.8676 15.8186 97.0389 17.3377C98.2102 18.8569 99.7928 20.0081 101.599 20.6545C102.409 20.993 102.884 21.3273 102.657 22.3943C102.344 23.7484 102.04 25.1026 101.732 26.461C99.632 35.6656 97.5436 44.8745 95.4667 54.0877C95.4082 54.4985 95.2275 54.8822 94.9482 55.189C93.5793 56.2771 92.4291 57.6148 91.5586 59.1314C90.4493 61.1327 89.6817 63.3052 89.2875 65.5592C89.2118 66.2782 88.952 66.9655 88.5331 67.5548C88.1143 68.144 87.5505 68.6153 86.8963 68.9231C85.1094 69.8273 83.4682 70.9971 81.4841 72.2141C81.6164 69.8282 81.5906 67.4361 81.407 65.0535C81.256 64.3206 81.288 63.5618 81.5003 62.8442C81.7126 62.1267 82.0985 61.4725 82.624 60.9397C85.2375 58.3506 87.1005 55.1015 88.0148 51.538C88.2878 50.712 88.3627 49.8333 88.2333 48.9729C88.104 48.1126 87.774 47.2948 87.27 46.5856C86.7661 45.8764 86.1023 45.2957 85.3325 44.8905C84.5626 44.4853 83.7081 44.267 82.8382 44.2531C81.4298 44.2374 80.047 44.6304 78.8573 45.3844C74.7683 48.1767 70.7504 51.0715 66.8073 54.0663C64.4633 55.8318 62.2564 57.7858 59.9852 59.637C59.8873 59.5319 59.8025 59.4154 59.7324 59.2899C59.689 58.9744 59.604 58.6661 59.4796 58.3729C57.5812 55.4418 58.8968 53.3121 60.958 51.1223C63.1053 48.8714 64.2919 45.8727 64.2661 42.7619C64.3327 41.1769 63.8363 39.6194 62.8649 38.3653C62.3474 37.7286 61.7096 37.2001 60.988 36.8097C59.9629 36.2487 58.7908 36.0145 57.6289 36.1386C56.467 36.2627 55.3708 36.7391 54.4873 37.5039L53.2917 38.361C50.5621 40.315 47.7981 42.2177 45.1713 44.3089C41.3364 47.3705 37.5841 50.5341 33.9183 53.7963C32.2042 55.309 30.953 57.3744 29.1746 58.78C19.9014 66.1034 10.5297 73.294 1.1922 80.5317C0.871132 80.7232 0.575909 80.9551 0.313735 81.2216C0.286745 81.2606 0.263774 81.3023 0.245172 81.3459C0.0480521 81.8044 -0.119071 82.5629 0.112331 82.8414C0.169054 82.9019 0.23761 82.95 0.313735 82.9828C0.721934 83.1523 1.17623 83.175 1.5993 83.0471C2.15985 82.7563 2.67399 82.3837 3.12483 81.9415L29.2646 61.6811C29.7317 61.3168 30.2245 60.9869 30.7944 60.5755C30.9476 62.2831 31.5807 63.9125 32.6206 65.2757C33.6604 66.6388 35.0646 67.68 36.671 68.2791C38.2774 68.8782 40.0204 69.0107 41.6989 68.6614C43.3774 68.312 44.9229 67.4951 46.1569 66.3048C49.1565 63.4166 52.2547 60.6141 55.3101 57.773L56.4242 56.7274C58.2926 60.3827 58.104 61.3468 55.2329 63.648C37.5893 77.7663 19.9585 91.8875 2.34064 106.012C1.59073 106.611 0.108046 107.156 1.08079 108.433C2.05353 109.71 2.94914 108.394 3.69476 107.798C20.2242 94.5972 36.7423 81.3787 53.2489 68.1432C53.6774 67.8003 54.1273 67.4961 54.7487 67.0419V68.4303C54.6647 70.0345 55.0599 71.6275 55.8841 73.0064C56.7082 74.3853 57.924 75.4879 59.3767 76.1736C60.8007 76.897 62.4173 77.1503 63.9942 76.897C65.5711 76.6436 67.0271 75.8968 68.1528 74.7638C71.551 71.7642 74.9149 68.7045 78.2959 65.6792C78.5102 65.4863 78.7587 65.3406 79.153 65.0407C79.6367 67.9861 79.542 70.9975 78.8744 73.9068C78.7096 74.2936 78.4394 74.6262 78.0945 74.8667C75.3005 77.2807 72.4966 79.6847 69.6826 82.0787L28.4075 117.115C27.9243 117.437 27.4972 117.836 27.1434 118.297C27.0305 118.507 26.9672 118.741 26.9582 118.979C26.9493 119.217 26.9951 119.455 27.092 119.673C27.2856 119.818 27.5094 119.917 27.7468 119.964C27.9842 120.011 28.2291 120.004 28.4633 119.943C28.648 119.889 28.8181 119.794 28.9603 119.664C29.1746 119.493 29.3889 119.274 29.5817 119.099L59.4196 93.8158C60.8551 92.5988 62.3035 91.399 63.8162 90.1306C63.8928 90.3343 63.9544 90.5434 64.0005 90.7562C64.0861 92.4102 64.6556 94.0027 65.6383 95.3358C66.6211 96.669 67.9737 97.6842 69.5284 98.2553C71.0641 98.9225 72.7662 99.108 74.4096 98.7874C76.053 98.4669 77.5606 97.6552 78.733 96.4598C80.7213 94.6472 82.684 92.8045 84.6552 90.9705C85.9407 89.792 87.1834 88.6093 88.5376 87.3366C88.7898 88.2162 88.9944 89.1089 89.1503 90.0106C89.3473 92.1094 89.0578 94.2253 88.3042 96.1941C87.5506 98.1628 86.3532 99.9313 84.8051 101.362C79.8386 106.71 74.7606 111.942 69.7255 117.217C69.3955 117.56 68.9413 117.843 68.7613 118.25C68.5813 118.657 68.4657 119.454 68.6799 119.626L68.7399 119.664C69.1892 119.883 69.6945 119.959 70.1883 119.883C70.3267 119.854 70.45 119.777 70.5354 119.664C70.6554 119.54 70.7711 119.386 70.8868 119.27C74.9663 115.053 79.0672 110.858 83.1168 106.611C84.7513 104.955 86.288 103.205 87.7191 101.371C89.5851 99.3049 90.8224 96.7492 91.2855 94.0042C91.7486 91.2591 91.4181 88.439 90.3331 85.8754C90.2164 85.3037 90.3304 84.7092 90.6502 84.2213C90.9287 83.7413 91.2372 83.2742 91.5543 82.8114C92.569 81.494 93.4141 80.0544 94.0698 78.5262C95.3368 74.7758 97.2817 71.2898 99.8076 68.2417C100.969 66.7695 101.768 65.0448 102.14 63.207C102.512 61.3692 102.447 59.4696 101.95 57.6616C101.775 56.9741 101.775 56.2535 101.95 55.5661C104.119 48.8512 106.351 42.1577 108.562 35.4599L111.519 26.4867L112.432 23.7142C114.377 23.7142 116.211 23.6756 118.037 23.7142C119.554 23.757 120.017 23.0457 120 21.5715C119.91 15.658 119.944 9.74866 119.944 3.83936ZM43.9371 65.1435C42.9791 66.0304 41.7647 66.591 40.4683 66.745C39.1719 66.8989 37.86 66.6383 36.7208 66.0006C35.587 65.5162 34.631 64.6925 33.9842 63.6429C33.3373 62.5932 33.0314 61.369 33.1084 60.1384C33.2457 58.6271 33.8732 57.202 34.8953 56.0803C41.5388 49.7455 48.7368 44.019 56.4028 38.9695C56.8212 38.6737 57.2972 38.4693 57.7998 38.3696C58.1369 38.3074 58.4825 38.3074 58.8196 38.3696C59.2234 38.4482 59.6086 38.6023 59.9552 38.8238C60.656 39.2588 61.2224 39.8796 61.5916 40.6171C61.9607 41.3547 62.1182 42.1802 62.0464 43.0019C61.9576 45.1413 61.2092 47.2009 59.9038 48.8983C55.237 54.9207 49.878 60.3733 43.9371 65.1435ZM66.2202 73.4097C65.4752 74.1758 64.4966 74.6724 63.4385 74.8213C62.3803 74.9703 61.3027 74.7631 60.3752 74.2324C59.3988 73.7249 58.5678 72.977 57.9605 72.0593C57.3533 71.1416 56.9897 70.0844 56.9042 68.9874C56.8047 68.0401 56.9263 67.0828 57.2594 66.1905C57.5925 65.2982 58.1281 64.4954 58.8239 63.8451C65.3288 57.8454 72.3078 52.3811 79.6929 47.5056C79.9157 47.3642 80.1214 47.2228 80.3657 47.0771C81.0107 46.6114 81.7923 46.3734 82.5875 46.4005C83.3826 46.4277 84.1462 46.7185 84.758 47.2271C85.35 47.7285 85.7688 48.4038 85.955 49.157C86.1412 49.9101 86.0852 50.7028 85.795 51.4223C84.8607 54.5342 83.1364 57.351 80.7899 59.5985C76.0633 64.3208 71.1482 68.8674 66.2288 73.3925L66.2202 73.4097ZM91.5501 78.7276C88.8175 83.319 85.3967 87.4638 81.407 91.0176C79.8872 92.4831 78.3088 93.8844 76.6718 95.2214C75.8049 95.9408 74.7625 96.417 73.6512 96.6013C72.5399 96.7856 71.3996 96.6714 70.3469 96.2704C69.2942 95.8694 68.3669 95.1959 67.6599 94.3189C66.9529 93.4419 66.4915 92.3928 66.323 91.279C66.2543 90.6597 66.3091 90.0329 66.4842 89.435C66.6592 88.837 66.9511 88.2796 67.3429 87.7951C73.1743 81.4627 79.8387 75.9515 87.1534 71.4128C87.2424 71.3783 87.3366 71.3594 87.432 71.3571L87.8605 71.7856C86.6606 73.0712 85.4265 74.2967 84.2738 75.6123C83.9272 76.1208 83.6396 76.6671 83.4167 77.2407C84.0509 77.4292 84.7923 77.9263 85.3065 77.7506C87.3763 77.0564 89.4117 76.2508 91.5929 75.3937L93.3541 74.7081C92.6942 76.1651 92.2228 77.4935 91.5586 78.7105L91.5501 78.7276ZM97.4336 67.8646C95.8352 69.8996 93.8317 71.5806 91.5501 72.8012C90.8444 73.1954 90.1202 73.564 89.3775 73.9068C90.1402 70.9885 90.903 68.2846 91.5501 65.5506L91.5758 65.4392C92.2106 62.7546 93.418 60.2389 95.1153 58.0644C96.1566 56.6974 97.3265 57.2416 98.5221 57.5373C99.6277 57.8073 99.9062 58.6172 99.9533 59.6799C100.129 62.6162 99.2372 65.5171 97.4422 67.8475L97.4336 67.8646ZM107.461 31.4404C104.984 38.9395 102.477 46.4386 100.06 53.9463C99.6062 55.3561 98.9892 55.6132 97.6565 54.7648L104.011 26.5124L104.988 22.1758L110.131 23.3799L109.098 26.5124L107.461 31.4404Z" fill="black"/>
    </g>

    <g id="webStorm">
        <path d="M24 24h80v80H24z"/>
        <path fill="#fff"
              d="M31.6 89h30v5h-30zM70.8 62.8l4.2-5.2c3 2.4 6 4 9.8 4 3 0 4.8-1.2 4.8-3.2 0-1.8-1.2-2.8-6.6-4.2-6.6-1.8-10.8-3.6-10.8-10.2v-.2c0-6 4.8-10 11.4-10A19.58 19.58 0 0 1 95.8 38L92 43.6a15.24 15.24 0 0 0-8.4-3.2c-2.6 0-4.2 1.2-4.2 3 0 2.2 1.4 3 7 4.4 6.6 1.8 10.4 4.2 10.4 10 0 6.6-5 10.4-12 10.4a23.06 23.06 0 0 1-14-5.4M64.4 34.4l-5 19.2-5.6-19.2h-5.6l-5.6 19.2-5-19.2h-7.8l9.6 33.2h6.2L51 48.4l5.4 19.2h6.2l9.6-33.2h-7.8z"/>
    </g>

    <!-- Work Experience Icons -->

    <g id="company">
        <path d="M3.3335 1.5V10.5H7.3335V8.75H8.66683V10.5H12.6668V1.5H3.3335ZM4.66683 2.5H6.00016V3.5H4.66683V2.5ZM7.3335 2.5H8.66683V3.5H7.3335V2.5ZM10.0002 2.5H11.3335V3.5H10.0002V2.5ZM4.66683 4.5H6.00016V5.5H4.66683V4.5ZM7.3335 4.5H8.66683V5.5H7.3335V4.5ZM10.0002 4.5H11.3335V5.5H10.0002V4.5ZM4.66683 6.5H6.00016V7.5H4.66683V6.5ZM7.3335 6.5H8.66683V7.5H7.3335V6.5ZM10.0002 6.5H11.3335V7.5H10.0002V6.5ZM4.66683 8.5H6.00016V9.5H4.66683V8.5ZM10.0002 8.5H11.3335V9.5H10.0002V8.5Z"
              fill="inherit"/>
    </g>

    <g id="location">
        <path d="M8 6.75C7.50555 6.75 7.0222 6.64003 6.61108 6.43401C6.19995 6.22798 5.87952 5.93514 5.6903 5.59253C5.50108 5.24992 5.45157 4.87292 5.54804 4.50921C5.6445 4.14549 5.8826 3.8114 6.23223 3.54918C6.58187 3.28695 7.02732 3.10838 7.51228 3.03603C7.99723 2.96368 8.4999 3.00081 8.95671 3.14273C9.41353 3.28464 9.80397 3.52496 10.0787 3.83331C10.3534 4.14165 10.5 4.50416 10.5 4.875C10.4992 5.3721 10.2356 5.84867 9.76689 6.20017C9.29822 6.55167 8.6628 6.74941 8 6.75ZM8 3.75C7.70333 3.75 7.41332 3.81598 7.16665 3.9396C6.91997 4.06321 6.72771 4.23892 6.61418 4.44448C6.50065 4.65005 6.47095 4.87625 6.52882 5.09448C6.5867 5.31271 6.72956 5.51316 6.93934 5.6705C7.14912 5.82783 7.41639 5.93498 7.70737 5.97838C7.99834 6.02179 8.29994 5.99951 8.57403 5.91437C8.84812 5.82922 9.08238 5.68502 9.24721 5.50002C9.41203 5.31501 9.5 5.09751 9.5 4.875C9.4996 4.57672 9.34144 4.29075 9.06022 4.07983C8.779 3.86892 8.3977 3.7503 8 3.75Z"
              fill="inherit"/>
        <path d="M8.00001 11.25L3.78201 7.51912C3.7234 7.4631 3.66539 7.40673 3.60801 7.35C2.8875 6.63817 2.49826 5.76871 2.50001 4.875C2.50001 3.78098 3.07947 2.73177 4.11092 1.95818C5.14237 1.1846 6.54132 0.75 8.00001 0.75C9.4587 0.75 10.8576 1.1846 11.8891 1.95818C12.9205 2.73177 13.5 3.78098 13.5 4.875C13.5018 5.7683 13.1127 6.63737 12.3925 7.34888L12.392 7.35C12.392 7.35 12.242 7.49775 12.2195 7.51763L8.00001 11.25ZM4.40601 6.89813C4.40701 6.89813 4.52301 7.01362 4.54951 7.03837L8.00001 10.0905L11.455 7.03425C11.477 7.01362 11.594 6.89738 11.5945 6.897C12.1831 6.31542 12.5012 5.60514 12.5 4.875C12.5 3.97989 12.0259 3.12145 11.182 2.48851C10.3381 1.85558 9.19348 1.5 8.00001 1.5C6.80653 1.5 5.66194 1.85558 4.81803 2.48851C3.97411 3.12145 3.50001 3.97989 3.50001 4.875C3.49896 5.60559 3.81739 6.31628 4.40651 6.89813H4.40601Z"
              fill="inherit"/>
    </g>

    <g id="data">
        <path d="M5.33341 6.5C5.1566 6.5 4.98703 6.44732 4.86201 6.35355C4.73699 6.25979 4.66675 6.13261 4.66675 6C4.66675 5.86739 4.73699 5.74021 4.86201 5.64645C4.98703 5.55268 5.1566 5.5 5.33341 5.5C5.51023 5.5 5.67979 5.55268 5.80482 5.64645C5.92984 5.74021 6.00008 5.86739 6.00008 6C6.00008 6.13261 5.92984 6.25979 5.80482 6.35355C5.67979 6.44732 5.51023 6.5 5.33341 6.5ZM5.33341 8.5C5.1566 8.5 4.98703 8.44732 4.86201 8.35355C4.73699 8.25979 4.66675 8.13261 4.66675 8C4.66675 7.86739 4.73699 7.74021 4.86201 7.64645C4.98703 7.55268 5.1566 7.5 5.33341 7.5C5.51023 7.5 5.67979 7.55268 5.80482 7.64645C5.92984 7.74021 6.00008 7.86739 6.00008 8C6.00008 8.13261 5.92984 8.25979 5.80482 8.35355C5.67979 8.44732 5.51023 8.5 5.33341 8.5ZM7.33341 8C7.33341 8.13261 7.40365 8.25979 7.52868 8.35355C7.6537 8.44732 7.82327 8.5 8.00008 8.5C8.17689 8.5 8.34646 8.44732 8.47149 8.35355C8.59651 8.25979 8.66675 8.13261 8.66675 8C8.66675 7.86739 8.59651 7.74021 8.47149 7.64645C8.34646 7.55268 8.17689 7.5 8.00008 7.5C7.82327 7.5 7.6537 7.55268 7.52868 7.64645C7.40365 7.74021 7.33341 7.86739 7.33341 8ZM10.6667 8.5C10.4899 8.5 10.3204 8.44732 10.1953 8.35355C10.0703 8.25979 10.0001 8.13261 10.0001 8C10.0001 7.86739 10.0703 7.74021 10.1953 7.64645C10.3204 7.55268 10.4899 7.5 10.6667 7.5C10.8436 7.5 11.0131 7.55268 11.1382 7.64645C11.2632 7.74021 11.3334 7.86739 11.3334 8C11.3334 8.13261 11.2632 8.25979 11.1382 8.35355C11.0131 8.44732 10.8436 8.5 10.6667 8.5ZM7.33341 6C7.33341 6.13261 7.40365 6.25979 7.52868 6.35355C7.6537 6.44732 7.82327 6.5 8.00008 6.5C8.17689 6.5 8.34646 6.44732 8.47149 6.35355C8.59651 6.25979 8.66675 6.13261 8.66675 6C8.66675 5.86739 8.59651 5.74021 8.47149 5.64645C8.34646 5.55268 8.17689 5.5 8.00008 5.5C7.82327 5.5 7.6537 5.55268 7.52868 5.64645C7.40365 5.74021 7.33341 5.86739 7.33341 6ZM10.6667 6.5C10.4899 6.5 10.3204 6.44732 10.1953 6.35355C10.0703 6.25979 10.0001 6.13261 10.0001 6C10.0001 5.86739 10.0703 5.74021 10.1953 5.64645C10.3204 5.55268 10.4899 5.5 10.6667 5.5C10.8436 5.5 11.0131 5.55268 11.1382 5.64645C11.2632 5.74021 11.3334 5.86739 11.3334 6C11.3334 6.13261 11.2632 6.25979 11.1382 6.35355C11.0131 6.44732 10.8436 6.5 10.6667 6.5ZM5.33341 3.5C5.1566 3.5 4.98703 3.55268 4.86201 3.64645C4.73699 3.74021 4.66675 3.86739 4.66675 4C4.66675 4.13261 4.73699 4.25979 4.86201 4.35355C4.98703 4.44732 5.1566 4.5 5.33341 4.5H10.6667C10.8436 4.5 11.0131 4.44732 11.1382 4.35355C11.2632 4.25979 11.3334 4.13261 11.3334 4C11.3334 3.86739 11.2632 3.74021 11.1382 3.64645C11.0131 3.55268 10.8436 3.5 10.6667 3.5H5.33341Z"
              fill="inherit"/>
        <path fill-rule="evenodd" clip-rule="evenodd"
              d="M4 1.5C3.46957 1.5 2.96086 1.65804 2.58579 1.93934C2.21071 2.22064 2 2.60218 2 3V9C2 9.39782 2.21071 9.77936 2.58579 10.0607C2.96086 10.342 3.46957 10.5 4 10.5H12C12.5304 10.5 13.0391 10.342 13.4142 10.0607C13.7893 9.77936 14 9.39782 14 9V3C14 2.60218 13.7893 2.22064 13.4142 1.93934C13.0391 1.65804 12.5304 1.5 12 1.5H4ZM12 2.5H4C3.82319 2.5 3.65362 2.55268 3.5286 2.64645C3.40357 2.74021 3.33333 2.86739 3.33333 3V9C3.33333 9.13261 3.40357 9.25979 3.5286 9.35355C3.65362 9.44732 3.82319 9.5 4 9.5H12C12.1768 9.5 12.3464 9.44732 12.4714 9.35355C12.5964 9.25979 12.6667 9.13261 12.6667 9V3C12.6667 2.86739 12.5964 2.74021 12.4714 2.64645C12.3464 2.55268 12.1768 2.5 12 2.5Z"
              fill="inherit"/>
    </g>


</svg>
